Halibut Variable_80_mm.glyphspackage
{
glyphname = quotesingle;
kernLeft = quote;
kernRight = quote;
layers = (
{
layerId = "0CCC0E2D-406A-4672-8E6C-854B1DF78A27";
shapes = (
{
closed = 1;
nodes = (
(70,690,l),
(101,489,l),
(111,489,l),
(140,690,l)
);
}
);
width = 190;
},
{
layerId = m002;
shapes = (
{
closed = 1;
nodes = (
(54,706,l),
(96,505,l),
(114,505,l),
(156,706,l)
);
}
);
width = 190;
},
{
layerId = m003;
shapes = (
{
closed = 1;
nodes = (
(58,692,l),
(93,501,l),
(109,501,l),
(143,692,l)
);
}
);
width = 181;
},
{
layerId = "2C26E880-80A5-4D19-8A94-7D905A372841";
shapes = (
{
closed = 1;
nodes = (
(70,681,l),
(97,490,l),
(107,490,l),
(132,681,l)
);
}
);
width = 182;
}
);
unicode = 39;
}
{
glyphname = asterisk;
kernLeft = asterisk;
kernRight = asterisk;
layers = (
{
layerId = "0CCC0E2D-406A-4672-8E6C-854B1DF78A27";
shapes = (
{
closed = 1;
nodes = (
(157,571,l),
(28,626,l),
(10,580,l),
(150,559,l),
(49,477,l),
(96,449,l),
(164,552,l),
(229,447,l),
(277,476,l),
(176,559,l),
(318,580,l),
(300,626,l),
(171,571,l),
(193,690,l),
(135,690,l)
);
}
);
width = 328;
},
{
associatedMasterId = "0CCC0E2D-406A-4672-8E6C-854B1DF78A27";
layerId = "C4FE6A0D-E4EE-41AD-A04E-497822DBEEDD";
name = "10 Jan 22, 17:35";
shapes = (
{
closed = 1;
nodes = (
(52,594,l),
(112,590,l),
(64,552,l),
(63,500,l),
(66,499,l),
(114,517,l),
(137,575,l),
(159,517,l),
(207,499,l),
(210,500,l),
(208,552,l),
(161,590,l),
(222,594,l),
(254,634,l),
(252,636,l),
(203,652,l),
(152,618,l),
(168,677,l),
(138,720,l),
(136,720,l),
(106,677,l),
(122,618,l),
(71,652,l),
(22,636,l),
(20,634,l)
);
}
);
width = 274;
},
{
layerId = m002;
shapes = (
{
closed = 1;
nodes = (
(179,571,l),
(19,634,l),
(-6,559,l),
(162,535,l),
(38,440,l),
(125,398,l),
(207,515,l),
(295,399,l),
(381,440,l),
(255,533,l),
(425,559,l),
(399,634,l),
(233,571,l),
(263,706,l),
(155,706,l)
);
}
);
width = 419;
},
{
associatedMasterId = m002;
layerId = "B41644C7-8C1B-4AF4-9F54-0B257A59AFD9";
name = "10 Jan 22, 17:35";
shapes = (
{
closed = 1;
nodes = (
(52,594,l),
(112,590,l),
(64,552,l),
(63,500,l),
(66,499,l),
(114,517,l),
(137,575,l),
(159,517,l),
(207,499,l),
(210,500,l),
(208,552,l),
(161,590,l),
(222,594,l),
(254,634,l),
(252,636,l),
(203,652,l),
(152,618,l),
(168,677,l),
(138,720,l),
(136,720,l),
(106,677,l),
(122,618,l),
(71,652,l),
(22,636,l),
(20,634,l)
);
}
);
width = 274;
},
{
layerId = m003;
shapes = (
{
closed = 1;
nodes = (
(121,573,l),
(19,619,l),
(1,552,l),
(114,549,l),
(26,459,l),
(89,419,l),
(131,540,l),
(176,419,l),
(237,459,l),
(149,549,l),
(261,552,l),
(244,619,l),
(142,573,l),
(169,693,l),
(94,693,l)
);
}
);
width = 264;
},
{
associatedMasterId = m003;
layerId = "D373F3D5-443E-4337-8037-E32155D2A73B";
name = "10 Jan 22, 17:35";
shapes = (
{
closed = 1;
nodes = (
(52,594,l),
(112,590,l),
(64,552,l),
(63,500,l),
(66,499,l),
(114,517,l),
(137,575,l),
(159,517,l),
(207,499,l),
(210,500,l),
(208,552,l),
(161,590,l),
(222,594,l),
(254,634,l),
(252,636,l),
(203,652,l),
(152,618,l),
(168,677,l),
(138,720,l),
(136,720,l),
(106,677,l),
(122,618,l),
(71,652,l),
(22,636,l),
(20,634,l)
);
}
);
width = 274;
},
{
layerId = "2C26E880-80A5-4D19-8A94-7D905A372841";
shapes = (
{
closed = 1;
nodes = (
(94,560,l),
(7,603,l),
(-5,569,l),
(92,551,l),
(24,461,l),
(53,438,l),
(100,544,l),
(144,438,l),
(175,459,l),
(108,551,l),
(205,569,l),
(193,603,l),
(105,560,l),
(117,680,l),
(79,680,l)
);
}
);
width = 195;
}
);
unicode = 42;
}
{
glyphname = plus;
layers = (
{
layerId = "0CCC0E2D-406A-4672-8E6C-854B1DF78A27";
shapes = (
{
closed = 1;
nodes = (
(225,266,l),
(225,109,l),
(256,109,l),
(256,265,l),
(410,265,l),
(410,293,l),
(256,293,l),
(256,450,l),
(226,450,l),
(226,293,l),
(70,293,l),
(70,266,l)
);
}
);
width = 480;
},
{
layerId = m002;
shapes = (
{
closed = 1;
nodes = (
(241,251,l),
(241,64,l),
(302,64,l),
(302,252,l),
(487,252,l),
(487,309,l),
(302,309,l),
(302,496,l),
(242,496,l),
(240,309,l),
(54,309,l),
(54,253,l)
);
}
);
width = 541;
},
{
layerId = m003;
shapes = (
{
closed = 1;
nodes = (
(222,257,l),
(221,93,l),
(271,93,l),
(271,257,l),
(434,256,l),
(434,303,l),
(271,303,l),
(271,468,l),
(222,468,l),
(222,303,l),
(58,303,l),
(58,257,l)
);
}
);
width = 492;
},
{
layerId = "2C26E880-80A5-4D19-8A94-7D905A372841";
shapes = (
{
closed = 1;
nodes = (
(209,268,l),
(209,127,l),
(236,127,l),
(236,267,l),
(375,266,l),
(375,292,l),
(236,292,l),
(236,433,l),
(210,433,l),
(210,292,l),
(69,292,l),
(69,267,l)
);
}
);
width = 445;
}
);
unicode = 43;
}
{
glyphname = comma;
kernLeft = comma;
kernRight = comma;
layers = (
{
layerId = "0CCC0E2D-406A-4672-8E6C-854B1DF78A27";
shapes = (
{
closed = 1;
nodes = (
(138,88,l),
(90,-106,l),
(100,-106,l),
(208,88,l)
);
}
);
width = 298;
},
{
layerId = m002;
shapes = (
{
closed = 1;
nodes = (
(114,104,l),
(74,-122,l),
(92,-122,l),
(230,104,l)
);
}
);
width = 304;
},
{
layerId = m003;
shapes = (
{
closed = 1;
nodes = (
(103,88,l),
(60,-108,l),
(76,-108,l),
(188,88,l)
);
}
);
width = 248;
},
{
layerId = "2C26E880-80A5-4D19-8A94-7D905A372841";
shapes = (
{
closed = 1;
nodes = (
(104,90,l),
(60,-97,l),
(71,-97,l),
(164,90,l)
);
}
);
width = 224;
}
);
unicode = 44;
}
{
glyphname = three;
kernRight = three;
layers = (
{
background = {
shapes = (
{
closed = 0;
nodes = (
(213,275,l)
);
},
{
closed = 0;
nodes = (
(429,317,l)
);
}
);
};
layerId = "0CCC0E2D-406A-4672-8E6C-854B1DF78A27";
shapes = (
{
closed = 1;
nodes = (
(586,343,o),
(689,275,o),
(689,186,cs),
(689,85,o),
(549,5,o),
(373,5,cs),
(292,5,o),
(208,22,o),
(115,58,c),
(99,201,l),
(91,203,l),
(40,49,l),
(152,4,o),
(267,-20,o),
(373,-20,cs),
(576,-20,o),
(726,71,o),
(726,195,cs),
(726,297,o),
(617,369,o),
(463,369,cs),
(378,369,o),
(274,347,o),
(234,321,c),
(235,310,l),
(678,575,l),
(660,600,l),
(62,612,l),
(102,416,l),
(110,418,l),
(142,581,l),
(648,582,l),
(644,587,l),
(216,331,l),
(233,301,l),
(301,327,o),
(383,343,o),
(450,343,cs)
);
}
);
width = 786;
},
{
associatedMasterId = "0CCC0E2D-406A-4672-8E6C-854B1DF78A27";
layerId = "9C2EA2D2-A497-4220-BCF2-1620F57E68F9";
name = "Oct 6 18, 22:15";
shapes = (
{
closed = 1;
nodes = (
(40,35,o),
(118,-12,o),
(188,-12,cs),
(307,-12,o),
(377,64,o),
(377,192,cs),
(377,283,o),
(332,370,o),
(250,370,cs),
(196,370,o),
(154,339,o),
(139,326,c),
(201,398,l),
(348,570,l),
(301,570,l),
(89,325,l),
(108,285,l),
(141,320,o),
(199,340,o),
(232,340,cs),
(300,340,o),
(317,269,o),
(317,166,cs),
(317,67,o),
(272,8,o),
(197,8,cs),
(137,8,o),
(79,35,o),
(53,105,c),
(11,113,l)
);
},
{
closed = 1;
nodes = (
(348,600,l),
(104,600,l),
(17,610,l),
(41,400,l),
(45,402,l),
(69,570,l),
(348,570,l)
);
},
{
closed = 1;
nodes = (
(58,206,l),
(55,209,l),
(10,112,l),
(53,105,l)
);
}
);
width = 600;
},
{
associatedMasterId = "0CCC0E2D-406A-4672-8E6C-854B1DF78A27";
layerId = "3F2BA37A-C591-4BE2-9543-509924B629D8";
name = "Oct 6 18, 22:16";
shapes = (
{
closed = 1;
nodes = (
(38,40,o),
(111,-12,o),
(188,-12,cs),
(299,-12,o),
(377,72,o),
(377,192,cs),
(377,282,o),
(324,360,o),
(240,360,cs),
(204,360,o),
(168,352,o),
(139,326,c),
(201,398,l),
(348,570,l),
(301,570,l),
(89,325,l),
(108,285,l),
(137,317,o),
(179,330,o),
(222,330,cs),
(282,330,o),
(317,254,o),
(317,166,cs),
(317,73,o),
(267,8,o),
(197,8,cs),
(134,8,o),
(74,48,o),
(53,105,c),
(11,113,l)
);
},
{
closed = 1;
nodes = (
(348,600,l),
(104,600,l),
(17,610,l),
(41,400,l),
(45,402,l),
(69,570,l),
(348,570,l)
);
},
{
closed = 1;
nodes = (
(58,206,l),
(55,209,l),
(10,112,l),
(53,105,l)
);
}
);
width = 600;
},
{
background = {
shapes = (
{
closed = 0;
nodes = (
(237,275,l)
);
},
{
closed = 0;
nodes = (
(453,317,l)
);
}
);
};
layerId = m002;
shapes = (
{
closed = 1;
nodes = (
(605,318,o),
(694,258,o),
(694,170,cs),
(694,82,o),
(594,29,o),
(410,29,cs),
(286,29,o),
(139,88,o),
(116,127,c),
(99,294,l),
(91,296,l),
(24,95,l),
(107,15,o),
(227,-20,o),
(410,-20,cs),
(611,-20,o),
(798,76,o),
(798,206,cs),
(798,313,o),
(668,386,o),
(546,386,cs),
(462,386,o),
(356,354,o),
(322,333,c),
(318,318,l),
(753,554,l),
(732,600,l),
(62,612,l),
(102,386,l),
(110,388,l),
(142,541,l),
(670,548,l),
(664,579,l),
(199,332,l),
(238,276,l),
(313,306,o),
(381,318,o),
(454,318,cs)
);
}
);
width = 842;
},
{
associatedMasterId = m002;
layerId = "DAB37934-B8B8-41E3-892F-1B729AC6412C";
name = "Oct 6 18, 22:15";
shapes = (
{
closed = 1;
nodes = (
(40,35,o),
(118,-12,o),
(188,-12,cs),
(307,-12,o),
(377,64,o),
(377,192,cs),
(377,283,o),
(332,370,o),
(250,370,cs),
(196,370,o),
(154,339,o),
(139,326,c),
(201,398,l),
(348,570,l),
(301,570,l),
(89,325,l),
(108,285,l),
(141,320,o),
(199,340,o),
(232,340,cs),
(300,340,o),
(317,269,o),
(317,166,cs),
(317,67,o),
(272,8,o),
(197,8,cs),
(137,8,o),
(79,35,o),
(53,105,c),
(11,113,l)
);
},
{
closed = 1;
nodes = (
(348,600,l),
(104,600,l),
(17,610,l),
(41,400,l),
(45,402,l),
(69,570,l),
(348,570,l)
);
},
{
closed = 1;
nodes = (
(58,206,l),
(55,209,l),
(10,112,l),
(53,105,l)
);
}
);
width = 600;
},
{
associatedMasterId = m002;
layerId = "10C5A570-0CBD-481A-BE7B-3B5733BC0802";
name = "Oct 6 18, 22:16";
shapes = (
{
closed = 1;
nodes = (
(38,40,o),
(111,-12,o),
(188,-12,cs),
(299,-12,o),
(377,72,o),
(377,192,cs),
(377,282,o),
(324,360,o),
(240,360,cs),
(204,360,o),
(168,352,o),
(139,326,c),
(201,398,l),
(348,570,l),
(301,570,l),
(89,325,l),
(108,285,l),
(137,317,o),
(179,330,o),
(222,330,cs),
(282,330,o),
(317,254,o),
(317,166,cs),
(317,73,o),
(267,8,o),
(197,8,cs),
(134,8,o),
(74,48,o),
(53,105,c),
(11,113,l)
);
},
{
closed = 1;
nodes = (
(348,600,l),
(104,600,l),
(17,610,l),
(41,400,l),
(45,402,l),
(69,570,l),
(348,570,l)
);
},
{
closed = 1;
nodes = (
(58,206,l),
(55,209,l),
(10,112,l),
(53,105,l)
);
}
);
width = 600;
},
{
layerId = m003;
shapes = (
{
closed = 1;
nodes = (
(311,315,o),
(346,266,o),
(346,176,cs),
(346,94,o),
(291,26,o),
(217,26,cs),
(177,26,o),
(133,38,o),
(99,58,c),
(82,221,l),
(74,223,l),
(20,23,l),
(49,3,o),
(147,-20,o),
(200,-20,cs),
(332,-20,o),
(425,80,o),
(425,204,cs),
(425,298,o),
(361,362,o),
(280,362,cs),
(250,362,o),
(226,353,o),
(170,323,c),
(170,313,l),
(405,555,l),
(370,600,l),
(41,612,l),
(89,406,l),
(97,408,l),
(120,556,l),
(381,563,l),
(368,600,l),
(95,317,l),
(136,271,l),
(168,300,o),
(205,315,o),
(241,315,cs)
);
}
);
width = 463;
},
{
associatedMasterId = m003;
layerId = "BD6D45D8-25B5-4F58-8CD8-CBFE9DFE5C27";
name = "Oct 6 18, 22:15";
shapes = (
{
closed = 1;
nodes = (
(40,35,o),
(118,-12,o),
(188,-12,cs),
(307,-12,o),
(377,64,o),
(377,192,cs),
(377,283,o),
(332,370,o),
(250,370,cs),
(196,370,o),
(154,339,o),
(139,326,c),
(201,398,l),
(348,570,l),
(301,570,l),
(89,325,l),
(108,285,l),
(141,320,o),
(199,340,o),
(232,340,cs),
(300,340,o),
(317,269,o),
(317,166,cs),
(317,67,o),
(272,8,o),
(197,8,cs),
(137,8,o),
(79,35,o),
(53,105,c),
(11,113,l)
);
},
{
closed = 1;
nodes = (
(348,600,l),
(104,600,l),
(17,610,l),
(41,400,l),
(45,402,l),
(69,570,l),
(348,570,l)
);
},
{
closed = 1;
nodes = (
(58,206,l),
(55,209,l),
(10,112,l),
(53,105,l)
);
}
);
width = 600;
},
{
associatedMasterId = m003;
layerId = "8758F525-39A2-46DD-9B83-573C1508BF1A";
name = "Oct 6 18, 22:16";
shapes = (
{
closed = 1;
nodes = (
(38,40,o),
(111,-12,o),
(188,-12,cs),
(299,-12,o),
(377,72,o),
(377,192,cs),
(377,282,o),
(324,360,o),
(240,360,cs),
(204,360,o),
(168,352,o),
(139,326,c),
(201,398,l),
(348,570,l),
(301,570,l),
(89,325,l),
(108,285,l),
(137,317,o),
(179,330,o),
(222,330,cs),
(282,330,o),
(317,254,o),
(317,166,cs),
(317,73,o),
(267,8,o),
(197,8,cs),
(134,8,o),
(74,48,o),
(53,105,c),
(11,113,l)
);
},
{
closed = 1;
nodes = (
(348,600,l),
(104,600,l),
(17,610,l),
(41,400,l),
(45,402,l),
(69,570,l),
(348,570,l)
);
},
{
closed = 1;
nodes = (
(58,206,l),
(55,209,l),
(10,112,l),
(53,105,l)
);
}
);
width = 600;
},
{
layerId = "2C26E880-80A5-4D19-8A94-7D905A372841";
shapes = (
{
closed = 1;
nodes = (
(295,334,o),
(342,284,o),
(342,178,cs),
(342,69,o),
(274,10,o),
(188,10,cs),
(146,10,o),
(124,16,o),
(106,27,c),
(91,173,l),
(83,175,l),
(40,2,l),
(89,-16,o),
(129,-20,o),
(181,-20,cs),
(297,-20,o),
(382,56,o),
(382,195,cs),
(382,292,o),
(339,364,o),
(229,364,cs),
(198,364,o),
(166,353,o),
(133,326,c),
(136,312,l),
(351,584,l),
(336,600,l),
(35,612,l),
(74,431,l),
(82,433,l),
(102,575,l),
(330,580,l),
(313,590,l),
(101,316,l),
(131,290,l),
(157,319,o),
(186,334,o),
(225,334,cs)
);
}
);
width = 432;
}
);
unicode = 51;
}
{
glyphname = A;
kernLeft = A;
kernRight = A;
layers = (
{
anchors = (
{
name = bottom;
pos = (414,0);
},
{
name = ogonek;
pos = (726,10);
},
{
name = top;
pos = (398,600);
}
);
layerId = "0CCC0E2D-406A-4672-8E6C-854B1DF78A27";
shapes = (
{
closed = 1;
nodes = (
(650,223,l),
(177,223,l),
(177,193,l),
(650,193,l)
);
},
{
closed = 1;
nodes = (
(720,50,l),
(530,8,l),
(532,0,l),
(878,0,l),
(880,8,l),
(760,50,l),
(423,600,l),
(206,600,l),
(204,592,l),
(370,552,l),
(70,49,l),
(-50,7,l),
(-48,-1,l),
(290,-1,l),
(292,7,l),
(107,49,l),
(417,572,l),
(404,572,l)
);
}
);
width = 830;
},
{
anchors = (
{
name = bottom;
pos = (402,0);
},
{
name = ogonek;
pos = (714,10);
},
{
name = top;
pos = (386,600);
}
);
layerId = m002;
shapes = (
{
closed = 1;
nodes = (
(638,231,l),
(161,231,l),
(161,185,l),
(638,185,l)
);
},
{
closed = 1;
nodes = (
(671,50,l),
(481,8,l),
(483,0,l),
(912,0,l),
(914,8,l),
(794,50,l),
(452,600,l),
(174,600,l),
(172,592,l),
(338,552,l),
(38,49,l),
(-82,8,l),
(-80,0,l),
(286,0,l),
(288,8,l),
(103,49,l),
(410,572,l),
(363,572,l)
);
}
);
width = 848;
},
{
anchors = (
{
name = bottom;
pos = (247,0);
},
{
name = ogonek;
pos = (408,10);
},
{
name = top;
pos = (228,600);
}
);
layerId = m003;
shapes = (
{
closed = 1;
nodes = (
(385,227,l),
(116,227,l),
(116,190,l),
(385,190,l)
);
},
{
closed = 1;
nodes = (
(384,45,l),
(264,8,l),
(266,0,l),
(538,0,l),
(540,8,l),
(470,45,l),
(283,600,l),
(103,600,l),
(101,592,l),
(210,555,l),
(37,44,l),
(-33,8,l),
(-31,0,l),
(206,0,l),
(208,8,l),
(88,44,l),
(260,572,l),
(225,572,l)
);
}
);
width = 540;
},
{
anchors = (
{
name = bottom;
pos = (246,0);
},
{
name = ogonek;
pos = (407,10);
},
{
name = top;
pos = (242,600);
}
);
layerId = "2C26E880-80A5-4D19-8A94-7D905A372841";
shapes = (
{
closed = 1;
nodes = (
(372,224,l),
(119,224,l),
(119,194,l),
(372,194,l)
);
},
{
closed = 1;
nodes = (
(407,45,l),
(287,8,l),
(289,0,l),
(510,0,l),
(512,8,l),
(442,45,l),
(260,600,l),
(116,600,l),
(114,592,l),
(223,555,l),
(50,45,l),
(-20,8,l),
(-18,0,l),
(204,0,l),
(206,8,l),
(86,45,l),
(259,572,l),
(237,572,l)
);
}
);
width = 492;
}
);
unicode = 65;
}
{
glyphname = C;
kernLeft = O;
kernRight = C;
layers = (
{
anchors = (
{
name = bottom;
pos = (488,0);
},
{
name = top;
pos = (455,600);
}
);
layerId = "0CCC0E2D-406A-4672-8E6C-854B1DF78A27";
shapes = (
{
closed = 1;
nodes = (
(551,593,o),
(671,573,o),
(719,555,c),
(736,378,l),
(744,376,l),
(805,572,l),
(733,597,o),
(595,625,o),
(453,625,cs),
(192,625,o),
(40,502,o),
(40,304,cs),
(40,106,o),
(205,-20,o),
(465,-20,cs),
(600,-20,o),
(708,12,o),
(785,77,c),
(772,97,l),
(703,44,o),
(595,12,o),
(479,12,cs),
(240,12,o),
(78,134,o),
(78,310,cs),
(78,483,o),
(226,593,o),
(450,593,cs)
);
}
);
width = 845;
},
{
associatedMasterId = "0CCC0E2D-406A-4672-8E6C-854B1DF78A27";
layerId = "D1E02D2E-03A9-408A-95E8-8AA71CA27DF5";
name = "Mar 27 18, 21:18";
shapes = (
{
closed = 1;
nodes = (
(735,500,l),
(793,331,l),
(797,329,l),
(819,533,l)
);
},
{
closed = 1;
nodes = (
(792,257,l),
(786,255,l),
(756,102,l),
(819,92,l)
);
},
{
closed = 1;
nodes = (
(819,533,l),
(744,587,o),
(625,625,o),
(504,625,cs),
(232,625,o),
(40,490,o),
(40,299,cs),
(40,112,o),
(214,-20,o),
(475,-20,cs),
(626,-20,o),
(741,16,o),
(819,92,c),
(756,102,l),
(699,48,o),
(623,25,o),
(519,25,cs),
(279,25,o),
(120,149,o),
(120,325,cs),
(120,474,o),
(261,580,o),
(461,580,cs),
(567,580,o),
(668,546,o),
(735,500,c)
);
}
);
width = 869;
},
{
associatedMasterId = "0CCC0E2D-406A-4672-8E6C-854B1DF78A27";
layerId = "2916A66B-B6EE-41CB-B69B-6CA9D5BF9094";
name = "Mar 27 18, 21:18";
shapes = (
{
closed = 1;
nodes = (
(735,500,l),
(793,331,l),
(797,329,l),
(819,533,l)
);
},
{
closed = 1;
nodes = (
(792,257,l),
(786,255,l),
(756,102,l),
(819,92,l)
);
},
{
closed = 1;
nodes = (
(819,533,l),
(744,587,o),
(625,625,o),
(504,625,cs),
(232,625,o),
(40,490,o),
(40,299,cs),
(40,112,o),
(214,-20,o),
(475,-20,cs),
(626,-20,o),
(741,16,o),
(819,92,c),
(756,102,l),
(699,48,o),
(623,25,o),
(519,25,cs),
(279,25,o),
(120,149,o),
(120,325,cs),
(120,474,o),
(261,580,o),
(461,580,cs),
(567,580,o),
(668,546,o),
(735,500,c)
);
}
);
width = 869;
},
{
anchors = (
{
name = bottom;
pos = (518,0);
},
{
name = top;
pos = (485,600);
}
);
layerId = m002;
shapes = (
{
closed = 1;
nodes = (
(564,573,o),
(678,552,o),
(765,519,c),
(782,358,l),
(790,356,l),
(851,576,l),
(757,606,o),
(625,625,o),
(516,625,cs),
(230,625,o),
(24,487,o),
(24,296,cs),
(24,113,o),
(217,-20,o),
(481,-20,cs),
(622,-20,o),
(739,19,o),
(831,98,c),
(818,112,l),
(758,62,o),
(663,32,o),
(541,32,cs),
(290,32,o),
(127,144,o),
(127,318,cs),
(127,476,o),
(257,573,o),
(467,573,cs)
);
}
);
width = 891;
},
{
associatedMasterId = m002;
layerId = "D37FF26B-FFFA-4513-93F2-92C6E84B81F6";
name = "Mar 27 18, 21:18";
shapes = (
{
closed = 1;
nodes = (
(735,500,l),
(793,331,l),
(797,329,l),
(819,533,l)
);
},
{
closed = 1;
nodes = (
(792,257,l),
(786,255,l),
(756,102,l),
(819,92,l)
);
},
{
closed = 1;
nodes = (
(819,533,l),
(744,587,o),
(625,625,o),
(504,625,cs),
(232,625,o),
(40,490,o),
(40,299,cs),
(40,112,o),
(214,-20,o),
(475,-20,cs),
(626,-20,o),
(741,16,o),
(819,92,c),
(756,102,l),
(699,48,o),
(623,25,o),
(519,25,cs),
(279,25,o),
(120,149,o),
(120,325,cs),
(120,474,o),
(261,580,o),
(461,580,cs),
(567,580,o),
(668,546,o),
(735,500,c)
);
}
);
width = 869;
},
{
associatedMasterId = m002;
layerId = "C48C7457-2E38-4B7F-9FBF-26AEF6081B3D";
name = "Mar 27 18, 21:18";
shapes = (
{
closed = 1;
nodes = (
(735,500,l),
(793,331,l),
(797,329,l),
(819,533,l)
);
},
{
closed = 1;
nodes = (
(792,257,l),
(786,255,l),
(756,102,l),
(819,92,l)
);
},
{
closed = 1;
nodes = (
(819,533,l),
(744,587,o),
(625,625,o),
(504,625,cs),
(232,625,o),
(40,490,o),
(40,299,cs),
(40,112,o),
(214,-20,o),
(475,-20,cs),
(626,-20,o),
(741,16,o),
(819,92,c),
(756,102,l),
(699,48,o),
(623,25,o),
(519,25,cs),
(279,25,o),
(120,149,o),
(120,325,cs),
(120,474,o),
(261,580,o),
(461,580,cs),
(567,580,o),
(668,546,o),
(735,500,c)
);
}
);
width = 869;
},
{
anchors = (
{
name = bottom;
pos = (273,0);
},
{
name = top;
pos = (242,600);
}
);
layerId = m003;
shapes = (
{
closed = 1;
nodes = (
(316,577,o),
(348,567,o),
(371,556,c),
(388,389,l),
(396,387,l),
(447,592,l),
(384,612,o),
(339,621,o),
(286,621,cs),
(114,621,o),
(26,492,o),
(26,288,cs),
(26,109,o),
(108,-20,o),
(250,-20,cs),
(328,-20,o),
(386,11,o),
(455,94,c),
(443,109,l),
(387,56,o),
(346,37,o),
(291,37,cs),
(178,37,o),
(110,151,o),
(110,306,cs),
(110,474,o),
(169,576,o),
(269,576,cs)
);
}
);
width = 493;
},
{
associatedMasterId = m003;
layerId = "FC68B829-F3AC-46F8-9E26-730E0D21566D";
name = "Mar 27 18, 21:18";
shapes = (
{
closed = 1;
nodes = (
(735,500,l),
(793,331,l),
(797,329,l),
(819,533,l)
);
},
{
closed = 1;
nodes = (
(792,257,l),
(786,255,l),
(756,102,l),
(819,92,l)
);
},
{
closed = 1;
nodes = (
(819,533,l),
(744,587,o),
(625,625,o),
(504,625,cs),
(232,625,o),
(40,490,o),
(40,299,cs),
(40,112,o),
(214,-20,o),
(475,-20,cs),
(626,-20,o),
(741,16,o),
(819,92,c),
(756,102,l),
(699,48,o),
(623,25,o),
(519,25,cs),
(279,25,o),
(120,149,o),
(120,325,cs),
(120,474,o),
(261,580,o),
(461,580,cs),
(567,580,o),
(668,546,o),
(735,500,c)
);
}
);
width = 869;
},
{
associatedMasterId = m003;
layerId = "751F7E29-BE51-41A8-9C31-13288B0E299C";
name = "Mar 27 18, 21:18";
shapes = (
{
closed = 1;
nodes = (
(735,500,l),
(793,331,l),
(797,329,l),
(819,533,l)
);
},
{
closed = 1;
nodes = (
(792,257,l),
(786,255,l),
(756,102,l),
(819,92,l)
);
},
{
closed = 1;
nodes = (
(819,533,l),
(744,587,o),
(625,625,o),
(504,625,cs),
(232,625,o),
(40,490,o),
(40,299,cs),
(40,112,o),
(214,-20,o),
(475,-20,cs),
(626,-20,o),
(741,16,o),
(819,92,c),
(756,102,l),
(699,48,o),
(623,25,o),
(519,25,cs),
(279,25,o),
(120,149,o),
(120,325,cs),
(120,474,o),
(261,580,o),
(461,580,cs),
(567,580,o),
(668,546,o),
(735,500,c)
);
}
);
width = 869;
},
{
anchors = (
{
name = bottom;
pos = (272,0);
},
{
name = top;
pos = (230,600);
}
);
layerId = "2C26E880-80A5-4D19-8A94-7D905A372841";
shapes = (
{
closed = 1;
nodes = (
(283,589,o),
(317,584,o),
(334,577,c),
(351,413,l),
(359,411,l),
(410,589,l),
(375,607,o),
(312,620,o),
(261,620,cs),
(118,620,o),
(45,510,o),
(45,294,cs),
(45,85,o),
(113,-20,o),
(249,-20,cs),
(320,-20,o),
(373,9,o),
(430,78,c),
(414,90,l),
(366,35,o),
(314,8,o),
(255,8,cs),
(141,8,o),
(84,106,o),
(84,300,cs),
(84,495,o),
(139,589,o),
(254,589,cs)
);
}
);
width = 480;
}
);
metricLeft = O;
unicode = 67;
}
{
glyphname = E;
kernLeft = H;
kernRight = E;
layers = (
{
anchors = (
{
name = bottom;
pos = (474,0);
},
{
name = ogonek;
pos = (736,10);
},
{
name = top;
pos = (471,600);
},
{
name = topleft;
pos = (88,600);
}
);
layerId = "0CCC0E2D-406A-4672-8E6C-854B1DF78A27";
shapes = (
{
closed = 1;
nodes = (
(32,0,l),
(849,0,l),
(828,199,l),
(820,197,l),
(779,34,l),
(217,24,l),
(217,282,l),
(567,279,l),
(632,157,l),
(640,159,l),
(621,293,l),
(638,428,l),
(630,430,l),
(567,309,l),
(217,306,l),
(217,578,l),
(775,575,l),
(799,422,l),
(807,420,l),
(846,612,l),
(32,600,l),
(30,592,l),
(180,550,l),
(180,50,l),
(30,8,l)
);
}
);
width = 909;
},
{
associatedMasterId = "0CCC0E2D-406A-4672-8E6C-854B1DF78A27";
layerId = "A910C0A5-6BB5-4CBA-8C8A-E5C5693DC7F9";
name = "Apr 20 19, 12:14";
shapes = (
{
closed = 1;
nodes = (
(22,0,l),
(387,0,l),
(372,210,l),
(368,208,l),
(337,30,l),
(165,21.042,l),
(165,283.834,l),
(307,276,l),
(307,311,l),
(165,304.145,l),
(165,579.101,l),
(337,570,l),
(361,402,l),
(365,400,l),
(389,610,l),
(302,600,l),
(22,600,l),
(20,594,l),
(110,570,l),
(110,30,l),
(20,6,l)
);
}
);
width = 434;
},
{
anchors = (
{
name = bottom;
pos = (491,0);
},
{
name = ogonek;
pos = (753,10);
},
{
name = top;
pos = (488,600);
},
{
name = topleft;
pos = (13,600);
}
);
layerId = m002;
shapes = (
{
closed = 1;
nodes = (
(16,0,l),
(898,0,l),
(877,232,l),
(869,230,l),
(812,51,l),
(259,43,l),
(259,271,l),
(600,263,l),
(665,145,l),
(673,147,l),
(654,293,l),
(671,440,l),
(663,442,l),
(600,323,l),
(261,315,l),
(261,561,l),
(808,554,l),
(848,392,l),
(856,390,l),
(895,612,l),
(16,600,l),
(14,592,l),
(164,550,l),
(164,50,l),
(14,8,l)
);
}
);
width = 958;
},
{
associatedMasterId = m002;
layerId = "DBE2B7AB-580F-47C0-9C67-7A78F778FAF3";
name = "Apr 20 19, 12:14";
shapes = (
{
closed = 1;
nodes = (
(22,0,l),
(387,0,l),
(372,210,l),
(368,208,l),
(337,30,l),
(165,21.042,l),
(165,283.834,l),
(307,276,l),
(307,311,l),
(165,304.145,l),
(165,579.101,l),
(337,570,l),
(361,402,l),
(365,400,l),
(389,610,l),
(302,600,l),
(22,600,l),
(20,594,l),
(110,570,l),
(110,30,l),
(20,6,l)
);
}
);
width = 434;
},
{
anchors = (
{
name = bottom;
pos = (304,0);
},
{
name = ogonek;
pos = (395,10);
},
{
name = top;
pos = (284,600);
},
{
name = topleft;
pos = (-26,600);
}
);
layerId = m003;
shapes = (
{
closed = 1;
nodes = (
(10,0,l),
(489,0,l),
(468,219,l),
(460,217,l),
(412,43,l),
(197,33,l),
(197,275,l),
(300,273,l),
(360,151,l),
(368,153,l),
(349,293,l),
(366,435,l),
(358,437,l),
(300,315,l),
(197,313,l),
(197,570,l),
(408,564,l),
(439,403,l),
(447,401,l),
(486,612,l),
(10,600,l),
(8,592,l),
(118,555,l),
(118,45,l),
(8,8,l)
);
}
);
width = 537;
},
{
associatedMasterId = m003;
layerId = "22B5D069-41FA-4BCA-98A1-1FA1BC7EF4B7";
name = "Apr 20 19, 12:14";
shapes = (
{
closed = 1;
nodes = (
(22,0,l),
(387,0,l),
(372,210,l),
(368,208,l),
(337,30,l),
(165,21.042,l),
(165,283.834,l),
(307,276,l),
(307,311,l),
(165,304.145,l),
(165,579.101,l),
(337,570,l),
(361,402,l),
(365,400,l),
(389,610,l),
(302,600,l),
(22,600,l),
(20,594,l),
(110,570,l),
(110,30,l),
(20,6,l)
);
}
);
width = 434;
},
{
anchors = (
{
name = bottom;
pos = (291,0);
},
{
name = ogonek;
pos = (382,10);
},
{
name = top;
pos = (258,600);
},
{
name = topleft;
pos = (31,600);
}
);
layerId = "2C26E880-80A5-4D19-8A94-7D905A372841";
shapes = (
{
closed = 1;
nodes = (
(22,0,l),
(452,0,l),
(431,198,l),
(423,196,l),
(386,30,l),
(165,25,l),
(165,279,l),
(274,279,l),
(334,156,l),
(342,158,l),
(323,292,l),
(340,429,l),
(332,433,l),
(274,309,l),
(165,309,l),
(165,579,l),
(382,575,l),
(402,423,l),
(410,421,l),
(449,612,l),
(22,600,l),
(20,592,l),
(130,555,l),
(130,45,l),
(20,8,l)
);
}
);
width = 512;
}
);
metricLeft = H;
unicode = 69;
}
{
glyphname = J;
kernLeft = J;
kernRight = J;
layers = (
{
anchors = (
{
name = bottom;
pos = (317,0);
},
{
name = top;
pos = (327,600);
}
);
layerId = "0CCC0E2D-406A-4672-8E6C-854B1DF78A27";
shapes = (
{
closed = 1;
nodes = (
(61,66,l),
(113,40,o),
(203,10,o),
(323,10,cs),
(436,10,o),
(507,72,o),
(507,180,cs),
(507,590,l),
(523,577,l),
(203,577,l),
(169,418,l),
(161,416,l),
(122,608,l),
(544,600,l),
(544,200,ls),
(544,55,o),
(471,-20,o),
(318,-20,cs),
(217,-20,o),
(94,24,o),
(54,56,c)
);
}
);
width = 654;
},
{
associatedMasterId = "0CCC0E2D-406A-4672-8E6C-854B1DF78A27";
layerId = "35E4C493-3815-4981-8420-BF8E2226003F";
name = "2 Dec 21, 12:51";
shapes = (
{
closed = 1;
nodes = (
(-55,137,l),
(30,77,o),
(179,40,o),
(276,40,cs),
(416,40,o),
(455,86,o),
(455,260,cs),
(455,550,l),
(285,592,l),
(287,600,l),
(683,600,l),
(685,592,l),
(530,550,l),
(530,260,ls),
(530,85,o),
(445,-10,o),
(301,-10,cs),
(198,-10,o),
(16,51,o),
(-70,117,c)
);
}
);
width = 705;
},
{
associatedMasterId = "0CCC0E2D-406A-4672-8E6C-854B1DF78A27";
layerId = "D4FA388F-006C-4923-9361-837E208B7442";
name = "2 Dec 21, 12:56";
shapes = (
{
closed = 1;
nodes = (
(115,12,l),
(234,64,o),
(260,109,o),
(260,260,cs),
(260,550,l),
(90,592,l),
(92,600,l),
(488,600,l),
(490,592,l),
(335,550,l),
(335,260,ls),
(335,119,o),
(270,39,o),
(123,0,c)
);
}
);
width = 560;
},
{
associatedMasterId = "0CCC0E2D-406A-4672-8E6C-854B1DF78A27";
layerId = "24E5C3FC-A270-4D99-8E23-AAB1E6002EBA";
name = "2 Dec 21, 13:09";
shapes = (
{
closed = 1;
nodes = (
(-185,127,l),
(-108,73,o),
(38,30,o),
(146,30,cs),
(271,30,o),
(285,62,o),
(285,260,cs),
(285,550,l),
(115,592,l),
(117,600,l),
(513,600,l),
(515,592,l),
(360,550,l),
(360,260,ls),
(360,88,o),
(277,-20,o),
(131,-20,cs),
(36,-20,o),
(-106,34,o),
(-200,107,c)
);
}
);
width = 560;
},
{
associatedMasterId = "0CCC0E2D-406A-4672-8E6C-854B1DF78A27";
layerId = "1A4B16EC-09B1-452E-B368-861496CF630C";
name = "2 Dec 21, 13:30";
shapes = (
{
closed = 1;
nodes = (
(15,127,l),
(76,83,o),
(185,30,o),
(306,30,cs),
(410,30,o),
(445,68,o),
(445,180,cs),
(445,550,l),
(275,592,l),
(277,600,l),
(673,600,l),
(675,592,l),
(520,550,l),
(520,200,ls),
(520,64,o),
(435,-20,o),
(291,-20,cs),
(201,-20,o),
(100,30,o),
(0,107,c)
);
}
);
width = 720;
},
{
anchors = (
{
name = bottom;
pos = (349,0);
},
{
name = top;
pos = (349,600);
}
);
associatedMasterId = "0CCC0E2D-406A-4672-8E6C-854B1DF78A27";
layerId = "7B39A3F9-AB02-4D16-AD1C-06514CE1D68F";
name = "20 Jan 22, 13:30";
shapes = (
{
closed = 1;
nodes = (
(23,122,l),
(91,73,o),
(276,30,o),
(385,30,cs),
(489,30,o),
(524,68,o),
(524,180,cs),
(524,590,l),
(555,560,l),
(235,557,l),
(201,398,l),
(193,396,l),
(154,608,l),
(599,600,l),
(599,200,ls),
(599,63,o),
(513,-20,o),
(370,-20,cs),
(266,-20,o),
(98,39,o),
(10,107,c)
);
}
);
width = 709;
},
{
anchors = (
{
name = bottom;
pos = (329,0);
},
{
name = top;
pos = (329,600);
}
);
associatedMasterId = "0CCC0E2D-406A-4672-8E6C-854B1DF78A27";
layerId = "07A995FA-2045-4F41-A338-F770EC6D2932";
name = "27 Jan 22, 17:59";
shapes = (
{
closed = 1;
nodes = (
(3,112,l),
(71,73,o),
(236,30,o),
(345,30,cs),
(453,30,o),
(504,77,o),
(504,180,cs),
(504,590,l),
(535,560,l),
(215,557,l),
(181,398,l),
(173,396,l),
(134,608,l),
(579,600,l),
(579,200,ls),
(579,63,o),
(473,-20,o),
(330,-20,cs),
(226,-20,o),
(78,39,o),
(-10,97,c)
);
}
);
width = 679;
},
{
anchors = (
{
name = bottom;
pos = (335,0);
},
{
name = top;
pos = (345,600);
}
);
layerId = m002;
shapes = (
{
closed = 1;
nodes = (
(48,107,l),
(131,65,o),
(259,42,o),
(357,42,cs),
(469,42,o),
(502,88,o),
(502,180,cs),
(502,590,l),
(541,551,l),
(190,547,l),
(156,388,l),
(148,386,l),
(109,608,l),
(598,600,l),
(598,200,ls),
(598,55,o),
(488,-20,o),
(336,-20,cs),
(235,-20,o),
(114,24,o),
(38,88,c)
);
}
);
width = 692;
},
{
associatedMasterId = m002;
layerId = "F752F49A-00CA-4D96-8E69-91447C3B1241";
name = "2 Dec 21, 12:51";
shapes = (
{
closed = 1;
nodes = (
(-55,137,l),
(30,77,o),
(179,40,o),
(276,40,cs),
(416,40,o),
(455,86,o),
(455,260,cs),
(455,550,l),
(285,592,l),
(287,600,l),
(683,600,l),
(685,592,l),
(530,550,l),
(530,260,ls),
(530,85,o),
(445,-10,o),
(301,-10,cs),
(198,-10,o),
(16,51,o),
(-70,117,c)
);
}
);
width = 705;
},
{
associatedMasterId = m002;
layerId = "EB2C1CC2-1971-42D6-9DDF-F0FE9C24AC69";
name = "2 Dec 21, 12:56";
shapes = (
{
closed = 1;
nodes = (
(115,12,l),
(234,64,o),
(260,109,o),
(260,260,cs),
(260,550,l),
(90,592,l),
(92,600,l),
(488,600,l),
(490,592,l),
(335,550,l),
(335,260,ls),
(335,119,o),
(270,39,o),
(123,0,c)
);
}
);
width = 560;
},
{
associatedMasterId = m002;
layerId = "0393DCFA-8013-477E-BEE5-5D60A440C3CE";
name = "2 Dec 21, 13:09";
shapes = (
{
closed = 1;
nodes = (
(-185,127,l),
(-108,73,o),
(38,30,o),
(146,30,cs),
(271,30,o),
(285,62,o),
(285,260,cs),
(285,550,l),
(115,592,l),
(117,600,l),
(513,600,l),
(515,592,l),
(360,550,l),
(360,260,ls),
(360,88,o),
(277,-20,o),
(131,-20,cs),
(36,-20,o),
(-106,34,o),
(-200,107,c)
);
}
);
width = 560;
},
{
associatedMasterId = m002;
layerId = "564ABB89-5E88-4883-BBC7-A26E5C544CFA";
name = "2 Dec 21, 13:30";
shapes = (
{
closed = 1;
nodes = (
(15,127,l),
(76,83,o),
(185,30,o),
(306,30,cs),
(410,30,o),
(445,68,o),
(445,180,cs),
(445,550,l),
(275,592,l),
(277,600,l),
(673,600,l),
(675,592,l),
(520,550,l),
(520,200,ls),
(520,64,o),
(435,-20,o),
(291,-20,cs),
(201,-20,o),
(100,30,o),
(0,107,c)
);
}
);
width = 720;
},
{
anchors = (
{
name = bottom;
pos = (349,0);
},
{
name = top;
pos = (349,600);
}
);
associatedMasterId = m002;
layerId = "349CE9AD-595D-4F6B-A90B-7D915D678224";
name = "20 Jan 22, 13:30";
shapes = (
{
closed = 1;
nodes = (
(23,122,l),
(91,73,o),
(276,30,o),
(385,30,cs),
(489,30,o),
(524,68,o),
(524,180,cs),
(524,590,l),
(555,560,l),
(235,557,l),
(201,398,l),
(193,396,l),
(154,608,l),
(599,600,l),
(599,200,ls),
(599,63,o),
(513,-20,o),
(370,-20,cs),
(266,-20,o),
(98,39,o),
(10,107,c)
);
}
);
width = 709;
},
{
anchors = (
{
name = bottom;
pos = (329,0);
},
{
name = top;
pos = (329,600);
}
);
associatedMasterId = m002;
layerId = "4A572B9D-392C-423E-839D-A16233EE8FAB";
name = "27 Jan 22, 17:59";
shapes = (
{
closed = 1;
nodes = (
(3,112,l),
(71,73,o),
(236,30,o),
(345,30,cs),
(453,30,o),
(504,77,o),
(504,180,cs),
(504,590,l),
(535,560,l),
(215,557,l),
(181,398,l),
(173,396,l),
(134,608,l),
(579,600,l),
(579,200,ls),
(579,63,o),
(473,-20,o),
(330,-20,cs),
(226,-20,o),
(78,39,o),
(-10,97,c)
);
}
);
width = 679;
},
{
anchors = (
{
name = bottom;
pos = (192,-1);
},
{
name = top;
pos = (202,600);
}
);
layerId = m003;
shapes = (
{
closed = 1;
nodes = (
(22,94,l),
(73,55,o),
(141,33,o),
(198,33,cs),
(233,33,o),
(264,59,o),
(264,123,cs),
(264,588,l),
(299,562,l),
(149,559,l),
(118,392,l),
(110,390,l),
(71,607,l),
(343,600,l),
(343,195,ls),
(343,51,o),
(285,-20,o),
(194,-20,cs),
(147,-20,o),
(82,8,o),
(13,82,c)
);
}
);
width = 431;
},
{
associatedMasterId = m003;
layerId = "36AD50BF-23D6-4D95-8320-91E73E7F6C72";
name = "2 Dec 21, 12:51";
shapes = (
{
closed = 1;
nodes = (
(-55,137,l),
(30,77,o),
(179,40,o),
(276,40,cs),
(416,40,o),
(455,86,o),
(455,260,cs),
(455,550,l),
(285,592,l),
(287,600,l),
(683,600,l),
(685,592,l),
(530,550,l),
(530,260,ls),
(530,85,o),
(445,-10,o),
(301,-10,cs),
(198,-10,o),
(16,51,o),
(-70,117,c)
);
}
);
width = 705;
},
{
associatedMasterId = m003;
layerId = "28A3366E-01F2-4049-806C-A349C40EBB5C";
name = "2 Dec 21, 12:56";
shapes = (
{
closed = 1;
nodes = (
(115,12,l),
(234,64,o),
(260,109,o),
(260,260,cs),
(260,550,l),
(90,592,l),
(92,600,l),
(488,600,l),
(490,592,l),
(335,550,l),
(335,260,ls),
(335,119,o),
(270,39,o),
(123,0,c)
);
}
);
width = 560;
},
{
associatedMasterId = m003;
layerId = "6D7DF9DD-5174-44C2-8C1E-182556F1A99F";
name = "2 Dec 21, 13:09";
shapes = (
{
closed = 1;
nodes = (
(-185,127,l),
(-108,73,o),
(38,30,o),
(146,30,cs),
(271,30,o),
(285,62,o),
(285,260,cs),
(285,550,l),
(115,592,l),
(117,600,l),
(513,600,l),
(515,592,l),
(360,550,l),
(360,260,ls),
(360,88,o),
(277,-20,o),
(131,-20,cs),
(36,-20,o),
(-106,34,o),
(-200,107,c)
);
}
);
width = 560;
},
{
associatedMasterId = m003;
layerId = "C565C961-B9D0-4304-AA45-D2FA09415D6B";
name = "2 Dec 21, 13:30";
shapes = (
{
closed = 1;
nodes = (
(15,127,l),
(76,83,o),
(185,30,o),
(306,30,cs),
(410,30,o),
(445,68,o),
(445,180,cs),
(445,550,l),
(275,592,l),
(277,600,l),
(673,600,l),
(675,592,l),
(520,550,l),
(520,200,ls),
(520,64,o),
(435,-20,o),
(291,-20,cs),
(201,-20,o),
(100,30,o),
(0,107,c)
);
}
);
width = 720;
},
{
anchors = (
{
name = bottom;
pos = (349,0);
},
{
name = top;
pos = (349,600);
}
);
associatedMasterId = m003;
layerId = "5A45380A-7557-407E-870A-E901AB89AC64";
name = "20 Jan 22, 13:30";
shapes = (
{
closed = 1;
nodes = (
(23,122,l),
(91,73,o),
(276,30,o),
(385,30,cs),
(489,30,o),
(524,68,o),
(524,180,cs),
(524,590,l),
(555,560,l),
(235,557,l),
(201,398,l),
(193,396,l),
(154,608,l),
(599,600,l),
(599,200,ls),
(599,63,o),
(513,-20,o),
(370,-20,cs),
(266,-20,o),
(98,39,o),
(10,107,c)
);
}
);
width = 709;
},
{
anchors = (
{
name = bottom;
pos = (329,0);
},
{
name = top;
pos = (329,600);
}
);
associatedMasterId = m003;
layerId = "FCB1C945-064C-4A12-910C-2C2269451BF0";
name = "27 Jan 22, 17:59";
shapes = (
{
closed = 1;
nodes = (
(3,112,l),
(71,73,o),
(236,30,o),
(345,30,cs),
(453,30,o),
(504,77,o),
(504,180,cs),
(504,590,l),
(535,560,l),
(215,557,l),
(181,398,l),
(173,396,l),
(134,608,l),
(579,600,l),
(579,200,ls),
(579,63,o),
(473,-20,o),
(330,-20,cs),
(226,-20,o),
(78,39,o),
(-10,97,c)
);
}
);
width = 679;
},
{
anchors = (
{
name = bottom;
pos = (183,2);
},
{
name = top;
pos = (193,600);
}
);
layerId = "2C26E880-80A5-4D19-8A94-7D905A372841";
shapes = (
{
closed = 1;
nodes = (
(41,69,l),
(81,29,o),
(131,5,o),
(189,5,cs),
(251,5,o),
(272,51,o),
(272,135,cs),
(272,600,l),
(287,577,l),
(156,573,l),
(136,421,l),
(128,419,l),
(89,612,l),
(307,600,l),
(307,170,ls),
(307,29,o),
(277,-20,o),
(180,-20,cs),
(128,-20,o),
(60,9,o),
(25,53,c)
);
}
);
width = 407;
}
);
unicode = 74;
}
{
glyphname = M;
kernLeft = M;
kernRight = M;
layers = (
{
anchors = (
{
name = bottom;
pos = (565,0);
},
{
name = top;
pos = (565,600);
}
);
layerId = "0CCC0E2D-406A-4672-8E6C-854B1DF78A27";
shapes = (
{
closed = 1;
nodes = (
(12,0,l),
(367,0,l),
(369,8,l),
(182,50,l),
(301,541,l),
(292,540,l),
(585,0,l),
(598,0,l),
(919,595,l),
(883,565,l),
(1005,50,l),
(818,8,l),
(820,0,l),
(1178,0,l),
(1180,8,l),
(1040,50,l),
(923,552,l),
(1073,592,l),
(1071,600,l),
(889,600,l),
(578,31,l),
(607,31,l),
(296,600,l),
(126,600,l),
(124,592,l),
(270,549,l),
(150,50,l),
(10,8,l)
);
}
);
width = 1195;
},
{
anchors = (
{
name = bottom;
pos = (642,0);
},
{
name = top;
pos = (642,600);
}
);
layerId = m002;
shapes = (
{
closed = 1;
nodes = (
(-4,0,l),
(376,0,l),
(378,8,l),
(191,50,l),
(277,541,l),
(240,532,l),
(558,0,l),
(628,0,l),
(965,571,l),
(945,597,l),
(1013,50,l),
(836,8,l),
(838,0,l),
(1255,0,l),
(1257,8,l),
(1117,50,l),
(1039,552,l),
(1143,592,l),
(1141,600,l),
(929,600,l),
(594,38,l),
(635,65,l),
(318,600,l),
(86,600,l),
(84,592,l),
(237,549,l),
(134,50,l),
(-6,8,l)
);
}
);
width = 1256;
},
{
anchors = (
{
name = bottom;
pos = (382,0);
},
{
name = top;
pos = (390,600);
}
);
layerId = m003;
shapes = (
{
closed = 1;
nodes = (
(-2,0,l),
(267,0,l),
(269,8,l),
(159,45,l),
(211,550,l),
(200,543,l),
(334,0,l),
(395,0,l),
(528,582,l),
(504,590,l),
(571,45,l),
(462,8,l),
(464,0,l),
(761,0,l),
(763,8,l),
(653,45,l),
(578,557,l),
(682,592,l),
(680,600,l),
(484,600,l),
(359,28,l),
(394,61,l),
(256,600,l),
(63,600,l),
(61,592,l),
(172,554,l),
(106,45,l),
(-4,8,l)
);
}
);
width = 765;
},
{
anchors = (
{
name = bottom;
pos = (371,0);
},
{
name = top;
pos = (341,600);
}
);
layerId = "2C26E880-80A5-4D19-8A94-7D905A372841";
shapes = (
{
closed = 1;
nodes = (
(17,0,l),
(263,0,l),
(265,8,l),
(155,45,l),
(221,546,l),
(216,545,l),
(354,0,l),
(373,0,l),
(523,594,l),
(499,586,l),
(581,45,l),
(467,8,l),
(469,0,l),
(722,0,l),
(724,8,l),
(614,45,l),
(537,557,l),
(672,592,l),
(670,600,l),
(494,600,l),
(360,62,l),
(375,45,l),
(240,600,l),
(88,600,l),
(86,592,l),
(193,554,l),
(125,45,l),
(15,8,l)
);
}
);
width = 741;
}
);
unicode = 77;
}
{
glyphname = asciicircum;
layers = (
{
layerId = "0CCC0E2D-406A-4672-8E6C-854B1DF78A27";
shapes = (
{
closed = 1;
nodes = (
(198,590,l),
(40,410,l),
(78,410,l),
(221,572,l),
(191,572,l),
(336,410,l),
(375,410,l),
(214,590,l)
);
}
);
width = 415;
},
{
layerId = m002;
shapes = (
{
closed = 1;
nodes = (
(228,606,l),
(24,394,l),
(119,394,l),
(305,596,l),
(228,596,l),
(419,394,l),
(514,394,l),
(306,606,l)
);
}
);
width = 538;
},
{
layerId = m003;
shapes = (
{
closed = 1;
nodes = (
(235,602,l),
(58,418,l),
(135,418,l),
(295,592,l),
(233,592,l),
(398,418,l),
(474,418,l),
(294,602,l)
);
}
);
width = 532;
},
{
layerId = "2C26E880-80A5-4D19-8A94-7D905A372841";
shapes = (
{
closed = 1;
nodes = (
(211,591,l),
(69,429,l),
(103,429,l),
(230,574,l),
(205,574,l),
(334,429,l),
(369,429,l),
(224,591,l)
);
}
);
width = 438;
}
);
unicode = 94;
}
{
glyphname = b;
kernLeft = b;
kernRight = o;
layers = (
{
anchors = (
{
name = bottom;
pos = (332,0);
},
{
name = center;
pos = (332,205);
},
{
name = top;
pos = (340,401);
}
);
layerId = "0CCC0E2D-406A-4672-8E6C-854B1DF78A27";
shapes = (
{
closed = 1;
nodes = (
(119,302,l),
(170,351,o),
(273,391,o),
(372,391,cs),
(501,391,o),
(608,319,o),
(608,198,cs),
(608,85,o),
(501,7,o),
(347,7,cs),
(265,7,o),
(173,31,o),
(119,68,c)
);
},
{
closed = 1;
nodes = (
(-59,632,l),
(80,640,l),
(80,52,l),
(151,5,o),
(244,-20,o),
(335,-20,cs),
(521,-20,o),
(647,74,o),
(647,211,cs),
(647,338,o),
(540,421,o),
(387,421,cs),
(287,421,o),
(186,387,o),
(119,336,c),
(119,720,l),
(-61,640,l)
);
}
);
width = 691;
},
{
anchors = (
{
name = bottom;
pos = (344,0);
},
{
name = center;
pos = (344,205);
},
{
name = top;
pos = (340,415);
}
);
layerId = m002;
shapes = (
{
closed = 1;
nodes = (
(153,285,l),
(225,355,o),
(297,385,o),
(387,385,cs),
(528,385,o),
(601,308,o),
(601,198,cs),
(601,96,o),
(507,23,o),
(370,23,cs),
(294,23,o),
(203,40,o),
(153,75,c)
);
},
{
closed = 1;
nodes = (
(-73,632,l),
(66,640,l),
(66,59,l),
(125,11,o),
(232,-20,o),
(335,-20,cs),
(537,-20,o),
(687,91,o),
(687,230,cs),
(687,342,o),
(579,435,o),
(427,435,cs),
(334,435,o),
(234,399,o),
(153,336,c),
(153,720,l),
(-75,640,l)
);
}
);
width = 716;
},
{
anchors = (
{
name = bottom;
pos = (216,0);
},
{
name = center;
pos = (216,205);
},
{
name = top;
pos = (214,402);
}
);
layerId = m003;
shapes = (
{
closed = 1;
nodes = (
(111,311,l),
(138,356,o),
(167,375,o),
(199,375,cs),
(264,375,o),
(306,301,o),
(306,188,cs),
(306,83,o),
(267,20,o),
(198,20,cs),
(166,20,o),
(132,33,o),
(111,53,c)
);
},
{
closed = 1;
nodes = (
(-69,627,l),
(38,635,l),
(38,37,l),
(74,4,o),
(134,-20,o),
(192,-20,cs),
(298,-20,o),
(379,82,o),
(379,216,cs),
(379,339,o),
(317,422,o),
(224,422,cs),
(180,422,o),
(143,404,o),
(111,357,c),
(111,710,l),
(-73,635,l)
);
}
);
width = 413;
},
{
anchors = (
{
name = bottom;
pos = (206,0);
},
{
name = center;
pos = (206,205);
},
{
name = top;
pos = (214,392);
}
);
layerId = "2C26E880-80A5-4D19-8A94-7D905A372841";
shapes = (
{
closed = 1;
nodes = (
(85,330,l),
(100,361,o),
(143,385,o),
(187,385,cs),
(264,385,o),
(314,308,o),
(314,188,cs),
(314,75,o),
(267,7,o),
(191,7,cs),
(154,7,o),
(111,23,o),
(85,48,c)
);
},
{
closed = 1;
nodes = (
(-56,627,l),
(51,635,l),
(51,32,l),
(103,-6,o),
(144,-20,o),
(184,-20,cs),
(282,-20,o),
(348,69,o),
(348,202,cs),
(348,328,o),
(286,412,o),
(193,412,cs),
(150,412,o),
(107,394,o),
(85,368,c),
(85,710,l),
(-60,635,l)
);
}
);
width = 387;
}
);
metricRight = o;
unicode = 98;
}
{
glyphname = g;
kernLeft = g;
kernRight = g;
layers = (
{
associatedMasterId = "0CCC0E2D-406A-4672-8E6C-854B1DF78A27";
layerId = "A9B69125-902A-4462-8295-CC47D3C30359";
name = "Extended Mar 15 18, 23:54";
shapes = (
{
closed = 1;
nodes = (
(544,120,o),
(662,188,o),
(662,274,cs),
(662,312,o),
(644,344,o),
(609,368,c),
(751,348,l),
(751,418,l),
(563,392,l),
(516,410,o),
(454,430,o),
(378,430,cs),
(194,430,o),
(71,359,o),
(71,268,cs),
(71,179,o),
(189,120,o),
(368,120,cs)
);
},
{
closed = 1;
nodes = (
(241,150,o),
(139,200,o),
(140,286,cs),
(141,354,o),
(222,400,o),
(349,400,cs),
(506,400,o),
(592,337,o),
(593,257,cs),
(594,194,o),
(516,150,o),
(398,150,cs)
);
},
{
closed = 1;
nodes = (
(86,53,l),
(85,23,l),
(554,23,l),
(633,23,o),
(680,-2,o),
(680,-44,cs),
(680,-131,o),
(489,-187,o),
(358,-187,cs),
(232,-187,o),
(139,-148,o),
(139,-81,cs),
(139,-50,o),
(159,-14,o),
(205,28,c),
(170,28,l),
(102,-8,o),
(70,-58,o),
(70,-103,cs),
(70,-166,o),
(149,-222,o),
(304,-222,cs),
(516,-222,o),
(755,-143,o),
(755,-10,cs),
(755,44,o),
(701,74,o),
(609,74,c),
(151,74,l),
(204,152,l),
(177,157,l)
);
}
);
width = 825;
},
{
anchors = (
{
name = bottom;
pos = (359,-241);
},
{
name = top;
pos = (359,401);
}
);
layerId = "0CCC0E2D-406A-4672-8E6C-854B1DF78A27";
shapes = (
{
closed = 1;
nodes = (
(159,143,o),
(338,143,cs),
(514,143,o),
(614,194,o),
(614,286,cs),
(614,344,o),
(570,386,o),
(481,408,c),
(526,372,l),
(709,412,l),
(707,421,l),
(348,421,ls),
(171,421,o),
(58,364,o),
(58,274,cs),
(58,190,o)
);
},
{
closed = 1;
nodes = (
(97,350,o),
(192,400,o),
(327,400,cs),
(479,400,o),
(574,352,o),
(575,282,cs),
(576,207,o),
(500,164,o),
(352,164,cs),
(198,164,o),
(95,205,o),
(96,291,cs)
);
},
{
closed = 1;
nodes = (
(232,160,l),
(71,48,l),
(70,27,l),
(438,-4,ls),
(579,-16,o),
(644,-46,o),
(644,-99,cs),
(644,-176,o),
(510,-235,o),
(339,-235,cs),
(182,-235,o),
(87,-188,o),
(87,-115,cs),
(87,-67,o),
(131,-27,o),
(237,23,c),
(196,26,l),
(89,-25,o),
(44,-67,o),
(44,-128,cs),
(44,-215,o),
(141,-261,o),
(319,-261,cs),
(535,-261,o),
(684,-191,o),
(684,-87,cs),
(684,-22,o),
(622,7,o),
(475,21,cs),
(114,55,l),
(100,38,l),
(261,153,l)
);
}
);
width = 738;
},
{
associatedMasterId = "0CCC0E2D-406A-4672-8E6C-854B1DF78A27";
layerId = "EC6E6EAF-A818-4D5D-9F0A-37E5DE3E6B48";
name = "May 21 18, 20:41";
shapes = (
{
closed = 1;
nodes = (
(558,134,o),
(676,195,o),
(676,281,cs),
(676,319,o),
(646,349,o),
(611,373,c),
(765,368,l),
(765,418,l),
(577,392,l),
(530,410,o),
(468,430,o),
(392,430,cs),
(208,430,o),
(85,366,o),
(85,275,cs),
(85,186,o),
(203,134,o),
(382,134,cs)
);
},
{
closed = 1;
nodes = (
(255,164,o),
(153,207,o),
(154,293,cs),
(155,361,o),
(236,400,o),
(363,400,cs),
(520,400,o),
(606,344,o),
(607,264,cs),
(608,201,o),
(530,164,o),
(412,164,cs)
);
},
{
closed = 1;
nodes = (
(107,58,l),
(106,28,l),
(474,-6,ls),
(638,-21,o),
(683,-56,o),
(683,-91,cs),
(683,-132,o),
(570,-187,o),
(391,-187,cs),
(242,-187,o),
(151,-148,o),
(151,-81,cs),
(151,-46,o),
(179,-10,o),
(235,32,c),
(212,29,l),
(134,-7,o),
(80,-58,o),
(80,-103,cs),
(80,-166,o),
(149,-222,o),
(352,-222,cs),
(601,-222,o),
(755,-148,o),
(755,-64,cs),
(755,-21,o),
(686,30,o),
(529,45,cs),
(172,79,l),
(254,156,l),
(227,161,l)
);
}
);
width = 805;
},
{
associatedMasterId = "0CCC0E2D-406A-4672-8E6C-854B1DF78A27";
layerId = "E2FAF698-47CD-4CE6-A71B-EC432B7F6A19";
name = "Jun 9 18, 14:59";
shapes = (
{
closed = 1;
nodes = (
(558,134,o),
(676,195,o),
(676,281,cs),
(676,319,o),
(646,349,o),
(611,373,c),
(765,368,l),
(765,418,l),
(577,392,l),
(530,410,o),
(468,430,o),
(392,430,cs),
(208,430,o),
(85,366,o),
(85,275,cs),
(85,186,o),
(203,134,o),
(382,134,cs)
);
},
{
closed = 1;
nodes = (
(255,164,o),
(153,207,o),
(154,293,cs),
(155,361,o),
(236,400,o),
(363,400,cs),
(520,400,o),
(606,344,o),
(607,264,cs),
(608,201,o),
(530,164,o),
(412,164,cs)
);
},
{
closed = 1;
nodes = (
(107,58,l),
(106,28,l),
(474,-6,ls),
(638,-21,o),
(683,-56,o),
(683,-91,cs),
(683,-148,o),
(589,-187,o),
(391,-187,cs),
(242,-187,o),
(151,-148,o),
(151,-81,cs),
(151,-46,o),
(179,-10,o),
(235,32,c),
(212,29,l),
(134,-7,o),
(80,-58,o),
(80,-103,cs),
(80,-166,o),
(149,-222,o),
(352,-222,cs),
(603,-222,o),
(755,-166,o),
(755,-64,cs),
(755,-21,o),
(686,30,o),
(529,45,cs),
(172,79,l),
(254,156,l),
(227,161,l)
);
}
);
width = 805;
},
{
associatedMasterId = "0CCC0E2D-406A-4672-8E6C-854B1DF78A27";
layerId = "AC0D2414-6FD2-4FE5-82B0-6696EDA64D2B";
name = "Extended Mar 15 18, 23:54";
shapes = (
{
closed = 1;
nodes = (
(544,120,o),
(662,188,o),
(662,274,cs),
(662,312,o),
(644,344,o),
(609,368,c),
(751,348,l),
(751,418,l),
(563,392,l),
(516,410,o),
(454,430,o),
(378,430,cs),
(194,430,o),
(71,359,o),
(71,268,cs),
(71,179,o),
(189,120,o),
(368,120,cs)
);
},
{
closed = 1;
nodes = (
(241,150,o),
(139,200,o),
(140,286,cs),
(141,354,o),
(222,400,o),
(349,400,cs),
(506,400,o),
(592,337,o),
(593,257,cs),
(594,194,o),
(516,150,o),
(398,150,cs)
);
},
{
closed = 1;
nodes = (
(86,53,l),
(85,23,l),
(554,23,l),
(633,23,o),
(680,-2,o),
(680,-44,cs),
(680,-131,o),
(489,-187,o),
(358,-187,cs),
(232,-187,o),
(139,-148,o),
(139,-81,cs),
(139,-50,o),
(159,-14,o),
(205,28,c),
(170,28,l),
(102,-8,o),
(70,-58,o),
(70,-103,cs),
(70,-166,o),
(149,-222,o),
(304,-222,cs),
(516,-222,o),
(755,-143,o),
(755,-10,cs),
(755,44,o),
(701,74,o),
(609,74,c),
(151,74,l),
(204,152,l),
(177,157,l)
);
}
);
width = 825;
},
{
associatedMasterId = "0CCC0E2D-406A-4672-8E6C-854B1DF78A27";
layerId = "674331D1-ED99-4005-8AA0-159986DFE638";
name = "May 21 18, 20:41";
shapes = (
{
closed = 1;
nodes = (
(558,134,o),
(676,195,o),
(676,281,cs),
(676,319,o),
(646,349,o),
(611,373,c),
(765,368,l),
(765,418,l),
(577,392,l),
(530,410,o),
(468,430,o),
(392,430,cs),
(208,430,o),
(85,366,o),
(85,275,cs),
(85,186,o),
(203,134,o),
(382,134,cs)
);
},
{
closed = 1;
nodes = (
(255,164,o),
(153,207,o),
(154,293,cs),
(155,361,o),
(236,400,o),
(363,400,cs),
(520,400,o),
(606,344,o),
(607,264,cs),
(608,201,o),
(530,164,o),
(412,164,cs)
);
},
{
closed = 1;
nodes = (
(107,58,l),
(106,28,l),
(474,-6,ls),
(638,-21,o),
(683,-56,o),
(683,-91,cs),
(683,-132,o),
(570,-187,o),
(391,-187,cs),
(242,-187,o),
(151,-148,o),
(151,-81,cs),
(151,-46,o),
(179,-10,o),
(235,32,c),
(212,29,l),
(134,-7,o),
(80,-58,o),
(80,-103,cs),
(80,-166,o),
(149,-222,o),
(352,-222,cs),
(601,-222,o),
(755,-148,o),
(755,-64,cs),
(755,-21,o),
(686,30,o),
(529,45,cs),
(172,79,l),
(254,156,l),
(227,161,l)
);
}
);
width = 805;
},
{
associatedMasterId = "0CCC0E2D-406A-4672-8E6C-854B1DF78A27";
layerId = "F2917F5B-3566-4CAD-9813-36139C5DA02F";
name = "Jun 9 18, 14:59";
shapes = (
{
closed = 1;
nodes = (
(558,134,o),
(676,195,o),
(676,281,cs),
(676,319,o),
(646,349,o),
(611,373,c),
(765,368,l),
(765,418,l),
(577,392,l),
(530,410,o),
(468,430,o),
(392,430,cs),
(208,430,o),
(85,366,o),
(85,275,cs),
(85,186,o),
(203,134,o),
(382,134,cs)
);
},
{
closed = 1;
nodes = (
(255,164,o),
(153,207,o),
(154,293,cs),
(155,361,o),
(236,400,o),
(363,400,cs),
(520,400,o),
(606,344,o),
(607,264,cs),
(608,201,o),
(530,164,o),
(412,164,cs)
);
},
{
closed = 1;
nodes = (
(107,58,l),
(106,28,l),
(474,-6,ls),
(638,-21,o),
(683,-56,o),
(683,-91,cs),
(683,-148,o),
(589,-187,o),
(391,-187,cs),
(242,-187,o),
(151,-148,o),
(151,-81,cs),
(151,-46,o),
(179,-10,o),
(235,32,c),
(212,29,l),
(134,-7,o),
(80,-58,o),
(80,-103,cs),
(80,-166,o),
(149,-222,o),
(352,-222,cs),
(603,-222,o),
(755,-166,o),
(755,-64,cs),
(755,-21,o),
(686,30,o),
(529,45,cs),
(172,79,l),
(254,156,l),
(227,161,l)
);
}
);
width = 805;
},
{
associatedMasterId = "0CCC0E2D-406A-4672-8E6C-854B1DF78A27";
layerId = "1A5BEAB2-FA39-4535-9A7A-869CE222ECCE";
name = "Condensed Mar 15 18, 23:54";
shapes = (
{
closed = 1;
nodes = (
(239,109,o),
(305,162,o),
(305,262,cs),
(305,312,o),
(289,351,o),
(260,379,c),
(334,369,l),
(334,405,l),
(243,391,l),
(224,403,o),
(199,410,o),
(171,410,cs),
(85,410,o),
(29,360,o),
(29,266,cs),
(29,179,o),
(76,109,o),
(162,109,cs)
);
},
{
closed = 1;
nodes = (
(117,138,o),
(74,202,o),
(74,295,cs),
(74,346,o),
(113,380,o),
(162,380,cs),
(216,380,o),
(259,324,o),
(259,240,cs),
(259,180,o),
(220,140,o),
(171,139,cs)
);
},
{
closed = 1;
nodes = (
(40,47,l),
(40,21,l),
(229,21,l),
(268,21,o),
(293,4,o),
(295,-36,cs),
(298,-88,o),
(237,-190,o),
(145,-190,cs),
(71,-190,o),
(55,-131,o),
(55,-97,cs),
(55,-57,o),
(68,-24,o),
(98,26,c),
(84,26,l),
(41,-21,o),
(15,-63,o),
(15,-119,cs),
(15,-157,o),
(41,-220,o),
(123,-220,cs),
(247,-220,o),
(330,-110,o),
(330,-2,cs),
(330,48,o),
(299,66,o),
(253,66,c),
(77,66,l),
(110,146,l),
(92,146,l)
);
}
);
width = 360;
},
{
associatedMasterId = "0CCC0E2D-406A-4672-8E6C-854B1DF78A27";
layerId = "7F546E1B-C475-490C-A4B2-A31D02EDC501";
name = "3 Dec 21, 13:24";
shapes = (
{
closed = 1;
nodes = (
(465,-6,ls),
(615,-20,o),
(674,-54,o),
(674,-101,cs),
(674,-158,o),
(556,-207,o),
(382,-207,cs),
(224,-207,o),
(142,-161,o),
(142,-91,cs),
(142,-60,o),
(152,-26,o),
(217,23,c),
(185,26,l),
(99,-25,o),
(71,-67,o),
(71,-113,cs),
(71,-191,o),
(164,-242,o),
(343,-242,cs),
(614,-242,o),
(746,-179,o),
(746,-77,cs),
(746,-16,o),
(673,31,o),
(520,45,cs),
(141,80,l),
(136,48,l),
(271,165,l),
(217,150,l),
(250,141,o),
(320,134,o),
(382,134,cs),
(556,134,o),
(676,194,o),
(676,281,cs),
(676,315,o),
(658,341,o),
(611,373,c),
(765,368,l),
(765,418,l),
(577,392,l),
(505,421,o),
(460,430,o),
(392,430,cs),
(204,430,o),
(85,370,o),
(85,275,cs),
(85,212,o),
(133,168,o),
(222,150,c),
(233,173,l),
(98,58,l),
(97,28,l)
);
},
{
closed = 1;
nodes = (
(155,361,o),
(231,400,o),
(363,400,cs),
(506,400,o),
(606,344,o),
(607,264,cs),
(608,197,o),
(544,164,o),
(412,164,cs),
(252,164,o),
(153,214,o),
(154,293,cs)
);
}
);
width = 805;
},
{
associatedMasterId = m002;
layerId = "7FD51DEF-0725-4268-88B6-2451388BDAFA";
name = "Extended Mar 15 18, 23:54";
shapes = (
{
closed = 1;
nodes = (
(544,120,o),
(662,188,o),
(662,274,cs),
(662,312,o),
(644,344,o),
(609,368,c),
(751,348,l),
(751,418,l),
(563,392,l),
(516,410,o),
(454,430,o),
(378,430,cs),
(194,430,o),
(71,359,o),
(71,268,cs),
(71,179,o),
(189,120,o),
(368,120,cs)
);
},
{
closed = 1;
nodes = (
(241,150,o),
(139,200,o),
(140,286,cs),
(141,354,o),
(222,400,o),
(349,400,cs),
(506,400,o),
(592,337,o),
(593,257,cs),
(594,194,o),
(516,150,o),
(398,150,cs)
);
},
{
closed = 1;
nodes = (
(86,53,l),
(85,23,l),
(554,23,l),
(633,23,o),
(680,-2,o),
(680,-44,cs),
(680,-131,o),
(489,-187,o),
(358,-187,cs),
(232,-187,o),
(139,-148,o),
(139,-81,cs),
(139,-50,o),
(159,-14,o),
(205,28,c),
(170,28,l),
(102,-8,o),
(70,-58,o),
(70,-103,cs),
(70,-166,o),
(149,-222,o),
(304,-222,cs),
(516,-222,o),
(755,-143,o),
(755,-10,cs),
(755,44,o),
(701,74,o),
(609,74,c),
(151,74,l),
(204,152,l),
(177,157,l)
);
}
);
width = 825;
},
{
anchors = (
{
name = bottom;
pos = (372,-255);
},
{
name = top;
pos = (372,415);
}
);
background = {
shapes = (
{
closed = 1;
nodes = (
(429,-15,ls),
(579,-28,o),
(638,-64,o),
(638,-111,cs),
(638,-168,o),
(520,-227,o),
(346,-227,cs),
(188,-227,o),
(106,-171,o),
(106,-101,cs),
(106,-70,o),
(120,-36,o),
(185,13,c),
(147,16,l),
(61,-35,o),
(35,-77,o),
(35,-123,cs),
(35,-201,o),
(128,-262,o),
(307,-262,cs),
(578,-262,o),
(710,-189,o),
(710,-87,cs),
(710,-26,o),
(637,15,o),
(484,30,cs),
(105,68,l),
(104,38,l),
(239,165,l),
(181,150,l),
(214,141,o),
(284,134,o),
(346,134,cs),
(520,134,o),
(640,194,o),
(640,281,cs),
(640,324,o),
(612,382,o),
(533,399,c),
(534,372,l),
(717,421,l),
(715,429,l),
(356,430,ls),
(168,431,o),
(49,370,o),
(49,275,cs),
(49,212,o),
(97,168,o),
(186,150,c),
(197,173,l),
(62,48,l),
(61,18,l)
);
},
{
closed = 1;
nodes = (
(119,361,o),
(195,400,o),
(327,400,cs),
(470,400,o),
(570,344,o),
(571,264,cs),
(572,197,o),
(508,164,o),
(376,164,cs),
(216,164,o),
(117,214,o),
(118,293,cs)
);
}
);
};
layerId = m002;
shapes = (
{
closed = 1;
nodes = (
(162,130,o),
(351,130,cs),
(540,130,o),
(655,193,o),
(655,294,cs),
(655,345,o),
(624,382,o),
(563,395,c),
(539,372,l),
(722,426,l),
(720,435,l),
(361,435,ls),
(182,435,o),
(45,364,o),
(45,268,cs),
(45,182,o)
);
},
{
closed = 1;
nodes = (
(133,359,o),
(203,400,o),
(328,400,cs),
(475,400,o),
(569,352,o),
(570,269,cs),
(571,198,o),
(510,164,o),
(390,164,cs),
(234,164,o),
(131,210,o),
(132,291,cs)
);
},
{
closed = 1;
nodes = (
(219,160,l),
(58,48,l),
(57,14,l),
(425,-21,ls),
(555,-33,o),
(636,-71,o),
(636,-118,cs),
(636,-184,o),
(506,-235,o),
(368,-235,cs),
(188,-235,o),
(118,-180,o),
(118,-102,cs),
(118,-52,o),
(154,-21,o),
(250,23,c),
(183,26,l),
(76,-28,o),
(31,-65,o),
(31,-128,cs),
(31,-220,o),
(138,-275,o),
(334,-275,cs),
(541,-275,o),
(725,-207,o),
(725,-87,cs),
(725,-26,o),
(662,17,o),
(490,35,cs),
(101,75,l),
(121,38,l),
(282,153,l)
);
}
);
width = 737;
},
{
associatedMasterId = m002;
layerId = "343D1907-5F6C-416A-B2B8-6C486D3A61C2";
name = "May 21 18, 20:41";
shapes = (
{
closed = 1;
nodes = (
(558,134,o),
(676,195,o),
(676,281,cs),
(676,319,o),
(646,349,o),
(611,373,c),
(765,368,l),
(765,418,l),
(577,392,l),
(530,410,o),
(468,430,o),
(392,430,cs),
(208,430,o),
(85,366,o),
(85,275,cs),
(85,186,o),
(203,134,o),
(382,134,cs)
);
},
{
closed = 1;
nodes = (
(255,164,o),
(153,207,o),
(154,293,cs),
(155,361,o),
(236,400,o),
(363,400,cs),
(520,400,o),
(606,344,o),
(607,264,cs),
(608,201,o),
(530,164,o),
(412,164,cs)
);
},
{
closed = 1;
nodes = (
(107,58,l),
(106,28,l),
(474,-6,ls),
(638,-21,o),
(683,-56,o),
(683,-91,cs),
(683,-132,o),
(570,-187,o),
(391,-187,cs),
(242,-187,o),
(151,-148,o),
(151,-81,cs),
(151,-46,o),
(179,-10,o),
(235,32,c),
(212,29,l),
(134,-7,o),
(80,-58,o),
(80,-103,cs),
(80,-166,o),
(149,-222,o),
(352,-222,cs),
(601,-222,o),
(755,-148,o),
(755,-64,cs),
(755,-21,o),
(686,30,o),
(529,45,cs),
(172,79,l),
(254,156,l),
(227,161,l)
);
}
);
width = 805;
},
{
associatedMasterId = m002;
layerId = "262523F1-8554-4102-B354-36E2A7F546B8";
name = "Jun 9 18, 14:59";
shapes = (
{
closed = 1;
nodes = (
(558,134,o),
(676,195,o),
(676,281,cs),
(676,319,o),
(646,349,o),
(611,373,c),
(765,368,l),
(765,418,l),
(577,392,l),
(530,410,o),
(468,430,o),
(392,430,cs),
(208,430,o),
(85,366,o),
(85,275,cs),
(85,186,o),
(203,134,o),
(382,134,cs)
);
},
{
closed = 1;
nodes = (
(255,164,o),
(153,207,o),
(154,293,cs),
(155,361,o),
(236,400,o),
(363,400,cs),
(520,400,o),
(606,344,o),
(607,264,cs),
(608,201,o),
(530,164,o),
(412,164,cs)
);
},
{
closed = 1;
nodes = (
(107,58,l),
(106,28,l),
(474,-6,ls),
(638,-21,o),
(683,-56,o),
(683,-91,cs),
(683,-148,o),
(589,-187,o),
(391,-187,cs),
(242,-187,o),
(151,-148,o),
(151,-81,cs),
(151,-46,o),
(179,-10,o),
(235,32,c),
(212,29,l),
(134,-7,o),
(80,-58,o),
(80,-103,cs),
(80,-166,o),
(149,-222,o),
(352,-222,cs),
(603,-222,o),
(755,-166,o),
(755,-64,cs),
(755,-21,o),
(686,30,o),
(529,45,cs),
(172,79,l),
(254,156,l),
(227,161,l)
);
}
);
width = 805;
},
{
associatedMasterId = m002;
layerId = "4FAC5DC2-52BB-4B4A-95A5-AC9B5BE96404";
name = "Extended Mar 15 18, 23:54";
shapes = (
{
closed = 1;
nodes = (
(544,120,o),
(662,188,o),
(662,274,cs),
(662,312,o),
(644,344,o),
(609,368,c),
(751,348,l),
(751,418,l),
(563,392,l),
(516,410,o),
(454,430,o),
(378,430,cs),
(194,430,o),
(71,359,o),
(71,268,cs),
(71,179,o),
(189,120,o),
(368,120,cs)
);
},
{
closed = 1;
nodes = (
(241,150,o),
(139,200,o),
(140,286,cs),
(141,354,o),
(222,400,o),
(349,400,cs),
(506,400,o),
(592,337,o),
(593,257,cs),
(594,194,o),
(516,150,o),
(398,150,cs)
);
},
{
closed = 1;
nodes = (
(86,53,l),
(85,23,l),
(554,23,l),
(633,23,o),
(680,-2,o),
(680,-44,cs),
(680,-131,o),
(489,-187,o),
(358,-187,cs),
(232,-187,o),
(139,-148,o),
(139,-81,cs),
(139,-50,o),
(159,-14,o),
(205,28,c),
(170,28,l),
(102,-8,o),
(70,-58,o),
(70,-103,cs),
(70,-166,o),
(149,-222,o),
(304,-222,cs),
(516,-222,o),
(755,-143,o),
(755,-10,cs),
(755,44,o),
(701,74,o),
(609,74,c),
(151,74,l),
(204,152,l),
(177,157,l)
);
}
);
width = 825;
},
{
associatedMasterId = m002;
layerId = "483F7D8D-DFDF-4431-84F7-9A964CFBABF3";
name = "May 21 18, 20:41";
shapes = (
{
closed = 1;
nodes = (
(558,134,o),
(676,195,o),
(676,281,cs),
(676,319,o),
(646,349,o),
(611,373,c),
(765,368,l),
(765,418,l),
(577,392,l),
(530,410,o),
(468,430,o),
(392,430,cs),
(208,430,o),
(85,366,o),
(85,275,cs),
(85,186,o),
(203,134,o),
(382,134,cs)
);
},
{
closed = 1;
nodes = (
(255,164,o),
(153,207,o),
(154,293,cs),
(155,361,o),
(236,400,o),
(363,400,cs),
(520,400,o),
(606,344,o),
(607,264,cs),
(608,201,o),
(530,164,o),
(412,164,cs)
);
},
{
closed = 1;
nodes = (
(107,58,l),
(106,28,l),
(474,-6,ls),
(638,-21,o),
(683,-56,o),
(683,-91,cs),
(683,-132,o),
(570,-187,o),
(391,-187,cs),
(242,-187,o),
(151,-148,o),
(151,-81,cs),
(151,-46,o),
(179,-10,o),
(235,32,c),
(212,29,l),
(134,-7,o),
(80,-58,o),
(80,-103,cs),
(80,-166,o),
(149,-222,o),
(352,-222,cs),
(601,-222,o),
(755,-148,o),
(755,-64,cs),
(755,-21,o),
(686,30,o),
(529,45,cs),
(172,79,l),
(254,156,l),
(227,161,l)
);
}
);
width = 805;
},
{
associatedMasterId = m002;
layerId = "838FBB50-8162-4A6C-AE63-754E9C681C80";
name = "Jun 9 18, 14:59";
shapes = (
{
closed = 1;
nodes = (
(558,134,o),
(676,195,o),
(676,281,cs),
(676,319,o),
(646,349,o),
(611,373,c),
(765,368,l),
(765,418,l),
(577,392,l),
(530,410,o),
(468,430,o),
(392,430,cs),
(208,430,o),
(85,366,o),
(85,275,cs),
(85,186,o),
(203,134,o),
(382,134,cs)
);
},
{
closed = 1;
nodes = (
(255,164,o),
(153,207,o),
(154,293,cs),
(155,361,o),
(236,400,o),
(363,400,cs),
(520,400,o),
(606,344,o),
(607,264,cs),
(608,201,o),
(530,164,o),
(412,164,cs)
);
},
{
closed = 1;
nodes = (
(107,58,l),
(106,28,l),
(474,-6,ls),
(638,-21,o),
(683,-56,o),
(683,-91,cs),
(683,-148,o),
(589,-187,o),
(391,-187,cs),
(242,-187,o),
(151,-148,o),
(151,-81,cs),
(151,-46,o),
(179,-10,o),
(235,32,c),
(212,29,l),
(134,-7,o),
(80,-58,o),
(80,-103,cs),
(80,-166,o),
(149,-222,o),
(352,-222,cs),
(603,-222,o),
(755,-166,o),
(755,-64,cs),
(755,-21,o),
(686,30,o),
(529,45,cs),
(172,79,l),
(254,156,l),
(227,161,l)
);
}
);
width = 805;
},
{
associatedMasterId = m002;
layerId = "F541953E-D40B-4606-AE0A-9DD47297D901";
name = "Condensed Mar 15 18, 23:54";
shapes = (
{
closed = 1;
nodes = (
(239,109,o),
(305,162,o),
(305,262,cs),
(305,312,o),
(289,351,o),
(260,379,c),
(334,369,l),
(334,405,l),
(243,391,l),
(224,403,o),
(199,410,o),
(171,410,cs),
(85,410,o),
(29,360,o),
(29,266,cs),
(29,179,o),
(76,109,o),
(162,109,cs)
);
},
{
closed = 1;
nodes = (
(117,138,o),
(74,202,o),
(74,295,cs),
(74,346,o),
(113,380,o),
(162,380,cs),
(216,380,o),
(259,324,o),
(259,240,cs),
(259,180,o),
(220,140,o),
(171,139,cs)
);
},
{
closed = 1;
nodes = (
(40,47,l),
(40,21,l),
(229,21,l),
(268,21,o),
(293,4,o),
(295,-36,cs),
(298,-88,o),
(237,-190,o),
(145,-190,cs),
(71,-190,o),
(55,-131,o),
(55,-97,cs),
(55,-57,o),
(68,-24,o),
(98,26,c),
(84,26,l),
(41,-21,o),
(15,-63,o),
(15,-119,cs),
(15,-157,o),
(41,-220,o),
(123,-220,cs),
(247,-220,o),
(330,-110,o),
(330,-2,cs),
(330,48,o),
(299,66,o),
(253,66,c),
(77,66,l),
(110,146,l),
(92,146,l)
);
}
);
width = 360;
},
{
associatedMasterId = m002;
layerId = "6167F97C-0F33-42CB-AA9A-171412CB88AA";
name = "3 Dec 21, 13:24";
shapes = (
{
closed = 1;
nodes = (
(465,-6,ls),
(615,-20,o),
(674,-54,o),
(674,-101,cs),
(674,-158,o),
(556,-207,o),
(382,-207,cs),
(224,-207,o),
(142,-161,o),
(142,-91,cs),
(142,-60,o),
(152,-26,o),
(217,23,c),
(185,26,l),
(99,-25,o),
(71,-67,o),
(71,-113,cs),
(71,-191,o),
(164,-242,o),
(343,-242,cs),
(614,-242,o),
(746,-179,o),
(746,-77,cs),
(746,-16,o),
(673,31,o),
(520,45,cs),
(141,80,l),
(136,48,l),
(271,165,l),
(217,150,l),
(250,141,o),
(320,134,o),
(382,134,cs),
(556,134,o),
(676,194,o),
(676,281,cs),
(676,315,o),
(658,341,o),
(611,373,c),
(765,368,l),
(765,418,l),
(577,392,l),
(505,421,o),
(460,430,o),
(392,430,cs),
(204,430,o),
(85,370,o),
(85,275,cs),
(85,212,o),
(133,168,o),
(222,150,c),
(233,173,l),
(98,58,l),
(97,28,l)
);
},
{
closed = 1;
nodes = (
(155,361,o),
(231,400,o),
(363,400,cs),
(506,400,o),
(606,344,o),
(607,264,cs),
(608,197,o),
(544,164,o),
(412,164,cs),
(252,164,o),
(153,214,o),
(154,293,cs)
);
}
);
width = 805;
},
{
associatedMasterId = m003;
layerId = "5FC8B114-20CC-4830-BE08-4C65199E6B14";
name = "Extended Mar 15 18, 23:54";
shapes = (
{
closed = 1;
nodes = (
(544,120,o),
(662,188,o),
(662,274,cs),
(662,312,o),
(644,344,o),
(609,368,c),
(751,348,l),
(751,418,l),
(563,392,l),
(516,410,o),
(454,430,o),
(378,430,cs),
(194,430,o),
(71,359,o),
(71,268,cs),
(71,179,o),
(189,120,o),
(368,120,cs)
);
},
{
closed = 1;
nodes = (
(241,150,o),
(139,200,o),
(140,286,cs),
(141,354,o),
(222,400,o),
(349,400,cs),
(506,400,o),
(592,337,o),
(593,257,cs),
(594,194,o),
(516,150,o),
(398,150,cs)
);
},
{
closed = 1;
nodes = (
(86,53,l),
(85,23,l),
(554,23,l),
(633,23,o),
(680,-2,o),
(680,-44,cs),
(680,-131,o),
(489,-187,o),
(358,-187,cs),
(232,-187,o),
(139,-148,o),
(139,-81,cs),
(139,-50,o),
(159,-14,o),
(205,28,c),
(170,28,l),
(102,-8,o),
(70,-58,o),
(70,-103,cs),
(70,-166,o),
(149,-222,o),
(304,-222,cs),
(516,-222,o),
(755,-143,o),
(755,-10,cs),
(755,44,o),
(701,74,o),
(609,74,c),
(151,74,l),
(204,152,l),
(177,157,l)
);
}
);
width = 825;
},
{
anchors = (
{
name = bottom;
pos = (195,-252);
},
{
name = top;
pos = (195,402);
}
);
layerId = m003;
shapes = (
{
closed = 1;
nodes = (
(82,117,o),
(172,117,cs),
(263,117,o),
(328,185,o),
(328,278,cs),
(328,342,o),
(298,392,o),
(250,399,c),
(246,372,l),
(386,413,l),
(384,422,l),
(184,422,ls),
(92,422,o),
(19,350,o),
(19,259,cs),
(19,176,o)
);
},
{
closed = 1;
nodes = (
(91,348,o),
(123,391,o),
(170,391,cs),
(224,391,o),
(256,345,o),
(257,264,cs),
(258,185,o),
(233,148,o),
(181,148,cs),
(124,148,o),
(89,196,o),
(90,273,cs)
);
},
{
closed = 1;
nodes = (
(147,142,l),
(25,48,l),
(24,16,l),
(224,-22,ls),
(270,-31,o),
(304,-74,o),
(304,-123,cs),
(304,-184,o),
(260,-225,o),
(196,-225,cs),
(124,-225,o),
(67,-174,o),
(67,-115,cs),
(67,-68,o),
(101,-11,o),
(144,23,c),
(109,26,l),
(26,-41,o),
(-3,-81,o),
(-3,-128,cs),
(-3,-204,o),
(70,-262,o),
(173,-262,cs),
(287,-262,o),
(376,-194,o),
(376,-103,cs),
(376,-41,o),
(331,10,o),
(255,26,cs),
(57,68,l),
(68,38,l),
(198,134,l)
);
}
);
width = 374;
},
{
associatedMasterId = m003;
layerId = "C3C5BC13-B424-4971-9E48-7DDC7C0BA4F4";
name = "May 21 18, 20:41";
shapes = (
{
closed = 1;
nodes = (
(558,134,o),
(676,195,o),
(676,281,cs),
(676,319,o),
(646,349,o),
(611,373,c),
(765,368,l),
(765,418,l),
(577,392,l),
(530,410,o),
(468,430,o),
(392,430,cs),
(208,430,o),
(85,366,o),
(85,275,cs),
(85,186,o),
(203,134,o),
(382,134,cs)
);
},
{
closed = 1;
nodes = (
(255,164,o),
(153,207,o),
(154,293,cs),
(155,361,o),
(236,400,o),
(363,400,cs),
(520,400,o),
(606,344,o),
(607,264,cs),
(608,201,o),
(530,164,o),
(412,164,cs)
);
},
{
closed = 1;
nodes = (
(107,58,l),
(106,28,l),
(474,-6,ls),
(638,-21,o),
(683,-56,o),
(683,-91,cs),
(683,-132,o),
(570,-187,o),
(391,-187,cs),
(242,-187,o),
(151,-148,o),
(151,-81,cs),
(151,-46,o),
(179,-10,o),
(235,32,c),
(212,29,l),
(134,-7,o),
(80,-58,o),
(80,-103,cs),
(80,-166,o),
(149,-222,o),
(352,-222,cs),
(601,-222,o),
(755,-148,o),
(755,-64,cs),
(755,-21,o),
(686,30,o),
(529,45,cs),
(172,79,l),
(254,156,l),
(227,161,l)
);
}
);
width = 805;
},
{
associatedMasterId = m003;
layerId = "26389D57-1C2A-4839-B47C-32DC7A97F052";
name = "Jun 9 18, 14:59";
shapes = (
{
closed = 1;
nodes = (
(558,134,o),
(676,195,o),
(676,281,cs),
(676,319,o),
(646,349,o),
(611,373,c),
(765,368,l),
(765,418,l),
(577,392,l),
(530,410,o),
(468,430,o),
(392,430,cs),
(208,430,o),
(85,366,o),
(85,275,cs),
(85,186,o),
(203,134,o),
(382,134,cs)
);
},
{
closed = 1;
nodes = (
(255,164,o),
(153,207,o),
(154,293,cs),
(155,361,o),
(236,400,o),
(363,400,cs),
(520,400,o),
(606,344,o),
(607,264,cs),
(608,201,o),
(530,164,o),
(412,164,cs)
);
},
{
closed = 1;
nodes = (
(107,58,l),
(106,28,l),
(474,-6,ls),
(638,-21,o),
(683,-56,o),
(683,-91,cs),
(683,-148,o),
(589,-187,o),
(391,-187,cs),
(242,-187,o),
(151,-148,o),
(151,-81,cs),
(151,-46,o),
(179,-10,o),
(235,32,c),
(212,29,l),
(134,-7,o),
(80,-58,o),
(80,-103,cs),
(80,-166,o),
(149,-222,o),
(352,-222,cs),
(603,-222,o),
(755,-166,o),
(755,-64,cs),
(755,-21,o),
(686,30,o),
(529,45,cs),
(172,79,l),
(254,156,l),
(227,161,l)
);
}
);
width = 805;
},
{
associatedMasterId = m003;
layerId = "D17896DA-76BB-468D-A142-685048A41A8D";
name = "Extended Mar 15 18, 23:54";
shapes = (
{
closed = 1;
nodes = (
(544,120,o),
(662,188,o),
(662,274,cs),
(662,312,o),
(644,344,o),
(609,368,c),
(751,348,l),
(751,418,l),
(563,392,l),
(516,410,o),
(454,430,o),
(378,430,cs),
(194,430,o),
(71,359,o),
(71,268,cs),
(71,179,o),
(189,120,o),
(368,120,cs)
);
},
{
closed = 1;
nodes = (
(241,150,o),
(139,200,o),
(140,286,cs),
(141,354,o),
(222,400,o),
(349,400,cs),
(506,400,o),
(592,337,o),
(593,257,cs),
(594,194,o),
(516,150,o),
(398,150,cs)
);
},
{
closed = 1;
nodes = (
(86,53,l),
(85,23,l),
(554,23,l),
(633,23,o),
(680,-2,o),
(680,-44,cs),
(680,-131,o),
(489,-187,o),
(358,-187,cs),
(232,-187,o),
(139,-148,o),
(139,-81,cs),
(139,-50,o),
(159,-14,o),
(205,28,c),
(170,28,l),
(102,-8,o),
(70,-58,o),
(70,-103,cs),
(70,-166,o),
(149,-222,o),
(304,-222,cs),
(516,-222,o),
(755,-143,o),
(755,-10,cs),
(755,44,o),
(701,74,o),
(609,74,c),
(151,74,l),
(204,152,l),
(177,157,l)
);
}
);
width = 825;
},
{
associatedMasterId = m003;
layerId = "B69C7B05-2EDD-4707-81D6-1C5EBB2AF07F";
name = "May 21 18, 20:41";
shapes = (
{
closed = 1;
nodes = (
(558,134,o),
(676,195,o),
(676,281,cs),
(676,319,o),
(646,349,o),
(611,373,c),
(765,368,l),
(765,418,l),
(577,392,l),
(530,410,o),
(468,430,o),
(392,430,cs),
(208,430,o),
(85,366,o),
(85,275,cs),
(85,186,o),
(203,134,o),
(382,134,cs)
);
},
{
closed = 1;
nodes = (
(255,164,o),
(153,207,o),
(154,293,cs),
(155,361,o),
(236,400,o),
(363,400,cs),
(520,400,o),
(606,344,o),
(607,264,cs),
(608,201,o),
(530,164,o),
(412,164,cs)
);
},
{
closed = 1;
nodes = (
(107,58,l),
(106,28,l),
(474,-6,ls),
(638,-21,o),
(683,-56,o),
(683,-91,cs),
(683,-132,o),
(570,-187,o),
(391,-187,cs),
(242,-187,o),
(151,-148,o),
(151,-81,cs),
(151,-46,o),
(179,-10,o),
(235,32,c),
(212,29,l),
(134,-7,o),
(80,-58,o),
(80,-103,cs),
(80,-166,o),
(149,-222,o),
(352,-222,cs),
(601,-222,o),
(755,-148,o),
(755,-64,cs),
(755,-21,o),
(686,30,o),
(529,45,cs),
(172,79,l),
(254,156,l),
(227,161,l)
);
}
);
width = 805;
},
{
associatedMasterId = m003;
layerId = "B367C987-6A79-4170-85A8-8268947DC3A7";
name = "Jun 9 18, 14:59";
shapes = (
{
closed = 1;
nodes = (
(558,134,o),
(676,195,o),
(676,281,cs),
(676,319,o),
(646,349,o),
(611,373,c),
(765,368,l),
(765,418,l),
(577,392,l),
(530,410,o),
(468,430,o),
(392,430,cs),
(208,430,o),
(85,366,o),
(85,275,cs),
(85,186,o),
(203,134,o),
(382,134,cs)
);
},
{
closed = 1;
nodes = (
(255,164,o),
(153,207,o),
(154,293,cs),
(155,361,o),
(236,400,o),
(363,400,cs),
(520,400,o),
(606,344,o),
(607,264,cs),
(608,201,o),
(530,164,o),
(412,164,cs)
);
},
{
closed = 1;
nodes = (
(107,58,l),
(106,28,l),
(474,-6,ls),
(638,-21,o),
(683,-56,o),
(683,-91,cs),
(683,-148,o),
(589,-187,o),
(391,-187,cs),
(242,-187,o),
(151,-148,o),
(151,-81,cs),
(151,-46,o),
(179,-10,o),
(235,32,c),
(212,29,l),
(134,-7,o),
(80,-58,o),
(80,-103,cs),
(80,-166,o),
(149,-222,o),
(352,-222,cs),
(603,-222,o),
(755,-166,o),
(755,-64,cs),
(755,-21,o),
(686,30,o),
(529,45,cs),
(172,79,l),
(254,156,l),
(227,161,l)
);
}
);
width = 805;
},
{
associatedMasterId = m003;
layerId = "8BE5AA69-3748-4F0A-B613-3A7861B1DE73";
name = "Condensed Mar 15 18, 23:54";
shapes = (
{
closed = 1;
nodes = (
(239,109,o),
(305,162,o),
(305,262,cs),
(305,312,o),
(289,351,o),
(260,379,c),
(334,369,l),
(334,405,l),
(243,391,l),
(224,403,o),
(199,410,o),
(171,410,cs),
(85,410,o),
(29,360,o),
(29,266,cs),
(29,179,o),
(76,109,o),
(162,109,cs)
);
},
{
closed = 1;
nodes = (
(117,138,o),
(74,202,o),
(74,295,cs),
(74,346,o),
(113,380,o),
(162,380,cs),
(216,380,o),
(259,324,o),
(259,240,cs),
(259,180,o),
(220,140,o),
(171,139,cs)
);
},
{
closed = 1;
nodes = (
(40,47,l),
(40,21,l),
(229,21,l),
(268,21,o),
(293,4,o),
(295,-36,cs),
(298,-88,o),
(237,-190,o),
(145,-190,cs),
(71,-190,o),
(55,-131,o),
(55,-97,cs),
(55,-57,o),
(68,-24,o),
(98,26,c),
(84,26,l),
(41,-21,o),
(15,-63,o),
(15,-119,cs),
(15,-157,o),
(41,-220,o),
(123,-220,cs),
(247,-220,o),
(330,-110,o),
(330,-2,cs),
(330,48,o),
(299,66,o),
(253,66,c),
(77,66,l),
(110,146,l),
(92,146,l)
);
}
);
width = 360;
},
{
associatedMasterId = m003;
layerId = "AB5B30E9-FFC8-4F43-AC68-F2405067E3B3";
name = "3 Dec 21, 13:24";
shapes = (
{
closed = 1;
nodes = (
(465,-6,ls),
(615,-20,o),
(674,-54,o),
(674,-101,cs),
(674,-158,o),
(556,-207,o),
(382,-207,cs),
(224,-207,o),
(142,-161,o),
(142,-91,cs),
(142,-60,o),
(152,-26,o),
(217,23,c),
(185,26,l),
(99,-25,o),
(71,-67,o),
(71,-113,cs),
(71,-191,o),
(164,-242,o),
(343,-242,cs),
(614,-242,o),
(746,-179,o),
(746,-77,cs),
(746,-16,o),
(673,31,o),
(520,45,cs),
(141,80,l),
(136,48,l),
(271,165,l),
(217,150,l),
(250,141,o),
(320,134,o),
(382,134,cs),
(556,134,o),
(676,194,o),
(676,281,cs),
(676,315,o),
(658,341,o),
(611,373,c),
(765,368,l),
(765,418,l),
(577,392,l),
(505,421,o),
(460,430,o),
(392,430,cs),
(204,430,o),
(85,370,o),
(85,275,cs),
(85,212,o),
(133,168,o),
(222,150,c),
(233,173,l),
(98,58,l),
(97,28,l)
);
},
{
closed = 1;
nodes = (
(155,361,o),
(231,400,o),
(363,400,cs),
(506,400,o),
(606,344,o),
(607,264,cs),
(608,197,o),
(544,164,o),
(412,164,cs),
(252,164,o),
(153,214,o),
(154,293,cs)
);
}
);
width = 805;
},
{
anchors = (
{
name = bottom;
pos = (218,-250);
},
{
name = top;
pos = (218,410);
}
);
associatedMasterId = m003;
layerId = "A7047F79-5623-4626-9421-80F4DE2C666B";
name = "3 Mar 22, 12:15";
shapes = (
{
closed = 1;
nodes = (
(102,119,o),
(194,119,cs),
(286,119,o),
(357,187,o),
(357,277,cs),
(357,342,o),
(317,394,o),
(263,399,c),
(269,372,l),
(409,411,l),
(407,419,l),
(208,420,ls),
(113,420,o),
(36,349,o),
(36,260,cs),
(36,178,o)
);
},
{
closed = 1;
nodes = (
(101,341,o),
(140,390,o),
(195,390,cs),
(252,390,o),
(293,338,o),
(294,265,cs),
(295,194,o),
(260,149,o),
(203,149,cs),
(141,149,o),
(99,200,o),
(100,272,cs)
);
},
{
closed = 1;
nodes = (
(172,142,l),
(52,48,l),
(51,18,l),
(269,-19,ls),
(321,-28,o),
(351,-61,o),
(351,-111,cs),
(351,-179,o),
(297,-225,o),
(219,-225,cs),
(141,-225,o),
(88,-181,o),
(88,-116,cs),
(88,-66,o),
(119,-15,o),
(171,23,c),
(135,26,l),
(54,-38,o),
(25,-78,o),
(25,-128,cs),
(25,-205,o),
(96,-260,o),
(197,-260,cs),
(320,-260,o),
(415,-187,o),
(415,-93,cs),
(415,-31,o),
(374,11,o),
(299,25,cs),
(83,65,l),
(91,38,l),
(218,134,l)
);
}
);
width = 435;
},
{
anchors = (
{
name = bottom;
pos = (186,-242);
},
{
name = top;
pos = (186,392);
}
);
layerId = "2C26E880-80A5-4D19-8A94-7D905A372841";
shapes = (
{
closed = 1;
nodes = (
(81,127,o),
(157,127,cs),
(242,127,o),
(298,185,o),
(298,272,cs),
(298,344,o),
(258,395,o),
(190,409,c),
(237,372,l),
(377,403,l),
(375,412,l),
(178,412,ls),
(91,412,o),
(29,352,o),
(29,264,cs),
(29,182,o)
);
},
{
closed = 1;
nodes = (
(65,339,o),
(106,387,o),
(169,387,cs),
(228,387,o),
(263,344,o),
(264,269,cs),
(265,196,o),
(228,153,o),
(165,153,cs),
(104,153,o),
(63,194,o),
(64,268,cs)
);
},
{
closed = 1;
nodes = (
(147,142,l),
(35,48,l),
(34,26,l),
(224,-6,ls),
(283,-16,o),
(312,-47,o),
(312,-115,cs),
(312,-177,o),
(255,-226,o),
(176,-226,cs),
(98,-226,o),
(45,-186,o),
(45,-120,cs),
(45,-70,o),
(77,-25,o),
(153,23,c),
(113,26,l),
(46,-21,o),
(11,-72,o),
(11,-128,cs),
(11,-202,o),
(78,-252,o),
(168,-252,cs),
(270,-252,o),
(346,-185,o),
(346,-103,cs),
(346,-38,o),
(311,7,o),
(247,19,cs),
(62,53,l),
(59,38,l),
(174,134,l)
);
}
);
width = 375;
}
);
unicode = 103;
}
{
glyphname = k;
kernLeft = l;
kernRight = k;
layers = (
{
associatedMasterId = "0CCC0E2D-406A-4672-8E6C-854B1DF78A27";
layerId = "C8213F7B-B420-49DD-9544-023248B161EB";
name = "Extended Apr 1 18, 23:33";
shapes = (
{
closed = 1;
nodes = (
(160,645,l),
(160,35,l),
(10,4,l),
(12,0,l),
(378,0,l),
(380,4,l),
(230,35,l),
(230,665,l),
(239,700,l),
(10,645,l),
(12,640,l)
);
},
{
closed = 1;
nodes = (
(442,394,l),
(593,365,l),
(163,123,l),
(214,110,l),
(675,365,l),
(825,393,l),
(823,400,l),
(444,400,l)
);
},
{
closed = 1;
nodes = (
(752,-17,l),
(448,256,l),
(387,216,l),
(734,-34,l)
);
}
);
width = 894;
},
{
anchors = (
{
name = bottom;
pos = (385,0);
},
{
name = top;
pos = (385,691);
}
);
layerId = "0CCC0E2D-406A-4672-8E6C-854B1DF78A27";
shapes = (
{
closed = 1;
nodes = (
(568,351,l),
(728,393,l),
(726,401,l),
(349,401,l),
(347,393,l),
(508,351,l),
(133,143,l),
(143,118,l)
);
},
{
closed = 1;
nodes = (
(110,631,l),
(110,50,l),
(-30,8,l),
(-28,0,l),
(307,0,l),
(309,8,l),
(149,50,l),
(149,711,l),
(-31,631,l),
(-29,623,l)
);
},
{
closed = 1;
nodes = (
(331,241,l),
(597,50,l),
(437,8,l),
(439,0,l),
(787,0,l),
(789,8,l),
(655,50,l),
(366,260,l)
);
}
);
width = 798;
},
{
associatedMasterId = "0CCC0E2D-406A-4672-8E6C-854B1DF78A27";
layerId = "AACEBE1D-699F-40A4-B68D-0E9219BDB95D";
name = "Extended Apr 1 18, 23:33";
shapes = (
{
closed = 1;
nodes = (
(160,645,l),
(160,35,l),
(10,4,l),
(12,0,l),
(378,0,l),
(380,4,l),
(230,35,l),
(230,665,l),
(239,700,l),
(10,645,l),
(12,640,l)
);
},
{
closed = 1;
nodes = (
(442,394,l),
(593,365,l),
(163,123,l),
(214,110,l),
(675,365,l),
(825,393,l),
(823,400,l),
(444,400,l)
);
},
{
closed = 1;
nodes = (
(752,-17,l),
(448,256,l),
(387,216,l),
(734,-34,l)
);
}
);
width = 894;
},
{
associatedMasterId = m002;
layerId = "0188D420-0064-4FCC-B62F-436DF90D5162";
name = "Extended Apr 1 18, 23:33";
shapes = (
{
closed = 1;
nodes = (
(160,645,l),
(160,35,l),
(10,4,l),
(12,0,l),
(378,0,l),
(380,4,l),
(230,35,l),
(230,665,l),
(239,700,l),
(10,645,l),
(12,640,l)
);
},
{
closed = 1;
nodes = (
(442,394,l),
(593,365,l),
(163,123,l),
(214,110,l),
(675,365,l),
(825,393,l),
(823,400,l),
(444,400,l)
);
},
{
closed = 1;
nodes = (
(752,-17,l),
(448,256,l),
(387,216,l),
(734,-34,l)
);
}
);
width = 894;
},
{
anchors = (
{
name = bottom;
pos = (397,0);
},
{
name = top;
pos = (397,705);
}
);
layerId = m002;
shapes = (
{
closed = 1;
nodes = (
(619,365,l),
(748,407,l),
(746,415,l),
(351,415,l),
(349,407,l),
(510,365,l),
(136,146,l),
(163,118,l)
);
},
{
closed = 1;
nodes = (
(96,645,l),
(96,50,l),
(-44,8,l),
(-42,0,l),
(341,0,l),
(343,8,l),
(183,50,l),
(183,725,l),
(-45,645,l),
(-43,637,l)
);
},
{
closed = 1;
nodes = (
(333,221,l),
(594,50,l),
(434,8,l),
(436,0,l),
(834,0,l),
(836,8,l),
(714,50,l),
(411,256,l)
);
}
);
width = 831;
},
{
associatedMasterId = m002;
layerId = "43788FF0-6BED-4841-B8CF-F503B9DC9D82";
name = "Extended Apr 1 18, 23:33";
shapes = (
{
closed = 1;
nodes = (
(160,645,l),
(160,35,l),
(10,4,l),
(12,0,l),
(378,0,l),
(380,4,l),
(230,35,l),
(230,665,l),
(239,700,l),
(10,645,l),
(12,640,l)
);
},
{
closed = 1;
nodes = (
(442,394,l),
(593,365,l),
(163,123,l),
(214,110,l),
(675,365,l),
(825,393,l),
(823,400,l),
(444,400,l)
);
},
{
closed = 1;
nodes = (
(752,-17,l),
(448,256,l),
(387,216,l),
(734,-34,l)
);
}
);
width = 894;
},
{
associatedMasterId = m003;
layerId = "773FD13A-77FD-4218-91F5-66378A454304";
name = "Extended Apr 1 18, 23:33";
shapes = (
{
closed = 1;
nodes = (
(160,645,l),
(160,35,l),
(10,4,l),
(12,0,l),
(378,0,l),
(380,4,l),
(230,35,l),
(230,665,l),
(239,700,l),
(10,645,l),
(12,640,l)
);
},
{
closed = 1;
nodes = (
(442,394,l),
(593,365,l),
(163,123,l),
(214,110,l),
(675,365,l),
(825,393,l),
(823,400,l),
(444,400,l)
);
},
{
closed = 1;
nodes = (
(752,-17,l),
(448,256,l),
(387,216,l),
(734,-34,l)
);
}
);
width = 894;
},
{
anchors = (
{
name = bottom;
pos = (251,0);
},
{
name = top;
pos = (240,692);
}
);
layerId = m003;
shapes = (
{
closed = 1;
nodes = (
(340,357,l),
(431,394,l),
(429,402,l),
(211,402,l),
(209,394,l),
(289,357,l),
(115,146,l),
(141,118,l)
);
},
{
closed = 1;
nodes = (
(89,637,l),
(89,47,l),
(-21,8,l),
(-19,0,l),
(223,0,l),
(225,8,l),
(162,47,l),
(162,712,l),
(-22,637,l),
(-18,629,l)
);
},
{
closed = 1;
nodes = (
(185,218,l),
(311,35,l),
(250,8,l),
(252,0,l),
(471,0,l),
(473,8,l),
(387,41,l),
(234,259,l)
);
}
);
width = 462;
},
{
associatedMasterId = m003;
layerId = "7FC5CE62-E899-4C43-B83A-D6088F492D48";
name = "Extended Apr 1 18, 23:33";
shapes = (
{
closed = 1;
nodes = (
(160,645,l),
(160,35,l),
(10,4,l),
(12,0,l),
(378,0,l),
(380,4,l),
(230,35,l),
(230,665,l),
(239,700,l),
(10,645,l),
(12,640,l)
);
},
{
closed = 1;
nodes = (
(442,394,l),
(593,365,l),
(163,123,l),
(214,110,l),
(675,365,l),
(825,393,l),
(823,400,l),
(444,400,l)
);
},
{
closed = 1;
nodes = (
(752,-17,l),
(448,256,l),
(387,216,l),
(734,-34,l)
);
}
);
width = 894;
},
{
anchors = (
{
name = bottom;
pos = (232,0);
},
{
name = top;
pos = (227,681);
}
);
layerId = "2C26E880-80A5-4D19-8A94-7D905A372841";
shapes = (
{
closed = 1;
nodes = (
(298,347,l),
(405,384,l),
(403,392,l),
(185,392,l),
(183,384,l),
(263,347,l),
(114,143,l),
(126,118,l)
);
},
{
closed = 1;
nodes = (
(99,627,l),
(99,47,l),
(-11,8,l),
(-9,0,l),
(228,0,l),
(230,8,l),
(133,47,l),
(133,702,l),
(-12,627,l),
(-8,619,l)
);
},
{
closed = 1;
nodes = (
(191,233,l),
(310,35,l),
(249,8,l),
(251,0,l),
(436,0,l),
(438,8,l),
(343,41,l),
(208,263,l)
);
}
);
width = 457;
},
{
anchors = (
{
name = bottom;
pos = (251,0);
},
{
name = top;
pos = (240,692);
}
);
associatedMasterId = m003;
layerId = "F7F79712-4F87-4D50-9BB3-65E2D60760AE";
name = "25 Sep 22, 12:35";
shapes = (
{
closed = 1;
nodes = (
(330,357,l),
(421,394,l),
(419,402,l),
(201,402,l),
(199,394,l),
(279,357,l),
(120,146,l),
(141,118,l)
);
},
{
closed = 1;
nodes = (
(89,637,l),
(89,47,l),
(-21,8,l),
(-19,0,l),
(223,0,l),
(225,8,l),
(162,47,l),
(162,712,l),
(-22,637,l),
(-18,629,l)
);
},
{
closed = 1;
nodes = (
(185,218,l),
(311,35,l),
(250,8,l),
(252,0,l),
(471,0,l),
(473,8,l),
(387,41,l),
(234,259,l)
);
}
);
width = 462;
}
);
metricLeft = l;
unicode = 107;
}
{
glyphname = s;
kernLeft = s;
kernRight = s;
layers = (
{
anchors = (
{
name = bottom;
pos = (305,0);
},
{
name = top;
pos = (285,410);
}
);
layerId = "0CCC0E2D-406A-4672-8E6C-854B1DF78A27";
shapes = (
{
closed = 1;
nodes = (
(104,-2,o),
(216,-21,o),
(299,-19,cs),
(440,-15,o),
(529,32,o),
(528,126,cs),
(527,183,o),
(479,214,o),
(370,223,cs),
(217,236,ls),
(123,244,o),
(80,265,o),
(80,305,cs),
(80,355,o),
(155,393,o),
(262,396,cs),
(315,398,o),
(376,390,o),
(428,377,c),
(443,272,l),
(451,270,l),
(489,392,l),
(437,411,o),
(344,424,o),
(271,422,cs),
(140,419,o),
(51,368,o),
(51,296,cs),
(51,247,o),
(93,213,o),
(199,204,cs),
(352,191,ls),
(451,183,o),
(498,159,o),
(498,116,cs),
(498,53,o),
(425,12,o),
(305,10,cs),
(225,9,o),
(146,23,o),
(99,47,c),
(84,154,l),
(76,156,l),
(39,32,l)
);
}
);
width = 577;
},
{
associatedMasterId = "0CCC0E2D-406A-4672-8E6C-854B1DF78A27";
layerId = "B67D3812-724D-413B-96DE-429526372F31";
name = "Mar 15 18, 20:19";
shapes = (
{
closed = 1;
nodes = (
(638,336,l),
(564,396,o),
(454,431,o),
(342,431,cs),
(189,431,o),
(98,364,o),
(98,305,cs),
(98,220,o),
(193,195,o),
(354,195,cs),
(486,195,o),
(608,166,o),
(608,120,cs),
(608,63,o),
(525,30,o),
(384,30,cs),
(270,30,o),
(160,65,o),
(88,124,c),
(50,115,l),
(137,33,o),
(273,-15,o),
(416,-15,cs),
(578,-15,o),
(673,41,o),
(673,136,cs),
(673,205,o),
(564,255,o),
(387,255,cs),
(243,255,o),
(158,266,o),
(158,317,cs),
(158,374,o),
(235,401,o),
(366,401,cs),
(475,401,o),
(557,368,o),
(608,321,c)
);
},
{
closed = 1;
nodes = (
(554,263,l),
(560,260,l),
(638,336,l),
(568,374,l)
);
},
{
closed = 1;
nodes = (
(141,195,l),
(135,198,l),
(50,115,l),
(123,91,l)
);
}
);
width = 723;
},
{
associatedMasterId = "0CCC0E2D-406A-4672-8E6C-854B1DF78A27";
layerId = "75A05EC4-8EBC-4E98-A8A6-E3640A83DCBB";
name = "Mar 15 18, 22:08";
shapes = (
{
closed = 1;
nodes = (
(638,336,l),
(564,396,o),
(454,431,o),
(342,431,cs),
(189,431,o),
(98,367,o),
(98,296,cs),
(98,223,o),
(193,195,o),
(354,195,cs),
(486,195,o),
(608,183,o),
(608,120,cs),
(608,55,o),
(515,25,o),
(399,25,cs),
(293,25,o),
(176,49,o),
(75,143,c),
(56,124,l),
(143,38,o),
(255,-10,o),
(431,-10,cs),
(554,-10,o),
(673,30,o),
(673,145,cs),
(673,215,o),
(564,255,o),
(387,255,cs),
(243,255,o),
(158,266,o),
(158,317,cs),
(158,374,o),
(235,401,o),
(366,401,cs),
(475,401,o),
(557,368,o),
(608,321,c)
);
},
{
closed = 1;
nodes = (
(554,263,l),
(560,260,l),
(638,336,l),
(568,374,l)
);
},
{
closed = 1;
nodes = (
(138,214,l),
(132,216,l),
(56,124,l),
(129,97,l)
);
}
);
width = 723;
},
{
associatedMasterId = "0CCC0E2D-406A-4672-8E6C-854B1DF78A27";
layerId = "79919095-CADF-4E02-8FC0-8985CFD0D75F";
name = "Mar 16 18, 00:42";
shapes = (
{
closed = 1;
nodes = (
(125,29,o),
(253,-10,o),
(379,-10,cs),
(552,-10,o),
(673,32,o),
(673,135,cs),
(673,221,o),
(591,255,o),
(387,255,cs),
(218,255,o),
(151,273,o),
(151,317,cs),
(151,374,o),
(238,401,o),
(379,401,cs),
(455,401,o),
(523,384,o),
(575,357,c),
(581,270,l),
(587,268,l),
(647,351,l),
(567,403,o),
(456,431,o),
(379,431,cs),
(191,431,o),
(106,367,o),
(106,296,cs),
(106,224,o),
(183,195,o),
(374,195,cs),
(555,195,o),
(628,174,o),
(628,120,cs),
(628,55,o),
(515,25,o),
(379,25,cs),
(309.783,25,o),
(210.122,37.955,o),
(129.022,84.199,c),
(131,193,l),
(125,195,l),
(54,100,l)
);
}
);
width = 723;
},
{
associatedMasterId = "0CCC0E2D-406A-4672-8E6C-854B1DF78A27";
layerId = "DF4B98B1-E5F9-4778-88D8-047F917AB73A";
name = "Mar 18 18, 23:08";
shapes = (
{
closed = 1;
nodes = (
(93,39,o),
(206,-10,o),
(347,-10,cs),
(520,-10,o),
(641,32,o),
(641,135,cs),
(641,221,o),
(559,255,o),
(355,255,cs),
(186,255,o),
(124,273,o),
(124,317,cs),
(124,374,o),
(206,396,o),
(347,396,cs),
(423,396,o),
(491,384,o),
(543,357,c),
(543,270,l),
(547,268,l),
(615,361,l),
(535,413,o),
(424,431,o),
(347,431,cs),
(159,431,o),
(74,367,o),
(74,296,cs),
(74,224,o),
(151,195,o),
(342,195,cs),
(523,195,o),
(591,173,o),
(591,120,cs),
(591,55,o),
(483,30,o),
(347,30,cs),
(263,30,o),
(178,48,o),
(97,94,c),
(97,203,l),
(93,205,l),
(22,110,l)
);
}
);
width = 663;
},
{
associatedMasterId = "0CCC0E2D-406A-4672-8E6C-854B1DF78A27";
layerId = "58E50590-DF9C-4E72-809F-05F75D999440";
name = "Mar 15 18, 20:19";
shapes = (
{
closed = 1;
nodes = (
(638,336,l),
(564,396,o),
(454,431,o),
(342,431,cs),
(189,431,o),
(98,364,o),
(98,305,cs),
(98,220,o),
(193,195,o),
(354,195,cs),
(486,195,o),
(608,166,o),
(608,120,cs),
(608,63,o),
(525,30,o),
(384,30,cs),
(270,30,o),
(160,65,o),
(88,124,c),
(50,115,l),
(137,33,o),
(273,-15,o),
(416,-15,cs),
(578,-15,o),
(673,41,o),
(673,136,cs),
(673,205,o),
(564,255,o),
(387,255,cs),
(243,255,o),
(158,266,o),
(158,317,cs),
(158,374,o),
(235,401,o),
(366,401,cs),
(475,401,o),
(557,368,o),
(608,321,c)
);
},
{
closed = 1;
nodes = (
(554,263,l),
(560,260,l),
(638,336,l),
(568,374,l)
);
},
{
closed = 1;
nodes = (
(141,195,l),
(135,198,l),
(50,115,l),
(123,91,l)
);
}
);
width = 723;
},
{
associatedMasterId = "0CCC0E2D-406A-4672-8E6C-854B1DF78A27";
layerId = "1B8A2EE8-23AA-4A58-8AF1-18D8A75D39F3";
name = "Mar 15 18, 22:08";
shapes = (
{
closed = 1;
nodes = (
(638,336,l),
(564,396,o),
(454,431,o),
(342,431,cs),
(189,431,o),
(98,367,o),
(98,296,cs),
(98,223,o),
(193,195,o),
(354,195,cs),
(486,195,o),
(608,183,o),
(608,120,cs),
(608,55,o),
(515,25,o),
(399,25,cs),
(293,25,o),
(176,49,o),
(75,143,c),
(56,124,l),
(143,38,o),
(255,-10,o),
(431,-10,cs),
(554,-10,o),
(673,30,o),
(673,145,cs),
(673,215,o),
(564,255,o),
(387,255,cs),
(243,255,o),
(158,266,o),
(158,317,cs),
(158,374,o),
(235,401,o),
(366,401,cs),
(475,401,o),
(557,368,o),
(608,321,c)
);
},
{
closed = 1;
nodes = (
(554,263,l),
(560,260,l),
(638,336,l),
(568,374,l)
);
},
{
closed = 1;
nodes = (
(138,214,l),
(132,216,l),
(56,124,l),
(129,97,l)
);
}
);
width = 723;
},
{
associatedMasterId = "0CCC0E2D-406A-4672-8E6C-854B1DF78A27";
layerId = "439878F5-367A-4115-8E5A-8A815B2DCB52";
name = "Mar 16 18, 00:42";
shapes = (
{
closed = 1;
nodes = (
(125,29,o),
(253,-10,o),
(379,-10,cs),
(552,-10,o),
(673,32,o),
(673,135,cs),
(673,221,o),
(591,255,o),
(387,255,cs),
(218,255,o),
(151,273,o),
(151,317,cs),
(151,374,o),
(238,401,o),
(379,401,cs),
(455,401,o),
(523,384,o),
(575,357,c),
(581,270,l),
(587,268,l),
(647,351,l),
(567,403,o),
(456,431,o),
(379,431,cs),
(191,431,o),
(106,367,o),
(106,296,cs),
(106,224,o),
(183,195,o),
(374,195,cs),
(555,195,o),
(628,174,o),
(628,120,cs),
(628,55,o),
(515,25,o),
(379,25,cs),
(309.783,25,o),
(210.122,37.955,o),
(129.022,84.199,c),
(131,193,l),
(125,195,l),
(54,100,l)
);
}
);
width = 723;
},
{
associatedMasterId = "0CCC0E2D-406A-4672-8E6C-854B1DF78A27";
layerId = "F87D1E18-8278-4F5C-B99E-4CA45F9C9A97";
name = "Mar 18 18, 23:08";
shapes = (
{
closed = 1;
nodes = (
(93,39,o),
(206,-10,o),
(347,-10,cs),
(520,-10,o),
(641,32,o),
(641,135,cs),
(641,221,o),
(559,255,o),
(355,255,cs),
(186,255,o),
(124,273,o),
(124,317,cs),
(124,374,o),
(206,396,o),
(347,396,cs),
(423,396,o),
(491,384,o),
(543,357,c),
(543,270,l),
(547,268,l),
(615,361,l),
(535,413,o),
(424,431,o),
(347,431,cs),
(159,431,o),
(74,367,o),
(74,296,cs),
(74,224,o),
(151,195,o),
(342,195,cs),
(523,195,o),
(591,173,o),
(591,120,cs),
(591,55,o),
(483,30,o),
(347,30,cs),
(263,30,o),
(178,48,o),
(97,94,c),
(97,203,l),
(93,205,l),
(22,110,l)
);
}
);
width = 663;
},
{
associatedMasterId = "0CCC0E2D-406A-4672-8E6C-854B1DF78A27";
layerId = "7FC4C17B-B9EF-4B2F-BD55-10C3B668BC36";
name = "Mar 16 18, 00:46";
shapes = (
{
closed = 1;
nodes = (
(61,35,o),
(114,-10,o),
(172,-10,cs),
(251,-10,o),
(303,40,o),
(303,114,cs),
(303,178,o),
(271,209,o),
(178,233,cs),
(116,249,o),
(92,272,o),
(92,307,cs),
(92,345,o),
(120,385,o),
(173,385,cs),
(207,385,o),
(238,370,o),
(250,356,c),
(241,269,l),
(244,267,l),
(289,344,l),
(267,379,o),
(214,410,o),
(173,410,cs),
(99,410,o),
(52,354,o),
(52,286,cs),
(52,237,o),
(82,212,o),
(169,188,cs),
(237,168,o),
(263,140,o),
(263,99,cs),
(263,55,o),
(227,25,o),
(172,25,cs),
(127,25,o),
(90,46,o),
(64,87,c),
(79,183,l),
(76,185,l),
(30,110,l)
);
}
);
width = 333;
},
{
associatedMasterId = "0CCC0E2D-406A-4672-8E6C-854B1DF78A27";
layerId = "51E2BF7C-704E-44FC-8495-CD7BFDCE40EA";
name = "Mar 18 18, 23:08";
shapes = (
{
closed = 1;
nodes = (
(61,35,o),
(114,-10,o),
(172,-10,cs),
(251,-10,o),
(311,40,o),
(311,114,cs),
(311,178,o),
(271,209,o),
(178,233,cs),
(116,249,o),
(92,272,o),
(92,307,cs),
(92,345,o),
(120,385,o),
(173,385,cs),
(207,385,o),
(238,370,o),
(250,356,c),
(241,269,l),
(244,267,l),
(289,344,l),
(267,379,o),
(214,410,o),
(173,410,cs),
(99,410,o),
(42,364,o),
(42,296,cs),
(42,247,o),
(82,212,o),
(169,188,cs),
(237,168,o),
(263,140,o),
(263,99,cs),
(263,55,o),
(227,25,o),
(172,25,cs),
(127,25,o),
(90,46,o),
(64,87,c),
(79,183,l),
(76,185,l),
(30,110,l)
);
}
);
width = 333;
},
{
associatedMasterId = "0CCC0E2D-406A-4672-8E6C-854B1DF78A27";
layerId = "07D2520C-4346-4DC2-95E1-F28F18E06782";
name = "Apr 9 20, 10:23";
shapes = (
{
closed = 1;
nodes = (
(142,1,o),
(253,-24,o),
(341,-22,cs),
(515,-18,o),
(610,30,o),
(610,113,cs),
(610,193,o),
(536,225,o),
(348,227,cs),
(174,229,o),
(114,252,o),
(114,315,cs),
(114,378,o),
(206,421,o),
(327,422,cs),
(410,423,o),
(478,402,o),
(527,366,c),
(524,257,l),
(528,255,l),
(592,360,l),
(526,409,o),
(434,440,o),
(342,439,cs),
(192,438,o),
(94,390,o),
(94,309,cs),
(94,238,o),
(158,212,o),
(337,210,cs),
(525,208,o),
(589,182,o),
(589,108,cs),
(589,41,o),
(502,0,o),
(356,-2,cs),
(281,-3,o),
(199,13,o),
(120,43,c),
(122,159,l),
(118,161,l),
(50,44,l)
);
}
);
width = 650;
},
{
anchors = (
{
name = bottom;
pos = (333,0);
},
{
name = top;
pos = (313,410);
}
);
layerId = m002;
shapes = (
{
closed = 1;
nodes = (
(104,1,o),
(212,-22,o),
(327,-19,cs),
(491,-15,o),
(583,46,o),
(582,150,cs),
(582,204,o),
(513,240,o),
(397,248,cs),
(245,258,ls),
(143,265,o),
(108,279,o),
(108,313,cs),
(108,360,o),
(174,392,o),
(277,395,cs),
(338,397,o),
(420,387,o),
(484,369,c),
(499,281,l),
(507,279,l),
(557,405,l),
(461,431,o),
(372,443,o),
(298,441,cs),
(153,438,o),
(52,376,o),
(52,290,cs),
(52,224,o),
(112,186,o),
(227,179,cs),
(379,170,ls),
(479,164,o),
(526,144,o),
(526,107,cs),
(526,57,o),
(468,32,o),
(346,30,cs),
(257,29,o),
(159,49,o),
(100,81,c),
(85,168,l),
(77,170,l),
(26,46,l)
);
}
);
width = 620;
},
{
associatedMasterId = m002;
layerId = "C68E995C-2449-4940-B0D2-AE3FBBB89702";
name = "Mar 15 18, 20:19";
shapes = (
{
closed = 1;
nodes = (
(638,336,l),
(564,396,o),
(454,431,o),
(342,431,cs),
(189,431,o),
(98,364,o),
(98,305,cs),
(98,220,o),
(193,195,o),
(354,195,cs),
(486,195,o),
(608,166,o),
(608,120,cs),
(608,63,o),
(525,30,o),
(384,30,cs),
(270,30,o),
(160,65,o),
(88,124,c),
(50,115,l),
(137,33,o),
(273,-15,o),
(416,-15,cs),
(578,-15,o),
(673,41,o),
(673,136,cs),
(673,205,o),
(564,255,o),
(387,255,cs),
(243,255,o),
(158,266,o),
(158,317,cs),
(158,374,o),
(235,401,o),
(366,401,cs),
(475,401,o),
(557,368,o),
(608,321,c)
);
},
{
closed = 1;
nodes = (
(554,263,l),
(560,260,l),
(638,336,l),
(568,374,l)
);
},
{
closed = 1;
nodes = (
(141,195,l),
(135,198,l),
(50,115,l),
(123,91,l)
);
}
);
width = 723;
},
{
associatedMasterId = m002;
layerId = "3BC56EBA-5A17-4E64-A933-49236BD6A987";
name = "Mar 15 18, 22:08";
shapes = (
{
closed = 1;
nodes = (
(638,336,l),
(564,396,o),
(454,431,o),
(342,431,cs),
(189,431,o),
(98,367,o),
(98,296,cs),
(98,223,o),
(193,195,o),
(354,195,cs),
(486,195,o),
(608,183,o),
(608,120,cs),
(608,55,o),
(515,25,o),
(399,25,cs),
(293,25,o),
(176,49,o),
(75,143,c),
(56,124,l),
(143,38,o),
(255,-10,o),
(431,-10,cs),
(554,-10,o),
(673,30,o),
(673,145,cs),
(673,215,o),
(564,255,o),
(387,255,cs),
(243,255,o),
(158,266,o),
(158,317,cs),
(158,374,o),
(235,401,o),
(366,401,cs),
(475,401,o),
(557,368,o),
(608,321,c)
);
},
{
closed = 1;
nodes = (
(554,263,l),
(560,260,l),
(638,336,l),
(568,374,l)
);
},
{
closed = 1;
nodes = (
(138,214,l),
(132,216,l),
(56,124,l),
(129,97,l)
);
}
);
width = 723;
},
{
associatedMasterId = m002;
layerId = "A157E5D8-B4C8-4C3A-AE1B-9A2E2C5017A5";
name = "Mar 16 18, 00:42";
shapes = (
{
closed = 1;
nodes = (
(125,29,o),
(253,-10,o),
(379,-10,cs),
(552,-10,o),
(673,32,o),
(673,135,cs),
(673,221,o),
(591,255,o),
(387,255,cs),
(218,255,o),
(151,273,o),
(151,317,cs),
(151,374,o),
(238,401,o),
(379,401,cs),
(455,401,o),
(523,384,o),
(575,357,c),
(581,270,l),
(587,268,l),
(647,351,l),
(567,403,o),
(456,431,o),
(379,431,cs),
(191,431,o),
(106,367,o),
(106,296,cs),
(106,224,o),
(183,195,o),
(374,195,cs),
(555,195,o),
(628,174,o),
(628,120,cs),
(628,55,o),
(515,25,o),
(379,25,cs),
(309.783,25,o),
(210.122,37.955,o),
(129.022,84.199,c),
(131,193,l),
(125,195,l),
(54,100,l)
);
}
);
width = 723;
},
{
associatedMasterId = m002;
layerId = "23610CFD-5AD8-4A6F-A859-1A2A23001495";
name = "Mar 18 18, 23:08";
shapes = (
{
closed = 1;
nodes = (
(93,39,o),
(206,-10,o),
(347,-10,cs),
(520,-10,o),
(641,32,o),
(641,135,cs),
(641,221,o),
(559,255,o),
(355,255,cs),
(186,255,o),
(124,273,o),
(124,317,cs),
(124,374,o),
(206,396,o),
(347,396,cs),
(423,396,o),
(491,384,o),
(543,357,c),
(543,270,l),
(547,268,l),
(615,361,l),
(535,413,o),
(424,431,o),
(347,431,cs),
(159,431,o),
(74,367,o),
(74,296,cs),
(74,224,o),
(151,195,o),
(342,195,cs),
(523,195,o),
(591,173,o),
(591,120,cs),
(591,55,o),
(483,30,o),
(347,30,cs),
(263,30,o),
(178,48,o),
(97,94,c),
(97,203,l),
(93,205,l),
(22,110,l)
);
}
);
width = 663;
},
{
associatedMasterId = m002;
layerId = "118312AC-4DA2-46E1-86DC-E74377827EF1";
name = "Mar 15 18, 20:19";
shapes = (
{
closed = 1;
nodes = (
(638,336,l),
(564,396,o),
(454,431,o),
(342,431,cs),
(189,431,o),
(98,364,o),
(98,305,cs),
(98,220,o),
(193,195,o),
(354,195,cs),
(486,195,o),
(608,166,o),
(608,120,cs),
(608,63,o),
(525,30,o),
(384,30,cs),
(270,30,o),
(160,65,o),
(88,124,c),
(50,115,l),
(137,33,o),
(273,-15,o),
(416,-15,cs),
(578,-15,o),
(673,41,o),
(673,136,cs),
(673,205,o),
(564,255,o),
(387,255,cs),
(243,255,o),
(158,266,o),
(158,317,cs),
(158,374,o),
(235,401,o),
(366,401,cs),
(475,401,o),
(557,368,o),
(608,321,c)
);
},
{
closed = 1;
nodes = (
(554,263,l),
(560,260,l),
(638,336,l),
(568,374,l)
);
},
{
closed = 1;
nodes = (
(141,195,l),
(135,198,l),
(50,115,l),
(123,91,l)
);
}
);
width = 723;
},
{
associatedMasterId = m002;
layerId = "1B147A1C-D6FA-4938-93DC-9E5324D102DE";
name = "Mar 15 18, 22:08";
shapes = (
{
closed = 1;
nodes = (
(638,336,l),
(564,396,o),
(454,431,o),
(342,431,cs),
(189,431,o),
(98,367,o),
(98,296,cs),
(98,223,o),
(193,195,o),
(354,195,cs),
(486,195,o),
(608,183,o),
(608,120,cs),
(608,55,o),
(515,25,o),
(399,25,cs),
(293,25,o),
(176,49,o),
(75,143,c),
(56,124,l),
(143,38,o),
(255,-10,o),
(431,-10,cs),
(554,-10,o),
(673,30,o),
(673,145,cs),
(673,215,o),
(564,255,o),
(387,255,cs),
(243,255,o),
(158,266,o),
(158,317,cs),
(158,374,o),
(235,401,o),
(366,401,cs),
(475,401,o),
(557,368,o),
(608,321,c)
);
},
{
closed = 1;
nodes = (
(554,263,l),
(560,260,l),
(638,336,l),
(568,374,l)
);
},
{
closed = 1;
nodes = (
(138,214,l),
(132,216,l),
(56,124,l),
(129,97,l)
);
}
);
width = 723;
},
{
associatedMasterId = m002;
layerId = "F4A5AAF1-0FAF-4860-8D30-3270399CC4CD";
name = "Mar 16 18, 00:42";
shapes = (
{
closed = 1;
nodes = (
(125,29,o),
(253,-10,o),
(379,-10,cs),
(552,-10,o),
(673,32,o),
(673,135,cs),
(673,221,o),
(591,255,o),
(387,255,cs),
(218,255,o),
(151,273,o),
(151,317,cs),
(151,374,o),
(238,401,o),
(379,401,cs),
(455,401,o),
(523,384,o),
(575,357,c),
(581,270,l),
(587,268,l),
(647,351,l),
(567,403,o),
(456,431,o),
(379,431,cs),
(191,431,o),
(106,367,o),
(106,296,cs),
(106,224,o),
(183,195,o),
(374,195,cs),
(555,195,o),
(628,174,o),
(628,120,cs),
(628,55,o),
(515,25,o),
(379,25,cs),
(309.783,25,o),
(210.122,37.955,o),
(129.022,84.199,c),
(131,193,l),
(125,195,l),
(54,100,l)
);
}
);
width = 723;
},
{
associatedMasterId = m002;
layerId = "C045E0A1-8291-4FC1-9304-43D450A7326C";
name = "Mar 18 18, 23:08";
shapes = (
{
closed = 1;
nodes = (
(93,39,o),
(206,-10,o),
(347,-10,cs),
(520,-10,o),
(641,32,o),
(641,135,cs),
(641,221,o),
(559,255,o),
(355,255,cs),
(186,255,o),
(124,273,o),
(124,317,cs),
(124,374,o),
(206,396,o),
(347,396,cs),
(423,396,o),
(491,384,o),
(543,357,c),
(543,270,l),
(547,268,l),
(615,361,l),
(535,413,o),
(424,431,o),
(347,431,cs),
(159,431,o),
(74,367,o),
(74,296,cs),
(74,224,o),
(151,195,o),
(342,195,cs),
(523,195,o),
(591,173,o),
(591,120,cs),
(591,55,o),
(483,30,o),
(347,30,cs),
(263,30,o),
(178,48,o),
(97,94,c),
(97,203,l),
(93,205,l),
(22,110,l)
);
}
);
width = 663;
},
{
associatedMasterId = m002;
layerId = "4AFDD676-9E27-4B12-833F-FA37E9021081";
name = "Mar 16 18, 00:46";
shapes = (
{
closed = 1;
nodes = (
(61,35,o),
(114,-10,o),
(172,-10,cs),
(251,-10,o),
(303,40,o),
(303,114,cs),
(303,178,o),
(271,209,o),
(178,233,cs),
(116,249,o),
(92,272,o),
(92,307,cs),
(92,345,o),
(120,385,o),
(173,385,cs),
(207,385,o),
(238,370,o),
(250,356,c),
(241,269,l),
(244,267,l),
(289,344,l),
(267,379,o),
(214,410,o),
(173,410,cs),
(99,410,o),
(52,354,o),
(52,286,cs),
(52,237,o),
(82,212,o),
(169,188,cs),
(237,168,o),
(263,140,o),
(263,99,cs),
(263,55,o),
(227,25,o),
(172,25,cs),
(127,25,o),
(90,46,o),
(64,87,c),
(79,183,l),
(76,185,l),
(30,110,l)
);
}
);
width = 333;
},
{
associatedMasterId = m002;
layerId = "958944BB-3511-4D0B-B28C-5F6768CD1361";
name = "Mar 18 18, 23:08";
shapes = (
{
closed = 1;
nodes = (
(61,35,o),
(114,-10,o),
(172,-10,cs),
(251,-10,o),
(311,40,o),
(311,114,cs),
(311,178,o),
(271,209,o),
(178,233,cs),
(116,249,o),
(92,272,o),
(92,307,cs),
(92,345,o),
(120,385,o),
(173,385,cs),
(207,385,o),
(238,370,o),
(250,356,c),
(241,269,l),
(244,267,l),
(289,344,l),
(267,379,o),
(214,410,o),
(173,410,cs),
(99,410,o),
(42,364,o),
(42,296,cs),
(42,247,o),
(82,212,o),
(169,188,cs),
(237,168,o),
(263,140,o),
(263,99,cs),
(263,55,o),
(227,25,o),
(172,25,cs),
(127,25,o),
(90,46,o),
(64,87,c),
(79,183,l),
(76,185,l),
(30,110,l)
);
}
);
width = 333;
},
{
associatedMasterId = m002;
layerId = "BA7F7503-4E9C-4E5E-B236-5AE65E5868B4";
name = "Apr 9 20, 10:23";
shapes = (
{
closed = 1;
nodes = (
(142,1,o),
(253,-24,o),
(341,-22,cs),
(515,-18,o),
(610,30,o),
(610,113,cs),
(610,193,o),
(536,225,o),
(348,227,cs),
(174,229,o),
(114,252,o),
(114,315,cs),
(114,378,o),
(206,421,o),
(327,422,cs),
(410,423,o),
(478,402,o),
(527,366,c),
(524,257,l),
(528,255,l),
(592,360,l),
(526,409,o),
(434,440,o),
(342,439,cs),
(192,438,o),
(94,390,o),
(94,309,cs),
(94,238,o),
(158,212,o),
(337,210,cs),
(525,208,o),
(589,182,o),
(589,108,cs),
(589,41,o),
(502,0,o),
(356,-2,cs),
(281,-3,o),
(199,13,o),
(120,43,c),
(122,159,l),
(118,161,l),
(50,44,l)
);
}
);
width = 650;
},
{
anchors = (
{
name = bottom;
pos = (176,0);
},
{
name = top;
pos = (176,400);
}
);
layerId = m003;
shapes = (
{
closed = 1;
nodes = (
(42,2,o),
(95,-19,o),
(164,-19,cs),
(254,-19,o),
(322,33,o),
(322,105,cs),
(322,163,o),
(295,197,o),
(215,227,cs),
(153,250,ls),
(108,267,o),
(92,292,o),
(92,328,cs),
(92,358,o),
(119,388,o),
(176,388,cs),
(199,388,o),
(221,383,o),
(233,377,c),
(253,273,l),
(261,271,l),
(297,399,l),
(258,414,o),
(216,422,o),
(179,422,cs),
(92,422,o),
(43,374,o),
(43,305,cs),
(43,256,o),
(72,208,o),
(133,185,cs),
(189,164,ls),
(253,140,o),
(273,117,o),
(273,89,cs),
(273,44,o),
(221,23,o),
(168,23,cs),
(135,23,o),
(108,29,o),
(83,42,c),
(69,149,l),
(61,151,l),
(25,16,l)
);
}
);
width = 352;
},
{
associatedMasterId = m003;
layerId = "EDA54878-57F1-4267-832D-43A7F4D5DFB3";
name = "Mar 15 18, 20:19";
shapes = (
{
closed = 1;
nodes = (
(638,336,l),
(564,396,o),
(454,431,o),
(342,431,cs),
(189,431,o),
(98,364,o),
(98,305,cs),
(98,220,o),
(193,195,o),
(354,195,cs),
(486,195,o),
(608,166,o),
(608,120,cs),
(608,63,o),
(525,30,o),
(384,30,cs),
(270,30,o),
(160,65,o),
(88,124,c),
(50,115,l),
(137,33,o),
(273,-15,o),
(416,-15,cs),
(578,-15,o),
(673,41,o),
(673,136,cs),
(673,205,o),
(564,255,o),
(387,255,cs),
(243,255,o),
(158,266,o),
(158,317,cs),
(158,374,o),
(235,401,o),
(366,401,cs),
(475,401,o),
(557,368,o),
(608,321,c)
);
},
{
closed = 1;
nodes = (
(554,263,l),
(560,260,l),
(638,336,l),
(568,374,l)
);
},
{
closed = 1;
nodes = (
(141,195,l),
(135,198,l),
(50,115,l),
(123,91,l)
);
}
);
width = 723;
},
{
associatedMasterId = m003;
layerId = "0BC0AD84-CFF7-4A1B-B495-CEC1E5F1F38F";
name = "Mar 15 18, 22:08";
shapes = (
{
closed = 1;
nodes = (
(638,336,l),
(564,396,o),
(454,431,o),
(342,431,cs),
(189,431,o),
(98,367,o),
(98,296,cs),
(98,223,o),
(193,195,o),
(354,195,cs),
(486,195,o),
(608,183,o),
(608,120,cs),
(608,55,o),
(515,25,o),
(399,25,cs),
(293,25,o),
(176,49,o),
(75,143,c),
(56,124,l),
(143,38,o),
(255,-10,o),
(431,-10,cs),
(554,-10,o),
(673,30,o),
(673,145,cs),
(673,215,o),
(564,255,o),
(387,255,cs),
(243,255,o),
(158,266,o),
(158,317,cs),
(158,374,o),
(235,401,o),
(366,401,cs),
(475,401,o),
(557,368,o),
(608,321,c)
);
},
{
closed = 1;
nodes = (
(554,263,l),
(560,260,l),
(638,336,l),
(568,374,l)
);
},
{
closed = 1;
nodes = (
(138,214,l),
(132,216,l),
(56,124,l),
(129,97,l)
);
}
);
width = 723;
},
{
associatedMasterId = m003;
layerId = "EB258407-866C-4740-A8A4-0039E96C1A7D";
name = "Mar 16 18, 00:42";
shapes = (
{
closed = 1;
nodes = (
(125,29,o),
(253,-10,o),
(379,-10,cs),
(552,-10,o),
(673,32,o),
(673,135,cs),
(673,221,o),
(591,255,o),
(387,255,cs),
(218,255,o),
(151,273,o),
(151,317,cs),
(151,374,o),
(238,401,o),
(379,401,cs),
(455,401,o),
(523,384,o),
(575,357,c),
(581,270,l),
(587,268,l),
(647,351,l),
(567,403,o),
(456,431,o),
(379,431,cs),
(191,431,o),
(106,367,o),
(106,296,cs),
(106,224,o),
(183,195,o),
(374,195,cs),
(555,195,o),
(628,174,o),
(628,120,cs),
(628,55,o),
(515,25,o),
(379,25,cs),
(309.783,25,o),
(210.122,37.955,o),
(129.022,84.199,c),
(131,193,l),
(125,195,l),
(54,100,l)
);
}
);
width = 723;
},
{
associatedMasterId = m003;
layerId = "673AC618-8236-48B5-8D6C-248177E1260E";
name = "Mar 18 18, 23:08";
shapes = (
{
closed = 1;
nodes = (
(93,39,o),
(206,-10,o),
(347,-10,cs),
(520,-10,o),
(641,32,o),
(641,135,cs),
(641,221,o),
(559,255,o),
(355,255,cs),
(186,255,o),
(124,273,o),
(124,317,cs),
(124,374,o),
(206,396,o),
(347,396,cs),
(423,396,o),
(491,384,o),
(543,357,c),
(543,270,l),
(547,268,l),
(615,361,l),
(535,413,o),
(424,431,o),
(347,431,cs),
(159,431,o),
(74,367,o),
(74,296,cs),
(74,224,o),
(151,195,o),
(342,195,cs),
(523,195,o),
(591,173,o),
(591,120,cs),
(591,55,o),
(483,30,o),
(347,30,cs),
(263,30,o),
(178,48,o),
(97,94,c),
(97,203,l),
(93,205,l),
(22,110,l)
);
}
);
width = 663;
},
{
associatedMasterId = m003;
layerId = "A512FE58-1A50-4004-8EA0-25E83F398B15";
name = "Mar 15 18, 20:19";
shapes = (
{
closed = 1;
nodes = (
(638,336,l),
(564,396,o),
(454,431,o),
(342,431,cs),
(189,431,o),
(98,364,o),
(98,305,cs),
(98,220,o),
(193,195,o),
(354,195,cs),
(486,195,o),
(608,166,o),
(608,120,cs),
(608,63,o),
(525,30,o),
(384,30,cs),
(270,30,o),
(160,65,o),
(88,124,c),
(50,115,l),
(137,33,o),
(273,-15,o),
(416,-15,cs),
(578,-15,o),
(673,41,o),
(673,136,cs),
(673,205,o),
(564,255,o),
(387,255,cs),
(243,255,o),
(158,266,o),
(158,317,cs),
(158,374,o),
(235,401,o),
(366,401,cs),
(475,401,o),
(557,368,o),
(608,321,c)
);
},
{
closed = 1;
nodes = (
(554,263,l),
(560,260,l),
(638,336,l),
(568,374,l)
);
},
{
closed = 1;
nodes = (
(141,195,l),
(135,198,l),
(50,115,l),
(123,91,l)
);
}
);
width = 723;
},
{
associatedMasterId = m003;
layerId = "4C31A2CF-AC9C-40E0-A26F-7F6C695A827D";
name = "Mar 15 18, 22:08";
shapes = (
{
closed = 1;
nodes = (
(638,336,l),
(564,396,o),
(454,431,o),
(342,431,cs),
(189,431,o),
(98,367,o),
(98,296,cs),
(98,223,o),
(193,195,o),
(354,195,cs),
(486,195,o),
(608,183,o),
(608,120,cs),
(608,55,o),
(515,25,o),
(399,25,cs),
(293,25,o),
(176,49,o),
(75,143,c),
(56,124,l),
(143,38,o),
(255,-10,o),
(431,-10,cs),
(554,-10,o),
(673,30,o),
(673,145,cs),
(673,215,o),
(564,255,o),
(387,255,cs),
(243,255,o),
(158,266,o),
(158,317,cs),
(158,374,o),
(235,401,o),
(366,401,cs),
(475,401,o),
(557,368,o),
(608,321,c)
);
},
{
closed = 1;
nodes = (
(554,263,l),
(560,260,l),
(638,336,l),
(568,374,l)
);
},
{
closed = 1;
nodes = (
(138,214,l),
(132,216,l),
(56,124,l),
(129,97,l)
);
}
);
width = 723;
},
{
associatedMasterId = m003;
layerId = "99D6F292-BBD1-4709-AD5B-CAA8970F9614";
name = "Mar 16 18, 00:42";
shapes = (
{
closed = 1;
nodes = (
(125,29,o),
(253,-10,o),
(379,-10,cs),
(552,-10,o),
(673,32,o),
(673,135,cs),
(673,221,o),
(591,255,o),
(387,255,cs),
(218,255,o),
(151,273,o),
(151,317,cs),
(151,374,o),
(238,401,o),
(379,401,cs),
(455,401,o),
(523,384,o),
(575,357,c),
(581,270,l),
(587,268,l),
(647,351,l),
(567,403,o),
(456,431,o),
(379,431,cs),
(191,431,o),
(106,367,o),
(106,296,cs),
(106,224,o),
(183,195,o),
(374,195,cs),
(555,195,o),
(628,174,o),
(628,120,cs),
(628,55,o),
(515,25,o),
(379,25,cs),
(309.783,25,o),
(210.122,37.955,o),
(129.022,84.199,c),
(131,193,l),
(125,195,l),
(54,100,l)
);
}
);
width = 723;
},
{
associatedMasterId = m003;
layerId = "A395F81E-ADCA-44AC-A600-9D93CF82E70C";
name = "Mar 18 18, 23:08";
shapes = (
{
closed = 1;
nodes = (
(93,39,o),
(206,-10,o),
(347,-10,cs),
(520,-10,o),
(641,32,o),
(641,135,cs),
(641,221,o),
(559,255,o),
(355,255,cs),
(186,255,o),
(124,273,o),
(124,317,cs),
(124,374,o),
(206,396,o),
(347,396,cs),
(423,396,o),
(491,384,o),
(543,357,c),
(543,270,l),
(547,268,l),
(615,361,l),
(535,413,o),
(424,431,o),
(347,431,cs),
(159,431,o),
(74,367,o),
(74,296,cs),
(74,224,o),
(151,195,o),
(342,195,cs),
(523,195,o),
(591,173,o),
(591,120,cs),
(591,55,o),
(483,30,o),
(347,30,cs),
(263,30,o),
(178,48,o),
(97,94,c),
(97,203,l),
(93,205,l),
(22,110,l)
);
}
);
width = 663;
},
{
associatedMasterId = m003;
layerId = "D544830F-FBFF-4AEC-822F-927925785249";
name = "Mar 16 18, 00:46";
shapes = (
{
closed = 1;
nodes = (
(61,35,o),
(114,-10,o),
(172,-10,cs),
(251,-10,o),
(303,40,o),
(303,114,cs),
(303,178,o),
(271,209,o),
(178,233,cs),
(116,249,o),
(92,272,o),
(92,307,cs),
(92,345,o),
(120,385,o),
(173,385,cs),
(207,385,o),
(238,370,o),
(250,356,c),
(241,269,l),
(244,267,l),
(289,344,l),
(267,379,o),
(214,410,o),
(173,410,cs),
(99,410,o),
(52,354,o),
(52,286,cs),
(52,237,o),
(82,212,o),
(169,188,cs),
(237,168,o),
(263,140,o),
(263,99,cs),
(263,55,o),
(227,25,o),
(172,25,cs),
(127,25,o),
(90,46,o),
(64,87,c),
(79,183,l),
(76,185,l),
(30,110,l)
);
}
);
width = 333;
},
{
associatedMasterId = m003;
layerId = "EFB4DC29-89D7-4852-B81E-D76D1503001E";
name = "Mar 18 18, 23:08";
shapes = (
{
closed = 1;
nodes = (
(61,35,o),
(114,-10,o),
(172,-10,cs),
(251,-10,o),
(311,40,o),
(311,114,cs),
(311,178,o),
(271,209,o),
(178,233,cs),
(116,249,o),
(92,272,o),
(92,307,cs),
(92,345,o),
(120,385,o),
(173,385,cs),
(207,385,o),
(238,370,o),
(250,356,c),
(241,269,l),
(244,267,l),
(289,344,l),
(267,379,o),
(214,410,o),
(173,410,cs),
(99,410,o),
(42,364,o),
(42,296,cs),
(42,247,o),
(82,212,o),
(169,188,cs),
(237,168,o),
(263,140,o),
(263,99,cs),
(263,55,o),
(227,25,o),
(172,25,cs),
(127,25,o),
(90,46,o),
(64,87,c),
(79,183,l),
(76,185,l),
(30,110,l)
);
}
);
width = 333;
},
{
associatedMasterId = m003;
layerId = "0BAB694C-BBC7-4B1F-8CDB-A6434A7641C4";
name = "Apr 9 20, 10:23";
shapes = (
{
closed = 1;
nodes = (
(142,1,o),
(253,-24,o),
(341,-22,cs),
(515,-18,o),
(610,30,o),
(610,113,cs),
(610,193,o),
(536,225,o),
(348,227,cs),
(174,229,o),
(114,252,o),
(114,315,cs),
(114,378,o),
(206,421,o),
(327,422,cs),
(410,423,o),
(478,402,o),
(527,366,c),
(524,257,l),
(528,255,l),
(592,360,l),
(526,409,o),
(434,440,o),
(342,439,cs),
(192,438,o),
(94,390,o),
(94,309,cs),
(94,238,o),
(158,212,o),
(337,210,cs),
(525,208,o),
(589,182,o),
(589,108,cs),
(589,41,o),
(502,0,o),
(356,-2,cs),
(281,-3,o),
(199,13,o),
(120,43,c),
(122,159,l),
(118,161,l),
(50,44,l)
);
}
);
width = 650;
},
{
anchors = (
{
name = bottom;
pos = (195,0);
},
{
name = top;
pos = (175,400);
}
);
associatedMasterId = m003;
layerId = "784B4BCC-0362-4353-BADE-DA39B8ACE754";
name = "3 Mar 22, 11:42";
shapes = (
{
closed = 1;
nodes = (
(54,-3,o),
(118,-19,o),
(165,-19,cs),
(251,-19,o),
(318,38,o),
(317,110,cs),
(317,158,o),
(287,192,o),
(205,227,cs),
(152,250,ls),
(112,267,o),
(87,298,o),
(87,327,cs),
(87,361,o),
(123,390,o),
(168,392,cs),
(183,393,o),
(213,387,o),
(231,379,c),
(251,275,l),
(259,273,l),
(293,398,l),
(272,409,o),
(215,420,o),
(178,420,cs),
(101,420,o),
(46,374,o),
(46,309,cs),
(46,260,o),
(75,224,o),
(142,195,cs),
(195,172,ls),
(247,149,o),
(275,120,o),
(275,90,cs),
(275,52,o),
(232,18,o),
(182,16,cs),
(154,15,o),
(108,23,o),
(92,32,c),
(72,140,l),
(64,142,l),
(30,15,l)
);
}
);
width = 353;
},
{
anchors = (
{
name = bottom;
pos = (149,0);
},
{
name = top;
pos = (149,400);
}
);
layerId = "2C26E880-80A5-4D19-8A94-7D905A372841";
shapes = (
{
closed = 1;
nodes = (
(62,-10,o),
(106,-20,o),
(147,-20,cs),
(224,-20,o),
(275,30,o),
(275,95,cs),
(275,150,o),
(242,187,o),
(186,210,cs),
(129,234,ls),
(73,257,o),
(59,283,o),
(65,323,cs),
(70,361,o),
(100,389,o),
(147,389,cs),
(164,389,o),
(181,385,o),
(193,378,c),
(209,277,l),
(217,275,l),
(246,393,l),
(223,405,o),
(188,412,o),
(152,412,cs),
(85,412,o),
(41,370,o),
(36,314,cs),
(32,266,o),
(52,230,o),
(117,203,cs),
(167,182,ls),
(221,160,o),
(246,136,o),
(246,85,cs),
(246,43,o),
(212,9,o),
(157,7,cs),
(125,6,o),
(94,12,o),
(79,22,c),
(62,132,l),
(54,134,l),
(25,9,l)
);
}
);
width = 298;
},
{
anchors = (
{
name = bottom;
pos = (165,0);
},
{
name = top;
pos = (165,400);
}
);
associatedMasterId = m003;
layerId = "152F78D0-87B7-4CDE-AB27-7005ACCD80EF";
name = "18 Sep 22, 12:22";
shapes = (
{
closed = 1;
nodes = (
(44,-3,o),
(108,-19,o),
(155,-19,cs),
(242,-19,o),
(308,37,o),
(307,110,cs),
(307,163,o),
(271,205,o),
(195,232,cs),
(142,251,ls),
(105,264,o),
(81,292,o),
(81,323,cs),
(81,364,o),
(108,386,o),
(155,388,cs),
(175,389,o),
(203,385,o),
(221,378,c),
(241,275,l),
(249,273,l),
(283,398,l),
(262,409,o),
(204,420,o),
(168,420,cs),
(90,420,o),
(36,373,o),
(36,305,cs),
(36,253,o),
(69,209,o),
(132,186,cs),
(185,167,ls),
(242,147,o),
(262,123,o),
(262,90,cs),
(262,52,o),
(222,22,o),
(172,20,cs),
(144,19,o),
(98,27,o),
(82,36,c),
(62,140,l),
(54,142,l),
(20,15,l)
);
}
);
width = 332;
},
{
anchors = (
{
name = bottom;
pos = (165,0);
},
{
name = top;
pos = (165,400);
}
);
associatedMasterId = m003;
layerId = "6B2F2DD3-80B2-4599-A21A-2B6532ECB182";
name = "18 Sep 22, 12:22";
shapes = (
{
closed = 1;
nodes = (
(44,-3,o),
(108,-19,o),
(155,-19,cs),
(242,-19,o),
(308,37,o),
(307,110,cs),
(307,163,o),
(271,205,o),
(195,232,cs),
(142,251,ls),
(105,264,o),
(81,292,o),
(81,323,cs),
(81,364,o),
(108,386,o),
(155,388,cs),
(175,389,o),
(203,385,o),
(221,378,c),
(241,275,l),
(249,273,l),
(283,398,l),
(262,409,o),
(204,420,o),
(168,420,cs),
(90,420,o),
(36,373,o),
(36,305,cs),
(36,253,o),
(69,209,o),
(132,186,cs),
(185,167,ls),
(242,147,o),
(262,123,o),
(262,90,cs),
(262,52,o),
(222,22,o),
(172,20,cs),
(144,19,o),
(98,27,o),
(82,36,c),
(62,140,l),
(54,142,l),
(20,15,l)
);
}
);
width = 332;
},
{
anchors = (
{
name = bottom;
pos = (149,0);
},
{
name = top;
pos = (149,400);
}
);
associatedMasterId = "2C26E880-80A5-4D19-8A94-7D905A372841";
layerId = "6D340C84-BB39-4D8B-9F60-554340FEAD5F";
name = "20 Sep 22, 22:13";
shapes = (
{
closed = 1;
nodes = (
(62,-13,o),
(106,-20,o),
(147,-20,cs),
(224,-20,o),
(275,31,o),
(275,106,cs),
(275,159,o),
(246,191,o),
(178,216,cs),
(129,234,ls),
(88,249,o),
(65,281,o),
(65,318,cs),
(65,359,o),
(100,389,o),
(147,389,cs),
(161,389,o),
(177,387,o),
(189,384,c),
(209,283,l),
(217,281,l),
(242,401,l),
(219,407,o),
(182,412,o),
(152,412,cs),
(85,412,o),
(36,368,o),
(36,309,cs),
(36,258,o),
(61,224,o),
(117,203,cs),
(167,184,ls),
(225,162,o),
(246,136,o),
(246,96,cs),
(246,44,o),
(212,9,o),
(157,7,cs),
(132,6,o),
(98,10,o),
(82,16,c),
(62,132,l),
(54,134,l),
(28,4,l)
);
}
);
width = 308;
},
{
anchors = (
{
name = bottom;
pos = (169,0);
},
{
name = top;
pos = (169,400);
}
);
associatedMasterId = m003;
layerId = "02DA498D-356B-4540-BE39-BEF0FE31E047";
name = "20 Sep 22, 22:18";
shapes = (
{
closed = 1;
nodes = (
(35,2,o),
(88,-19,o),
(157,-19,cs),
(247,-19,o),
(315,39,o),
(315,111,cs),
(315,167,o),
(273,210,o),
(199,236,cs),
(145,255,ls),
(106,269,o),
(85,297,o),
(85,324,cs),
(85,365,o),
(110,385,o),
(157,388,cs),
(174,389,o),
(211,385,o),
(229,377,c),
(249,273,l),
(257,271,l),
(293,399,l),
(254,414,o),
(209,422,o),
(172,422,cs),
(91,422,o),
(36,374,o),
(36,304,cs),
(36,252,o),
(71,205,o),
(136,182,cs),
(190,163,ls),
(246,143,o),
(266,120,o),
(266,89,cs),
(266,52,o),
(221,25,o),
(175,23,cs),
(136,21,o),
(104,27,o),
(76,42,c),
(62,151,l),
(54,153,l),
(18,16,l)
);
}
);
width = 338;
},
{
anchors = (
{
name = bottom;
pos = (169,0);
},
{
name = top;
pos = (169,400);
}
);
associatedMasterId = m003;
layerId = "B2A42B68-46B8-4EA4-9CAE-584843E96595";
name = "20 Sep 22, 22:18";
shapes = (
{
closed = 1;
nodes = (
(35,2,o),
(88,-19,o),
(157,-19,cs),
(247,-19,o),
(315,39,o),
(315,111,cs),
(315,167,o),
(273,210,o),
(199,236,cs),
(145,255,ls),
(106,269,o),
(85,297,o),
(85,324,cs),
(85,365,o),
(110,385,o),
(157,388,cs),
(174,389,o),
(211,385,o),
(229,377,c),
(249,273,l),
(257,271,l),
(293,399,l),
(254,414,o),
(209,422,o),
(172,422,cs),
(91,422,o),
(36,374,o),
(36,304,cs),
(36,252,o),
(71,205,o),
(136,182,cs),
(190,163,ls),
(246,143,o),
(266,120,o),
(266,89,cs),
(266,52,o),
(221,25,o),
(175,23,cs),
(136,21,o),
(104,27,o),
(76,42,c),
(62,151,l),
(54,153,l),
(18,16,l)
);
}
);
width = 338;
}
);
unicode = 115;
}
{
glyphname = braceleft;
layers = (
{
layerId = "0CCC0E2D-406A-4672-8E6C-854B1DF78A27";
shapes = (
{
closed = 1;
nodes = (
(224,616,o),
(244,640,o),
(386,702,c),
(378,720,l),
(233,673,o),
(191,631,o),
(191,510,cs),
(191,411,ls),
(191,349,o),
(139,305,o),
(80,305,c),
(80,290,l),
(136,290,o),
(191,238,o),
(191,173,cs),
(191,74,ls),
(191,-47,o),
(232,-89,o),
(378,-136,c),
(386,-118,l),
(244,-56,o),
(224,-32,o),
(224,73,cs),
(224,167,ls),
(224,262,o),
(181,307,o),
(109,306,c),
(109,292,l),
(174,291,o),
(224,337,o),
(224,417,cs),
(224,511,ls)
);
}
);
width = 433;
},
{
associatedMasterId = "0CCC0E2D-406A-4672-8E6C-854B1DF78A27";
layerId = "C7059A52-25B5-4743-81E4-1F3B33775E62";
name = "28 Dec 21, 09:43";
shapes = (
{
closed = 1;
nodes = (
(328,-117,l),
(330,-109,l),
(150,-52,ls),
(96,-35,o),
(152,101,o),
(152,186,cs),
(152,225,o),
(141,254,o),
(80,292,c),
(142,325,o),
(152,358,o),
(152,390,cs),
(152,453,o),
(90,616,o),
(150,635,cs),
(330,692,l),
(328,700,l),
(165,700,ls),
(42,700,o),
(55,643,o),
(55,600,cs),
(55,527,o),
(75,424,o),
(75,350,cs),
(75,332,o),
(65,315,o),
(15,297,c),
(15,287,l),
(65,269,o),
(75,252,o),
(75,234,cs),
(75,150,o),
(55,67,o),
(55,-17,cs),
(55,-50,o),
(52,-117,o),
(165,-117,cs)
);
}
);
width = 600;
},
{
associatedMasterId = "0CCC0E2D-406A-4672-8E6C-854B1DF78A27";
layerId = "4DF0A38D-7B8A-46F8-9657-C62B9213AFE6";
name = "7 Jan 22, 11:58";
shapes = (
{
closed = 1;
nodes = (
(156,267,o),
(188,227,o),
(185,162,cs),
(180,58,ls),
(174,-64,o),
(218,-117,o),
(323,-117,cs),
(333,-117,o),
(343,-117,o),
(353,-117,c),
(353,-83,l),
(266,-74,o),
(226,-44,o),
(236,35,cs),
(253,167,ls),
(264,252,o),
(218,299,o),
(137,305,c),
(138,298,l),
(215,307,o),
(264,351,o),
(253,416,cs),
(230,558,ls),
(214,654,o),
(276,665,o),
(353,656,c),
(353,700,l),
(323,700,ls),
(221,700,o),
(166,635,o),
(176,525,cs),
(186,411,ls),
(192,341,o),
(151,317,o),
(100,317,c),
(100,267,l)
);
}
);
width = 353;
},
{
layerId = m002;
shapes = (
{
closed = 1;
nodes = (
(250,630,o),
(273,648,o),
(396,702,c),
(388,720,l),
(241,686,o),
(167,626,o),
(167,510,cs),
(167,411,ls),
(167,348,o),
(152,305,o),
(64,305,c),
(64,290,l),
(154,290,o),
(167,235,o),
(167,173,cs),
(167,74,ls),
(167,-37,o),
(234,-100,o),
(388,-136,c),
(396,-118,l),
(273,-64,o),
(250,-46,o),
(250,73,cs),
(250,167,ls),
(250,261,o),
(192,307,o),
(89,306,c),
(89,292,l),
(187,291,o),
(250,341,o),
(250,417,cs),
(250,511,ls)
);
}
);
width = 432;
},
{
associatedMasterId = m002;
layerId = "45F2041B-2422-4FAD-8944-F2531F7BF7F4";
name = "28 Dec 21, 09:43";
shapes = (
{
closed = 1;
nodes = (
(328,-117,l),
(330,-109,l),
(150,-52,ls),
(96,-35,o),
(152,101,o),
(152,186,cs),
(152,225,o),
(141,254,o),
(80,292,c),
(142,325,o),
(152,358,o),
(152,390,cs),
(152,453,o),
(90,616,o),
(150,635,cs),
(330,692,l),
(328,700,l),
(165,700,ls),
(42,700,o),
(55,643,o),
(55,600,cs),
(55,527,o),
(75,424,o),
(75,350,cs),
(75,332,o),
(65,315,o),
(15,297,c),
(15,287,l),
(65,269,o),
(75,252,o),
(75,234,cs),
(75,150,o),
(55,67,o),
(55,-17,cs),
(55,-50,o),
(52,-117,o),
(165,-117,cs)
);
}
);
width = 600;
},
{
associatedMasterId = m002;
layerId = "EC80D826-2726-42F7-A75F-211994673E33";
name = "7 Jan 22, 11:58";
shapes = (
{
closed = 1;
nodes = (
(156,267,o),
(188,227,o),
(185,162,cs),
(180,58,ls),
(174,-64,o),
(218,-117,o),
(323,-117,cs),
(333,-117,o),
(343,-117,o),
(353,-117,c),
(353,-83,l),
(266,-74,o),
(226,-44,o),
(236,35,cs),
(253,167,ls),
(264,252,o),
(218,299,o),
(137,305,c),
(138,298,l),
(215,307,o),
(264,351,o),
(253,416,cs),
(230,558,ls),
(214,654,o),
(276,665,o),
(353,656,c),
(353,700,l),
(323,700,ls),
(221,700,o),
(166,635,o),
(176,525,cs),
(186,411,ls),
(192,341,o),
(151,317,o),
(100,317,c),
(100,267,l)
);
}
);
width = 353;
},
{
layerId = m003;
shapes = (
{
closed = 1;
nodes = (
(220,640,o),
(240,642,o),
(319,692,c),
(311,710,l),
(199,676,o),
(153,623,o),
(153,510,cs),
(153,411,ls),
(153,341,o),
(123,305,o),
(68,305,c),
(68,290,l),
(120,290,o),
(153,244,o),
(153,173,cs),
(153,74,ls),
(153,-39,o),
(199,-92,o),
(311,-126,c),
(319,-108,l),
(237,-60,o),
(220,-51,o),
(220,73,cs),
(220,167,ls),
(220,255,o),
(176,307,o),
(93,306,c),
(93,292,l),
(161,291,o),
(220,336,o),
(220,417,cs),
(220,511,ls)
);
}
);
width = 358;
},
{
associatedMasterId = m003;
layerId = "A48EB3F8-23BD-4CA4-8AA2-DCB112F039A5";
name = "28 Dec 21, 09:43";
shapes = (
{
closed = 1;
nodes = (
(328,-117,l),
(330,-109,l),
(150,-52,ls),
(96,-35,o),
(152,101,o),
(152,186,cs),
(152,225,o),
(141,254,o),
(80,292,c),
(142,325,o),
(152,358,o),
(152,390,cs),
(152,453,o),
(90,616,o),
(150,635,cs),
(330,692,l),
(328,700,l),
(165,700,ls),
(42,700,o),
(55,643,o),
(55,600,cs),
(55,527,o),
(75,424,o),
(75,350,cs),
(75,332,o),
(65,315,o),
(15,297,c),
(15,287,l),
(65,269,o),
(75,252,o),
(75,234,cs),
(75,150,o),
(55,67,o),
(55,-17,cs),
(55,-50,o),
(52,-117,o),
(165,-117,cs)
);
}
);
width = 600;
},
{
associatedMasterId = m003;
layerId = "30CF7A1B-C84E-4452-9655-4316CFFB576A";
name = "7 Jan 22, 11:58";
shapes = (
{
closed = 1;
nodes = (
(156,267,o),
(188,227,o),
(185,162,cs),
(180,58,ls),
(174,-64,o),
(218,-117,o),
(323,-117,cs),
(333,-117,o),
(343,-117,o),
(353,-117,c),
(353,-83,l),
(266,-74,o),
(226,-44,o),
(236,35,cs),
(253,167,ls),
(264,252,o),
(218,299,o),
(137,305,c),
(138,298,l),
(215,307,o),
(264,351,o),
(253,416,cs),
(230,558,ls),
(214,654,o),
(276,665,o),
(353,656,c),
(353,700,l),
(323,700,ls),
(221,700,o),
(166,635,o),
(176,525,cs),
(186,411,ls),
(192,341,o),
(151,317,o),
(100,317,c),
(100,267,l)
);
}
);
width = 353;
},
{
layerId = "2C26E880-80A5-4D19-8A94-7D905A372841";
shapes = (
{
closed = 1;
nodes = (
(200,629,o),
(217,648,o),
(311,692,c),
(303,710,l),
(207,668,o),
(170,638,o),
(170,510,cs),
(170,411,ls),
(170,342,o),
(113,305,o),
(79,305,c),
(79,290,l),
(111,290,o),
(170,263,o),
(170,173,cs),
(170,74,ls),
(170,-54,o),
(207,-84,o),
(303,-126,c),
(311,-108,l),
(217,-54,o),
(200,-45,o),
(200,73,cs),
(200,167,ls),
(200,264,o),
(160,307,o),
(108,306,c),
(108,292,l),
(154,291,o),
(200,336,o),
(200,417,cs),
(200,511,ls)
);
}
);
width = 357;
}
);
unicode = 123;
}
{
glyphname = asciitilde;
layers = (
{
layerId = "0CCC0E2D-406A-4672-8E6C-854B1DF78A27";
shapes = (
{
closed = 1;
nodes = (
(300,270,ls),
(314,263,o),
(332,259,o),
(350,259,cs),
(380,259,o),
(394,282,o),
(394,328,c),
(422,328,l),
(422,266,o),
(394,230,o),
(346,230,cs),
(326,230,o),
(304,237,o),
(277,249,cs),
(194,287,ls),
(177,295,o),
(162,299,o),
(148,299,cs),
(115,299,o),
(98,276,o),
(98,230,c),
(70,230,l),
(70,292,o),
(98,328,o),
(146,328,cs),
(166,328,o),
(188,321,o),
(215,309,cs)
);
}
);
width = 492;
},
{
layerId = m002;
shapes = (
{
closed = 1;
nodes = (
(354,279,ls),
(368,272,o),
(380,268,o),
(388,268,cs),
(439,268,o),
(453,294,o),
(453,342,c),
(514,342,l),
(514,260,o),
(471,210,o),
(384,210,cs),
(363,210,o),
(346,214,o),
(315,229,cs),
(214,279,ls),
(200,286,o),
(188,290,o),
(177,290,cs),
(127,290,o),
(115,264,o),
(115,217,c),
(54,217,l),
(54,298,o),
(98,348,o),
(184,348,cs),
(205,348,o),
(225,343,o),
(253,329,cs)
);
}
);
width = 568;
},
{
layerId = m003;
shapes = (
{
closed = 1;
nodes = (
(316,277,ls),
(328,271,o),
(340,268,o),
(350,268,cs),
(394,268,o),
(406,291,o),
(406,333,c),
(454,333,l),
(454,263,o),
(418,220,o),
(346,220,cs),
(328,220,o),
(310,224,o),
(284,237,cs),
(195,281,ls),
(181,288,o),
(170,291,o),
(161,291,cs),
(118,291,o),
(107,267,o),
(107,225,c),
(58,225,l),
(58,295,o),
(94,338,o),
(166,338,cs),
(185,338,o),
(202,334,o),
(228,321,cs)
);
}
);
width = 512;
},
{
layerId = "2C26E880-80A5-4D19-8A94-7D905A372841";
shapes = (
{
closed = 1;
nodes = (
(275,270,ls),
(287,264,o),
(304,260,o),
(321,260,cs),
(347,260,o),
(359,282,o),
(359,323,c),
(384,323,l),
(384,268,o),
(359,235,o),
(317,235,cs),
(299,235,o),
(279,242,o),
(255,252,cs),
(180,287,ls),
(165,294,o),
(151,298,o),
(138,298,cs),
(109,298,o),
(94,277,o),
(94,235,c),
(69,235,l),
(69,290,o),
(94,323,o),
(137,323,cs),
(155,323,o),
(174,316,o),
(199,306,cs)
);
}
);
width = 453;
}
);
unicode = 126;
}
{
glyphname = sterling;
layers = (
{
layerId = "0CCC0E2D-406A-4672-8E6C-854B1DF78A27";
shapes = (
{
closed = 1;
nodes = (
(60,278,l),
(485,278,l),
(485,308,l),
(60,308,l)
);
},
{
closed = 1;
nodes = (
(444,597,o),
(516,583,o),
(578,569,c),
(595,412,l),
(603,410,l),
(664,587,l),
(579,607,o),
(475,624,o),
(381,623,cs),
(196,621,o),
(133,532,o),
(133,441,cs),
(133,352,o),
(205,276,o),
(205,192,cs),
(205,144,o),
(180,98,o),
(83,29,c),
(104,0,l),
(670,0,l),
(650,201,l),
(642,199,l),
(600,26,l),
(96,26,l),
(111,16,l),
(201,81,o),
(240,136,o),
(240,194,cs),
(240,272,o),
(171,361,o),
(171,452,cs),
(171,536,o),
(243,594,o),
(370,596,cs)
);
}
);
width = 742;
},
{
layerId = m002;
shapes = (
{
closed = 1;
nodes = (
(45,266,l),
(500,266,l),
(500,319,l),
(45,319,l)
);
},
{
closed = 1;
nodes = (
(454,576,o),
(523,566,o),
(584,542,c),
(599,407,l),
(607,405,l),
(668,595,l),
(582,613,o),
(513,623,o),
(395,623,cs),
(210,623,o),
(82,532,o),
(82,441,cs),
(82,352,o),
(154,276,o),
(154,192,cs),
(154,144,o),
(129,98,o),
(32,45,c),
(53,0,l),
(685,0,l),
(665,230,l),
(657,228,l),
(600,55,l),
(81,42,l),
(54,16,l),
(175,81,o),
(258,152,o),
(258,210,cs),
(258,288,o),
(179,377,o),
(179,468,cs),
(179,552,o),
(259,576,o),
(365,576,cs)
);
}
);
width = 741;
},
{
layerId = m003;
shapes = (
{
closed = 1;
nodes = (
(61,271,l),
(330,271,l),
(330,315,l),
(61,315,l)
);
},
{
closed = 1;
nodes = (
(290,577,o),
(324,567,o),
(338,557,c),
(354,415,l),
(361,413,l),
(413,587,l),
(387,602,o),
(339,620,o),
(283,620,cs),
(183,620,o),
(108,571,o),
(108,441,cs),
(108,338,o),
(146,264,o),
(146,195,cs),
(146,133,o),
(118,78,o),
(45,35,c),
(66,0,l),
(415,0,l),
(390,220,l),
(382,218,l),
(337,41,l),
(65,27,l),
(70,7,l),
(172,67,o),
(225,136,o),
(225,209,cs),
(225,272,o),
(187,350,o),
(187,464,cs),
(187,552,o),
(218,577,o),
(260,577,cs)
);
}
);
width = 475;
},
{
layerId = "2C26E880-80A5-4D19-8A94-7D905A372841";
shapes = (
{
closed = 1;
nodes = (
(60,281,l),
(307,281,l),
(307,306,l),
(60,306,l)
);
},
{
closed = 1;
nodes = (
(261,592,o),
(286,588,o),
(298,583,c),
(314,417,l),
(322,415,l),
(375,598,l),
(340,611,o),
(292,620,o),
(255,620,cs),
(170,620,o),
(122,560,o),
(122,441,cs),
(122,323,o),
(179,254,o),
(179,182,cs),
(179,123,o),
(145,78,o),
(72,24,c),
(93,0,l),
(392,0,l),
(371,195,l),
(363,193,l),
(326,32,l),
(87,26,l),
(94,14,l),
(168,60,o),
(212,121,o),
(212,185,cs),
(212,251,o),
(156,357,o),
(156,453,cs),
(156,552,o),
(192,592,o),
(242,592,cs)
);
}
);
width = 462;
}
);
unicode = 163;
}
{
glyphname = currency;
layers = (
{
layerId = "0CCC0E2D-406A-4672-8E6C-854B1DF78A27";
shapes = (
{
closed = 1;
nodes = (
(184,13,o),
(95,90,o),
(95,205,cs),
(95,314,o),
(180,387,o),
(309,387,cs),
(442,387,o),
(531,311,o),
(531,196,cs),
(531,87,o),
(446,13,o),
(318,13,cs)
);
},
{
closed = 1;
nodes = (
(468,-20,o),
(571,70,o),
(571,205,cs),
(571,334,o),
(468,420,o),
(314,420,cs),
(158,420,o),
(56,330,o),
(56,196,cs),
(56,66,o),
(159,-20,o),
(314,-20,cs)
);
},
{
closed = 1;
nodes = (
(39,396,l),
(119,321,l),
(144,345,l),
(64,420,l)
);
},
{
closed = 1;
nodes = (
(472,345,l),
(497,321,l),
(577,396,l),
(552,420,l)
);
},
{
closed = 1;
nodes = (
(578,6,l),
(498,81,l),
(473,57,l),
(553,-18,l)
);
},
{
closed = 1;
nodes = (
(144,57,l),
(119,81,l),
(39,6,l),
(64,-18,l)
);
}
);
width = 609;
},
{
layerId = m002;
shapes = (
{
closed = 1;
nodes = (
(181,34,o),
(99,103,o),
(99,205,cs),
(99,311,o),
(181,379,o),
(308,379,cs),
(432,379,o),
(512,312,o),
(512,210,cs),
(512,103,o),
(430,34,o),
(304,34,cs)
);
},
{
closed = 1;
nodes = (
(472,-20,o),
(583,70,o),
(583,205,cs),
(583,343,o),
(472,434,o),
(306,434,cs),
(138,434,o),
(27,343,o),
(27,210,cs),
(27,72,o),
(140,-20,o),
(306,-20,cs)
);
},
{
closed = 1;
nodes = (
(26,390,l),
(109,318,l),
(156,364,l),
(72,436,l)
);
},
{
closed = 1;
nodes = (
(446,364,l),
(492,318,l),
(575,390,l),
(528,436,l)
);
},
{
closed = 1;
nodes = (
(574,25,l),
(492,97,l),
(444,51,l),
(528,-21,l)
);
},
{
closed = 1;
nodes = (
(156,51,l),
(109,97,l),
(26,25,l),
(72,-21,l)
);
}
);
width = 596;
},
{
layerId = m003;
shapes = (
{
closed = 1;
nodes = (
(154,25,o),
(132,79,o),
(132,205,cs),
(132,327,o),
(153,377,o),
(207,377,cs),
(260,377,o),
(279,332,o),
(279,207,cs),
(279,77,o),
(257,25,o),
(205,25,cs)
);
},
{
closed = 1;
nodes = (
(291,-20,o),
(339,60,o),
(339,205,cs),
(339,347,o),
(292,422,o),
(206,422,cs),
(118,422,o),
(72,349,o),
(72,207,cs),
(72,64,o),
(120,-20,o),
(206,-20,cs)
);
},
{
closed = 1;
nodes = (
(28,385,l),
(96,315,l),
(135,353,l),
(67,422,l)
);
},
{
closed = 1;
nodes = (
(278,353,l),
(316,314,l),
(384,383,l),
(346,422,l)
);
},
{
closed = 1;
nodes = (
(380,18,l),
(311,87,l),
(273,49,l),
(341,-20,l)
);
},
{
closed = 1;
nodes = (
(138,50,l),
(100,88,l),
(32,19,l),
(69,-20,l)
);
}
);
width = 412;
},
{
layerId = "2C26E880-80A5-4D19-8A94-7D905A372841";
shapes = (
{
closed = 1;
nodes = (
(156,9,o),
(130,68,o),
(130,205,cs),
(130,330,o),
(153,383,o),
(209,383,cs),
(270,383,o),
(295,328,o),
(295,197,cs),
(295,67,o),
(272,9,o),
(217,9,cs)
);
},
{
closed = 1;
nodes = (
(296,-20,o),
(332,50,o),
(332,205,cs),
(332,348,o),
(296,412,o),
(213,412,cs),
(131,412,o),
(95,346,o),
(95,197,cs),
(95,47,o),
(131,-20,o),
(213,-20,cs)
);
},
{
closed = 1;
nodes = (
(39,389,l),
(118,314,l),
(142,338,l),
(64,412,l)
);
},
{
closed = 1;
nodes = (
(284,338,l),
(308,314,l),
(387,388,l),
(362,412,l)
);
},
{
closed = 1;
nodes = (
(387,4,l),
(309,78,l),
(284,54,l),
(363,-20,l)
);
},
{
closed = 1;
nodes = (
(143,55,l),
(118,78,l),
(39,4,l),
(64,-20,l)
);
}
);
width = 426;
}
);
unicode = 164;
}
{
glyphname = registered;
layers = (
{
layerId = "0CCC0E2D-406A-4672-8E6C-854B1DF78A27";
shapes = (
{
closed = 1;
nodes = (
(231,-20,o),
(80,120,o),
(80,299,cs),
(80,482,o),
(229,625,o),
(454,625,cs),
(681,625,o),
(832,485,o),
(832,306,cs),
(832,123,o),
(683,-20,o),
(458,-20,cs)
);
},
{
closed = 1;
nodes = (
(244,595,o),
(114,465,o),
(114,299,cs),
(114,137,o),
(255,11,o),
(469,11,cs),
(668,11,o),
(798,141,o),
(798,307,cs),
(798,469,o),
(657,595,o),
(443,595,cs)
);
},
{
closed = 1;
nodes = (
(232,154,l),
(411,154,l),
(413,161,l),
(335,184,l),
(335,293,l),
(529,294,ls),
(610,294,o),
(655,325,o),
(655,381,cs),
(655,436,o),
(602,466,o),
(507,466,cs),
(232,466,l),
(230,459,l),
(307,431,l),
(307,184,l),
(230,160,l)
);
},
{
closed = 1;
nodes = (
(334,443,l),
(492,445,ls),
(590,446,o),
(627,427,o),
(627,374,cs),
(627,332,o),
(593,316,o),
(502,316,cs),
(334,316,l)
);
},
{
closed = 1;
nodes = (
(516,302,l),
(611,184,l),
(533,162,l),
(535,154,l),
(712,154,l),
(714,162,l),
(645,184,l),
(549,302,l)
);
}
);
width = 912;
},
{
layerId = m002;
shapes = (
{
closed = 1;
nodes = (
(219,-12,o),
(64,99,o),
(64,299,cs),
(64,503,o),
(217,617,o),
(470,617,cs),
(723,617,o),
(878,506,o),
(878,306,cs),
(878,102,o),
(724,-12,o),
(474,-12,cs)
);
},
{
closed = 1;
nodes = (
(254,566,o),
(126,473,o),
(126,299,cs),
(126,132,o),
(260,40,o),
(482,40,cs),
(687,40,o),
(816,133,o),
(816,307,cs),
(816,475,o),
(681,566,o),
(460,566,cs)
);
},
{
closed = 1;
nodes = (
(208,154,l),
(420,154,l),
(422,161,l),
(344,184,l),
(344,286,l),
(529,286,ls),
(603,286,o),
(677,324,o),
(677,381,cs),
(677,447,o),
(608,466,o),
(507,466,cs),
(208,466,l),
(206,459,l),
(283,431,l),
(283,184,l),
(206,160,l)
);
},
{
closed = 1;
nodes = (
(343,425,l),
(492,431,ls),
(566,434,o),
(614,417,o),
(614,374,cs),
(614,329,o),
(605,315,o),
(502,319,cs),
(343,325,l)
);
},
{
closed = 1;
nodes = (
(494,302,l),
(589,184,l),
(511,162,l),
(513,154,l),
(728,154,l),
(730,162,l),
(661,184,l),
(565,302,l)
);
}
);
width = 942;
},
{
layerId = m003;
shapes = (
{
closed = 1;
nodes = (
(166,-20,o),
(48,121,o),
(48,300,cs),
(48,479,o),
(162,620,o),
(309,620,cs),
(461,620,o),
(579,481,o),
(579,306,cs),
(579,123,o),
(465,-20,o),
(318,-20,cs)
);
},
{
closed = 1;
nodes = (
(180,578,o),
(99,465,o),
(99,298,cs),
(99,135,o),
(190,23,o),
(328,23,cs),
(447,23,o),
(528,139,o),
(528,309,cs),
(528,469,o),
(436,578,o),
(299,578,cs)
);
},
{
closed = 1;
nodes = (
(176,156,l),
(312,156,l),
(313,160,l),
(272,184,l),
(272,281,l),
(319,281,ls),
(378,281,o),
(422,322,o),
(422,377,cs),
(422,425,o),
(380,464,o),
(327,464,cs),
(176,464,l),
(175,460,l),
(222,437,l),
(222,184,l),
(175,160,l)
);
},
{
closed = 1;
nodes = (
(272,434,l),
(312,434,ls),
(343,434,o),
(370,405,o),
(370,370,cs),
(370,334,o),
(341,307,o),
(307,309,cs),
(272,311,l)
);
},
{
closed = 1;
nodes = (
(313,297,l),
(371,184,l),
(325,160,l),
(326,156,l),
(462,156,l),
(463,160,l),
(421,184,l),
(362,297,l)
);
}
);
width = 627;
},
{
layerId = "2C26E880-80A5-4D19-8A94-7D905A372841";
shapes = (
{
closed = 1;
nodes = (
(152,-20,o),
(60,102,o),
(60,294,cs),
(60,491,o),
(159,620,o),
(310,620,cs),
(453,620,o),
(545,498,o),
(545,306,cs),
(545,109,o),
(447,-20,o),
(297,-20,cs)
);
},
{
closed = 1;
nodes = (
(172,592,o),
(91,480,o),
(91,302,cs),
(91,124,o),
(176,7,o),
(305,7,cs),
(434,7,o),
(515,120,o),
(515,298,cs),
(515,479,o),
(433,592,o),
(302,592,cs)
);
},
{
closed = 1;
nodes = (
(172,156,l),
(288,156,l),
(289,160,l),
(248,184,l),
(248,288,l),
(315,288,ls),
(361,288,o),
(393,329,o),
(393,377,cs),
(393,433,o),
(363,464,o),
(310,464,cs),
(172,464,l),
(171,460,l),
(218,437,l),
(218,184,l),
(171,160,l)
);
},
{
closed = 1;
nodes = (
(248,443,l),
(295,445,ls),
(339,447,o),
(363,420,o),
(363,370,cs),
(363,325,o),
(337,306,o),
(290,308,cs),
(248,310,l)
);
},
{
closed = 1;
nodes = (
(304,297,l),
(362,184,l),
(316,160,l),
(317,156,l),
(434,156,l),
(435,160,l),
(393,184,l),
(334,297,l)
);
}
);
width = 605;
}
);
unicode = 174;
}
{
glyphname = plusminus;
layers = (
{
layerId = "0CCC0E2D-406A-4672-8E6C-854B1DF78A27";
shapes = (
{
closed = 1;
nodes = (
(235,266,l),
(235,129,l),
(266,129,l),
(266,265,l),
(420,265,l),
(420,293,l),
(266,293,l),
(266,430,l),
(236,430,l),
(236,293,l),
(80,293,l),
(80,266,l)
);
},
{
closed = 1;
nodes = (
(70,40,l),
(430,40,l),
(430,68,l),
(70,68,l)
);
}
);
width = 500;
},
{
layerId = m002;
shapes = (
{
closed = 1;
nodes = (
(251,253,l),
(251,100,l),
(314,100,l),
(314,252,l),
(514,252,l),
(514,309,l),
(314,309,l),
(314,462,l),
(252,462,l),
(252,309,l),
(50,309,l),
(50,253,l)
);
},
{
closed = 1;
nodes = (
(72,11,l),
(493,10,l),
(493,73,l),
(72,73,l)
);
}
);
width = 564;
},
{
layerId = m003;
shapes = (
{
closed = 1;
nodes = (
(229,253,l),
(229,118,l),
(280,118,l),
(280,252,l),
(454,252,l),
(454,298,l),
(280,298,l),
(280,434,l),
(230,434,l),
(230,298,l),
(55,298,l),
(55,253,l)
);
},
{
closed = 1;
nodes = (
(70,38,l),
(440,36,l),
(440,88,l),
(70,88,l)
);
}
);
width = 509;
},
{
layerId = "2C26E880-80A5-4D19-8A94-7D905A372841";
shapes = (
{
closed = 1;
nodes = (
(218,263,l),
(218,140,l),
(245,140,l),
(245,262,l),
(384,262,l),
(384,287,l),
(245,287,l),
(245,410,l),
(219,410,l),
(219,287,l),
(79,287,l),
(79,263,l)
);
},
{
closed = 1;
nodes = (
(70,60,l),
(394,60,l),
(394,84,l),
(70,84,l)
);
}
);
width = 463;
}
);
unicode = 177;
}
{
glyphname = onesuperior;
layers = (
{
layerId = "0CCC0E2D-406A-4672-8E6C-854B1DF78A27";
shapes = (
{
closed = 1;
nodes = (
(142,545,l),
(142,288,l),
(34,253,l),
(35,248,l),
(281,248,l),
(282,253,l),
(174,288,l),
(173,620,l),
(30,529,l),
(31,524,l)
);
}
);
width = 312;
},
{
layerId = m002;
shapes = (
{
closed = 1;
nodes = (
(174,554,l),
(174,280,l),
(66,253,l),
(67,248,l),
(349,248,l),
(350,253,l),
(242,280,l),
(242,620,l),
(62,529,l),
(63,524,l)
);
}
);
width = 412;
},
{
layerId = m003;
shapes = (
{
closed = 1;
nodes = (
(93,560,l),
(93,279,l),
(39,253,l),
(40,248,l),
(204,248,l),
(205,253,l),
(151,279,l),
(151,620,l),
(35,543,l),
(36,538,l)
);
}
);
width = 240;
},
{
layerId = "2C26E880-80A5-4D19-8A94-7D905A372841";
shapes = (
{
closed = 1;
nodes = (
(69,552,l),
(69,285,l),
(15,253,l),
(16,248,l),
(152,248,l),
(153,253,l),
(99,285,l),
(98,620,l),
(11,543,l),
(12,538,l)
);
}
);
width = 165;
}
);
unicode = 185;
}
{
glyphname = threequarters;
layers = (
{
layerId = "0CCC0E2D-406A-4672-8E6C-854B1DF78A27";
shapes = (
{
closed = 1;
nodes = (
(1074,120,l),
(645,120,l),
(652,104,l),
(934,340,l),
(919,342,l),
(919,40,l),
(814,5,l),
(816,0,l),
(1028,0,l),
(1030,5,l),
(952,40,l),
(952,321,l),
(1024,355,l),
(1022,360,l),
(919,360,l),
(629,114,l),
(640,94,l),
(1074,94,l)
);
},
{
alignment = -1;
pos = (322,0);
ref = fraction;
},
{
pos = (100,0);
ref = threesuperior;
}
);
width = 1204;
},
{
layerId = m002;
shapes = (
{
closed = 1;
nodes = (
(1162,127,l),
(714,127,l),
(744,100,l),
(1026,328,l),
(977,342,l),
(977,34,l),
(872,5,l),
(873,0,l),
(1126,0,l),
(1126,5,l),
(1048,34,l),
(1048,329,l),
(1120,355,l),
(1120,360,l),
(977,360,l),
(679,119,l),
(690,94,l),
(1162,94,l)
);
},
{
alignment = -1;
pos = (332,0);
ref = fraction;
},
{
pos = (80,0);
ref = threesuperior;
}
);
width = 1261;
},
{
layerId = m003;
shapes = (
{
closed = 1;
nodes = (
(754,123,l),
(525,123,l),
(532,101,l),
(656,352,l),
(644,343,l),
(644,31,l),
(563,5,l),
(564,0,l),
(770,0,l),
(771,5,l),
(705,31,l),
(705,330,l),
(771,355,l),
(770,360,l),
(621,360,l),
(495,114,l),
(518,95,l),
(754,95,l)
);
},
{
alignment = -1;
pos = (272,0);
ref = fraction;
},
{
pos = (90,0);
ref = threesuperior;
}
);
width = 878;
},
{
layerId = "2C26E880-80A5-4D19-8A94-7D905A372841";
shapes = (
{
closed = 1;
nodes = (
(697,118,l),
(483,118,l),
(491,100,l),
(628,357,l),
(612,355,l),
(612,36,l),
(531,5,l),
(533,0,l),
(706,0,l),
(708,5,l),
(642,36,l),
(642,324,l),
(708,355,l),
(706,360,l),
(600,360,l),
(467,110,l),
(490,95,l),
(697,95,l)
);
},
{
alignment = -1;
pos = (259,0);
ref = fraction;
},
{
alignment = -1;
pos = (114,0);
ref = threesuperior;
}
);
width = 828;
}
);
unicode = 190;
}
{
glyphname = AE;
kernLeft = A;
kernRight = E;
layers = (
{
anchors = (
{
name = top;
pos = (742,600);
}
);
layerId = "0CCC0E2D-406A-4672-8E6C-854B1DF78A27";
shapes = (
{
closed = 1;
nodes = (
(627,572,l),
(595,585,l),
(595,50,l),
(405,8,l),
(407,0,l),
(1174,0,l),
(1153,199,l),
(1145,197,l),
(1104,24,l),
(632,25,l),
(632,282,l),
(922,279,l),
(987,157,l),
(995,159,l),
(976,293,l),
(993,428,l),
(985,430,l),
(922,308,l),
(632,305,l),
(632,577,l),
(1100,581,l),
(1124,422,l),
(1132,420,l),
(1171,612,l),
(415,600,l),
(413,592,l),
(611,544,l),
(599,587,l),
(70,49,l),
(-50,7,l),
(-48,-1,l),
(285,-1,l),
(287,7,l),
(112,49,l)
);
},
{
closed = 1;
nodes = (
(230,193,l),
(610,193,l),
(610,223,l),
(267,223,l)
);
}
);
width = 1234;
},
{
anchors = (
{
name = top;
pos = (772,600);
}
);
layerId = m002;
shapes = (
{
closed = 1;
nodes = (
(629,577,l),
(597,590,l),
(597,55,l),
(454,5,l),
(456,0,l),
(1225,0,l),
(1207,232,l),
(1201,230,l),
(1141,57,l),
(693,42,l),
(693,270,l),
(986,267,l),
(1051,145,l),
(1059,147,l),
(1040,293,l),
(1057,440,l),
(1049,442,l),
(986,320,l),
(695,314,l),
(695,559,l),
(1156,551,l),
(1182,392,l),
(1188,390,l),
(1243,612,l),
(374,601,l),
(378,595,l),
(570,549,l),
(587,595,l),
(38,56,l),
(-82,7,l),
(-80,0,l),
(272,0,l),
(274,7,l),
(122,56,l)
);
},
{
closed = 1;
nodes = (
(192,172,l),
(624,172,l),
(624,217,l),
(234,217,l)
);
}
);
width = 1303;
},
{
anchors = (
{
name = top;
pos = (472,600);
}
);
layerId = m003;
shapes = (
{
closed = 1;
nodes = (
(397,560,l),
(378,564,l),
(385,45,l),
(268,8,l),
(270,0,l),
(728,0,l),
(707,219,l),
(699,217,l),
(651,43,l),
(464,33,l),
(460,275,l),
(537,273,l),
(597,151,l),
(605,153,l),
(586,293,l),
(603,435,l),
(595,437,l),
(537,315,l),
(459,313,l),
(456,570,l),
(647,564,l),
(678,403,l),
(686,401,l),
(725,612,l),
(229,600,l),
(227,592,l),
(373,549,l),
(367,598,l),
(37,44,l),
(-33,8,l),
(-31,0,l),
(212,0,l),
(214,8,l),
(94,44,l)
);
},
{
closed = 1;
nodes = (
(154,188,l),
(430,188,l),
(430,225,l),
(176,225,l)
);
}
);
width = 776;
},
{
anchors = (
{
name = top;
pos = (422,600);
}
);
layerId = "2C26E880-80A5-4D19-8A94-7D905A372841";
shapes = (
{
closed = 1;
nodes = (
(396,575,l),
(373,575,l),
(373,45,l),
(243,10,l),
(245,0,l),
(675,0,l),
(654,198,l),
(646,196,l),
(609,30,l),
(408,25,l),
(408,279,l),
(507,279,l),
(567,156,l),
(575,158,l),
(556,292,l),
(573,429,l),
(565,433,l),
(507,309,l),
(408,309,l),
(408,579,l),
(605,575,l),
(625,423,l),
(633,421,l),
(672,612,l),
(247,600,l),
(245,592,l),
(366,554,l),
(355,574,l),
(50,44,l),
(-20,9,l),
(-18,0,l),
(206,0,l),
(208,9,l),
(88,44,l)
);
},
{
closed = 1;
nodes = (
(159,202,l),
(395,202,l),
(395,232,l),
(178,232,l)
);
}
);
width = 735;
}
);
metricLeft = A;
metricRight = E;
unicode = 198;
}
{
glyphname = ae;
kernLeft = a;
kernRight = o;
layers = (
{
anchors = (
{
name = top;
pos = (532,401);
}
);
layerId = "0CCC0E2D-406A-4672-8E6C-854B1DF78A27";
shapes = (
{
closed = 1;
nodes = (
(83,177,o),
(155,216,o),
(275,216,cs),
(356,216,o),
(430,198,o),
(489,166,c),
(489,99,l),
(422,35,o),
(359,7,o),
(258,7,cs),
(155,7,o),
(83,49,o),
(83,113,cs)
);
},
{
closed = 1;
nodes = (
(218,421,o),
(126,402,o),
(39,352,c),
(80,249,l),
(88,251,l),
(99,350,l),
(139,375,o),
(227,392,o),
(294,392,cs),
(432,392,o),
(489,336,o),
(489,193,c),
(449,221,o),
(354,238,o),
(284,238,cs),
(139,239,o),
(42,188,o),
(42,109,cs),
(42,33,o),
(129,-20,o),
(245,-20,cs),
(365,-20,o),
(446,18,o),
(538,114,c),
(508,112,l),
(559,24,o),
(643,-20,o),
(750,-20,cs),
(857,-20,o),
(949,18,o),
(1025,95,c),
(1014,105,l),
(938,39,o),
(863,9,o),
(773,9,cs),
(638,9,o),
(529,88,o),
(526,205,cs),
(523,320,o),
(617,395,o),
(753,395,cs),
(874,395,o),
(967,329,o),
(973,236,c),
(510,220,l),
(512,203,l),
(1021,205,l),
(1019,340,o),
(917,421,o),
(769,421,cs),
(640,421,o),
(541,366,o),
(506,270,c),
(525,263,l),
(504,375,o),
(442,421,o),
(313,421,cs)
);
}
);
width = 1069;
},
{
anchors = (
{
name = top;
pos = (557,415);
}
);
layerId = m002;
shapes = (
{
closed = 1;
nodes = (
(128,188,o),
(185,223,o),
(270,223,cs),
(368,223,o),
(450,198,o),
(493,160,c),
(493,91,l),
(449,54,o),
(373,27,o),
(290,27,cs),
(182,27,o),
(128,65,o),
(128,134,cs)
);
},
{
closed = 1;
nodes = (
(245,435,o),
(143,415,o),
(39,373,c),
(90,259,l),
(98,261,l),
(109,354,l),
(158,375,o),
(232,386,o),
(304,386,cs),
(447,386,o),
(491,340,o),
(493,209,c),
(446,240,o),
(390,257,o),
(304,264,cs),
(156,276,o),
(26,207,o),
(26,117,cs),
(26,42,o),
(135,-20,o),
(263,-20,cs),
(379,-20,o),
(473,16,o),
(585,115,c),
(524,111,l),
(560,35,o),
(649,-20,o),
(782,-20,cs),
(894,-20,o),
(978,19,o),
(1079,123,c),
(1064,138,l),
(995,69,o),
(918,42,o),
(827,42,cs),
(675,42,o),
(575,117,o),
(576,209,cs),
(578,327,o),
(674,396,o),
(765,396,cs),
(877,396,o),
(955,347,o),
(993,250,c),
(556,229,l),
(558,203,l),
(1075,192,l),
(1073,340,o),
(972,435,o),
(809,435,cs),
(683,435,o),
(590,384,o),
(536,314,c),
(562,304,l),
(537,401,o),
(479,435,o),
(366,435,cs)
);
}
);
width = 1108;
},
{
anchors = (
{
name = top;
pos = (324,402);
}
);
background = {
anchors = (
{
name = bottom;
pos = (222,0);
},
{
name = ogonek;
pos = (278,10);
},
{
name = top;
pos = (194,402);
}
);
};
layerId = m003;
shapes = (
{
closed = 1;
nodes = (
(98,189,o),
(127,223,o),
(179,223,cs),
(206,223,o),
(240,214,o),
(262,201,c),
(262,65,l),
(249,42,o),
(210,23,o),
(179,23,cs),
(132,23,o),
(98,67,o),
(98,130,cs)
);
},
{
closed = 1;
nodes = (
(146,422,o),
(103,411,o),
(44,382,c),
(91,269,l),
(99,271,l),
(100,369,l),
(115,377,o),
(139,382,o),
(164,382,cs),
(237,382,o),
(265,341,o),
(263,236,c),
(233,251,o),
(193,260,o),
(161,260,cs),
(81,260,o),
(28,203,o),
(28,115,cs),
(28,31,o),
(75,-20,o),
(152,-20,cs),
(214,-20,o),
(268,12,o),
(325,83,c),
(285,81,l),
(311,15,o),
(364,-20,o),
(435,-20,cs),
(491,-20,o),
(525,3,o),
(581,78,c),
(569,86,l),
(524,37,o),
(490,17,o),
(454,17,cs),
(379,17,o),
(326,107,o),
(327,230,cs),
(327,328,o),
(365,386,o),
(430,386,cs),
(483,386,o),
(502,348,o),
(503,243,c),
(306,227,l),
(308,204,l),
(581,200,l),
(579,349,o),
(532,422,o),
(439,422,cs),
(379,422,o),
(328,392,o),
(296,338,c),
(324,333,l),
(310,396,o),
(272,422,o),
(196,422,cs)
);
}
);
width = 615;
},
{
anchors = (
{
name = top;
pos = (275,392);
}
);
layerId = "2C26E880-80A5-4D19-8A94-7D905A372841";
shapes = (
{
closed = 1;
nodes = (
(65,180,o),
(97,214,o),
(158,214,cs),
(188,214,o),
(230,207,o),
(244,198,c),
(244,61,l),
(225,27,o),
(194,7,o),
(160,7,cs),
(99,7,o),
(65,45,o),
(65,114,cs)
);
},
{
closed = 1;
nodes = (
(130,412,o),
(83,399,o),
(51,378,c),
(89,279,l),
(97,281,l),
(98,373,l),
(112,381,o),
(141,386,o),
(166,386,cs),
(229,386,o),
(246,355,o),
(245,224,c),
(213,236,o),
(186,240,o),
(162,240,cs),
(78,240,o),
(29,193,o),
(29,109,cs),
(29,29,o),
(74,-20,o),
(146,-20,cs),
(204,-20,o),
(252,13,o),
(280,73,c),
(260,68,l),
(290,9,o),
(336,-20,o),
(395,-20,cs),
(446,-20,o),
(484,1,o),
(517,57,c),
(505,65,l),
(475,24,o),
(445,6,o),
(405,6,cs),
(324,6,o),
(281,80,o),
(278,210,cs),
(275,338,o),
(317,386,o),
(388,386,cs),
(457,386,o),
(478,342,o),
(482,227,c),
(266,222,l),
(268,201,l),
(517,204,l),
(515,352,o),
(479,412,o),
(395,412,cs),
(326,412,o),
(281,373,o),
(259,296,c),
(277,289,l),
(270,381,o),
(235,412,o),
(167,412,cs)
);
}
);
width = 556;
},
{
anchors = (
{
name = top;
pos = (325,402);
}
);
associatedMasterId = m003;
background = {
anchors = (
{
name = bottom;
pos = (223,0);
},
{
name = ogonek;
pos = (279,10);
},
{
name = top;
pos = (195,402);
}
);
};
layerId = "35C08634-345B-4D57-94A3-7ED1EB56FCC2";
name = "25 Sep 22, 12:42";
shapes = (
{
closed = 1;
nodes = (
(113,188,o),
(142,223,o),
(191,223,cs),
(209,223,o),
(231,216,o),
(262,201,c),
(262,61,l),
(244,37,o),
(216,23,o),
(189,23,cs),
(146,23,o),
(113,70,o),
(113,130,cs)
);
},
{
closed = 1;
nodes = (
(162,422,o),
(126,405,o),
(79,382,c),
(126,269,l),
(134,271,l),
(135,369,l),
(156,379,o),
(174,382,o),
(199,382,cs),
(248,382,o),
(268,349,o),
(263,237,c),
(236,251,o),
(204,260,o),
(174,260,cs),
(91,260,o),
(28,198,o),
(28,115,cs),
(28,39,o),
(86,-20,o),
(161,-20,cs),
(223,-20,o),
(280,24,o),
(335,94,c),
(293,66,l),
(324,9,o),
(369,-20,o),
(433,-20,cs),
(495,-20,o),
(539,10,o),
(577,78,c),
(565,86,l),
(534,39,o),
(494,17,o),
(452,17,cs),
(378,17,o),
(328,109,o),
(328,230,cs),
(328,324,o),
(361,386,o),
(427,386,cs),
(473,386,o),
(498,341,o),
(500,243,c),
(308,227,l),
(310,204,l),
(577,200,l),
(575,343,o),
(526,422,o),
(437,422,cs),
(376,422,o),
(330,392,o),
(299,344,c),
(326,330,l),
(316,400,o),
(285,422,o),
(231,422,cs)
);
}
);
width = 611;
}
);
metricLeft = a;
metricRight = e;
unicode = 230;
}
{
glyphname = OE;
kernLeft = O;
kernRight = E;
layers = (
{
anchors = (
{
name = bottom;
pos = (636,0);
},
{
name = top;
pos = (636,600);
}
);
layerId = "0CCC0E2D-406A-4672-8E6C-854B1DF78A27";
shapes = (
{
closed = 1;
nodes = (
(82,480,o),
(224,580,o),
(438,580,cs),
(516,580,o),
(584,564,o),
(638,535,c),
(638,58,l),
(586,30,o),
(520,15,o),
(446,15,cs),
(228,15,o),
(82,135,o),
(82,315,cs)
);
},
{
closed = 1;
nodes = (
(40,112,o),
(201,-20,o),
(442,-20,cs),
(495,-20,o),
(545,-13,o),
(589,0,c),
(1195,0,l),
(1174,199,l),
(1166,197,l),
(1125,28,l),
(675,25,l),
(675,282,l),
(952,279,l),
(1017,157,l),
(1025,159,l),
(1006,293,l),
(1023,428,l),
(1015,430,l),
(952,308,l),
(675,305,l),
(675,577,l),
(1121,581,l),
(1145,422,l),
(1153,420,l),
(1192,612,l),
(568,601,l),
(529,610,o),
(487,615,o),
(441,615,cs),
(200,615,o),
(40,499,o),
(40,309,cs)
);
}
);
width = 1255;
},
{
anchors = (
{
name = bottom;
pos = (674,0);
},
{
name = top;
pos = (674,600);
}
);
layerId = m002;
shapes = (
{
closed = 1;
nodes = (
(125,471,o),
(251,564,o),
(442,564,cs),
(533,564,o),
(622,548,o),
(687,522,c),
(687,49,l),
(649,37,o),
(594,31,o),
(543,31,cs),
(291,31,o),
(125,151,o),
(125,331,cs)
);
},
{
closed = 1;
nodes = (
(24,112,o),
(206,-20,o),
(477,-20,cs),
(538,-20,o),
(615,-13,o),
(668,0,c),
(1281,0,l),
(1262,232,l),
(1257,230,l),
(1196,54,l),
(783,42,l),
(783,270,l),
(1036,267,l),
(1101,145,l),
(1109,147,l),
(1090,293,l),
(1107,440,l),
(1099,442,l),
(1036,320,l),
(784,314,l),
(784,559,l),
(1212,551,l),
(1237,392,l),
(1244,390,l),
(1299,612,l),
(675,600,l),
(626,601,o),
(561,615,o),
(507,615,cs),
(218,615,o),
(24,484,o),
(24,293,cs)
);
}
);
width = 1359;
},
{
anchors = (
{
name = bottom;
pos = (359,0);
},
{
name = top;
pos = (359,600);
}
);
layerId = m003;
shapes = (
{
closed = 1;
nodes = (
(111,471,o),
(163,572,o),
(250,572,cs),
(282,572,o),
(309,561,o),
(332,540,c),
(332,47,l),
(315,35,o),
(295,28,o),
(273,28,cs),
(167,28,o),
(111,152,o),
(111,327,cs)
);
},
{
closed = 1;
nodes = (
(26,111,o),
(107,-20,o),
(250,-20,cs),
(286,-20,o),
(317,-13,o),
(346,0,c),
(694,0,l),
(673,219,l),
(665,217,l),
(617,43,l),
(411,33,l),
(411,275,l),
(504,273,l),
(564,151,l),
(572,153,l),
(553,293,l),
(570,435,l),
(562,437,l),
(504,315,l),
(411,313,l),
(411,570,l),
(613,564,l),
(644,403,l),
(652,401,l),
(691,612,l),
(354,604,l),
(329,614,o),
(303,620,o),
(272,620,cs),
(116,620,o),
(26,488,o),
(26,298,cs)
);
}
);
width = 742;
},
{
anchors = (
{
name = bottom;
pos = (367,0);
},
{
name = top;
pos = (367,600);
}
);
layerId = "2C26E880-80A5-4D19-8A94-7D905A372841";
shapes = (
{
closed = 1;
nodes = (
(82,491,o),
(142,588,o),
(250,588,cs),
(283,588,o),
(311,578,o),
(335,559,c),
(335,36,l),
(313,20,o),
(287,12,o),
(257,12,cs),
(145,12,o),
(82,121,o),
(82,316,cs)
);
},
{
closed = 1;
nodes = (
(45,95,o),
(118,-20,o),
(250,-20,cs),
(282,-20,o),
(310,-13,o),
(335,0,c),
(642,0,l),
(621,198,l),
(613,196,l),
(576,30,l),
(370,25,l),
(370,279,l),
(467,279,l),
(527,156,l),
(535,158,l),
(516,292,l),
(533,429,l),
(525,433,l),
(467,309,l),
(370,309,l),
(370,579,l),
(572,575,l),
(592,423,l),
(600,421,l),
(639,612,l),
(339,600,l),
(314,613,o),
(286,620,o),
(255,620,cs),
(120,620,o),
(45,507,o),
(45,303,cs)
);
}
);
width = 702;
}
);
metricLeft = O;
metricRight = E;
unicode = 338;
}
{
glyphname = jdotless;
kernLeft = j;
kernRight = j;
layers = (
{
anchors = (
{
name = top;
pos = (204,401);
}
);
layerId = "0CCC0E2D-406A-4672-8E6C-854B1DF78A27";
shapes = (
{
closed = 1;
nodes = (
(36,342,l),
(185,350,l),
(185,9,ls),
(185,-142,o),
(143,-187,o),
(24,-239,c),
(32,-251,l),
(179,-212,o),
(225,-132,o),
(225,9,cs),
(225,421,l),
(34,350,l)
);
}
);
width = 334;
},
{
anchors = (
{
name = top;
pos = (195,415);
}
);
layerId = m002;
shapes = (
{
closed = 1;
nodes = (
(7,342,l),
(156,350,l),
(156,9,ls),
(156,-141,o),
(134,-187,o),
(15,-239,c),
(23,-251,l),
(170,-212,o),
(242,-131,o),
(242,9,cs),
(242,435,l),
(5,350,l)
);
}
);
width = 338;
},
{
anchors = (
{
name = top;
pos = (153,412);
}
);
layerId = m003;
shapes = (
{
closed = 1;
nodes = (
(14,347,l),
(123,355,l),
(123,9,ls),
(123,-149,o),
(86,-192,o),
(33,-239,c),
(41,-251,l),
(127,-216,o),
(196,-133,o),
(196,9,cs),
(196,432,l),
(12,355,l)
);
}
);
width = 264;
},
{
anchors = (
{
name = top;
pos = (154,402);
}
);
layerId = "2C26E880-80A5-4D19-8A94-7D905A372841";
shapes = (
{
closed = 1;
nodes = (
(30,347,l),
(139,355,l),
(139,9,ls),
(139,-113,o),
(118,-166,o),
(34,-239,c),
(42,-251,l),
(132,-197,o),
(173,-127,o),
(173,9,cs),
(173,422,l),
(28,355,l)
);
}
);
width = 252;
}
);
unicode = 567;
}
{
glyphname = ogonek;
layers = (
{
layerId = "0CCC0E2D-406A-4672-8E6C-854B1DF78A27";
shapes = (
{
ref = ogonekcomb;
}
);
width = 310;
},
{
associatedMasterId = "0CCC0E2D-406A-4672-8E6C-854B1DF78A27";
layerId = "7A8D61DF-D8D2-4E20-9B32-0389F0A81830";
name = "Light Extended Sep 28 19, 12:31";
shapes = (
{
closed = 1;
nodes = (
(466,-90,l),
(475,-123,o),
(457,-146,o),
(422,-146,cs),
(391,-146,o),
(368,-129,o),
(368,-106,cs),
(368,-73,o),
(398,-30,o),
(442,0,c),
(417,0,l),
(360,-39,o),
(342,-81,o),
(342,-108,cs),
(342,-153,o),
(378,-171,o),
(424,-171,cs),
(470,-171,o),
(487,-136,o),
(476,-101,cs),
(471,-85,l)
);
}
);
width = 600;
},
{
layerId = m002;
shapes = (
{
ref = ogonekcomb;
}
);
width = 310;
},
{
associatedMasterId = m002;
layerId = "5C2A85FE-B62E-46D1-B5BC-01F10E60BEA5";
name = "Light Extended Sep 28 19, 12:31";
shapes = (
{
closed = 1;
nodes = (
(466,-90,l),
(475,-123,o),
(457,-146,o),
(422,-146,cs),
(391,-146,o),
(368,-129,o),
(368,-106,cs),
(368,-73,o),
(398,-30,o),
(442,0,c),
(417,0,l),
(360,-39,o),
(342,-81,o),
(342,-108,cs),
(342,-153,o),
(378,-171,o),
(424,-171,cs),
(470,-171,o),
(487,-136,o),
(476,-101,cs),
(471,-85,l)
);
}
);
width = 600;
},
{
layerId = m003;
shapes = (
{
ref = ogonekcomb;
}
);
width = 312;
},
{
associatedMasterId = m003;
layerId = "83CDC2A2-4B37-42FF-80B2-3F00237B7A46";
name = "Light Extended Sep 28 19, 12:31";
shapes = (
{
closed = 1;
nodes = (
(466,-90,l),
(475,-123,o),
(457,-146,o),
(422,-146,cs),
(391,-146,o),
(368,-129,o),
(368,-106,cs),
(368,-73,o),
(398,-30,o),
(442,0,c),
(417,0,l),
(360,-39,o),
(342,-81,o),
(342,-108,cs),
(342,-153,o),
(378,-171,o),
(424,-171,cs),
(470,-171,o),
(487,-136,o),
(476,-101,cs),
(471,-85,l)
);
}
);
width = 600;
},
{
layerId = "2C26E880-80A5-4D19-8A94-7D905A372841";
shapes = (
{
alignment = -1;
ref = ogonekcomb;
}
);
width = 301;
}
);
unicode = 731;
}
{
glyphname = macroncomb;
layers = (
{
anchors = (
{
name = _top;
pos = (220,410);
}
);
layerId = "0CCC0E2D-406A-4672-8E6C-854B1DF78A27";
shapes = (
{
closed = 1;
nodes = (
(75,562,l),
(365,562,l),
(365,605,l),
(75,605,l)
);
}
);
width = 440;
},
{
anchors = (
{
name = _top;
pos = (220,410);
}
);
layerId = m002;
shapes = (
{
closed = 1;
nodes = (
(51,559,l),
(387,559,l),
(387,613,l),
(51,613,l)
);
}
);
width = 438;
},
{
anchors = (
{
name = _top;
pos = (152,400);
}
);
layerId = m003;
shapes = (
{
closed = 1;
nodes = (
(48,539,l),
(245,539,l),
(245,586,l),
(48,586,l)
);
}
);
width = 293;
},
{
anchors = (
{
name = _top;
pos = (146,400);
}
);
layerId = "2C26E880-80A5-4D19-8A94-7D905A372841";
shapes = (
{
closed = 1;
nodes = (
(60,546,l),
(222,546,l),
(222,576,l),
(60,576,l)
);
}
);
width = 282;
}
);
unicode = 772;
}
{
glyphname = dieresiscomb;
layers = (
{
anchors = (
{
name = _top;
pos = (205,410);
}
);
layerId = "0CCC0E2D-406A-4672-8E6C-854B1DF78A27";
shapes = (
{
closed = 1;
nodes = (
(64,534,l),
(133,534,l),
(133,616,l),
(64,616,l)
);
},
{
closed = 1;
nodes = (
(277,534,l),
(346,534,l),
(346,616,l),
(277,616,l)
);
}
);
width = 410;
},
{
anchors = (
{
name = _top;
pos = (205,410);
}
);
layerId = m002;
shapes = (
{
closed = 1;
nodes = (
(43,543,l),
(145,543,l),
(145,637,l),
(43,637,l)
);
},
{
closed = 1;
nodes = (
(267,543,l),
(369,543,l),
(369,637,l),
(267,637,l)
);
}
);
width = 412;
},
{
anchors = (
{
name = _top;
pos = (136,403);
}
);
layerId = m003;
shapes = (
{
closed = 1;
nodes = (
(48,522,l),
(113,522,l),
(113,613,l),
(48,613,l)
);
},
{
closed = 1;
nodes = (
(160,522,l),
(225,522,l),
(225,613,l),
(160,613,l)
);
}
);
width = 273;
},
{
anchors = (
{
name = _top;
pos = (132,390);
}
);
layerId = "2C26E880-80A5-4D19-8A94-7D905A372841";
shapes = (
{
closed = 1;
nodes = (
(60,514,l),
(100,514,l),
(100,597,l),
(60,597,l)
);
},
{
closed = 1;
nodes = (
(164,514,l),
(204,514,l),
(204,597,l),
(164,597,l)
);
}
);
width = 264;
}
);
unicode = 776;
}
{
glyphname = hungarumlautcomb;
layers = (
{
anchors = (
{
name = _top;
pos = (225,410);
}
);
layerId = "0CCC0E2D-406A-4672-8E6C-854B1DF78A27";
shapes = (
{
closed = 1;
nodes = (
(433,624,l),
(227,516,l),
(232,504,l),
(460,568,l)
);
},
{
closed = 1;
nodes = (
(236,652,l),
(47,516,l),
(54,505,l),
(271,600,l)
);
}
);
width = 492;
},
{
anchors = (
{
name = _top;
pos = (225,410);
}
);
layerId = m002;
shapes = (
{
closed = 1;
nodes = (
(427,649,l),
(200,532,l),
(213,511,l),
(463,577,l)
);
},
{
closed = 1;
nodes = (
(236,685,l),
(36,533,l),
(52,516,l),
(285,620,l)
);
}
);
width = 492;
},
{
anchors = (
{
name = _top;
pos = (156,403);
}
);
layerId = m003;
shapes = (
{
closed = 1;
nodes = (
(299,597,l),
(157,517,l),
(166,498,l),
(326,540,l)
);
},
{
closed = 1;
nodes = (
(167,627,l),
(48,515,l),
(62,500,l),
(208,578,l)
);
}
);
width = 374;
},
{
anchors = (
{
name = _top;
pos = (159,390);
}
);
layerId = "2C26E880-80A5-4D19-8A94-7D905A372841";
shapes = (
{
closed = 1;
nodes = (
(307,578,l),
(180,506,l),
(183,493,l),
(327,532,l)
);
},
{
closed = 1;
nodes = (
(170,602,l),
(60,502,l),
(66,491,l),
(201,563,l)
);
}
);
width = 387;
}
);
unicode = 779;
}
{
glyphname = endash;
layers = (
{
layerId = "0CCC0E2D-406A-4672-8E6C-854B1DF78A27";
shapes = (
{
closed = 1;
nodes = (
(50,224,l),
(624,223,l),
(624,258,l),
(50,258,l)
);
}
);
width = 674;
},
{
layerId = m002;
shapes = (
{
closed = 1;
nodes = (
(34,211,l),
(608,211,l),
(608,269,l),
(34,269,l)
);
}
);
width = 642;
},
{
layerId = m003;
shapes = (
{
closed = 1;
nodes = (
(38,216,l),
(352,216,l),
(352,265,l),
(38,265,l)
);
}
);
width = 390;
},
{
layerId = "2C26E880-80A5-4D19-8A94-7D905A372841";
shapes = (
{
closed = 1;
nodes = (
(49,226,l),
(363,226,l),
(363,256,l),
(49,256,l)
);
}
);
width = 413;
}
);
unicode = 8211;
}
{
glyphname = guilsinglleft;
layers = (
{
layerId = "0CCC0E2D-406A-4672-8E6C-854B1DF78A27";
shapes = (
{
closed = 1;
nodes = (
(20,208,l),
(212,11,l),
(225,21,l),
(75,208,l),
(225,395,l),
(212,405,l)
);
}
);
width = 264;
},
{
layerId = m002;
shapes = (
{
closed = 1;
nodes = (
(4,208,l),
(241,10,l),
(253,22,l),
(113,208,l),
(253,394,l),
(241,406,l)
);
}
);
width = 281;
},
{
layerId = m003;
shapes = (
{
closed = 1;
nodes = (
(28,202,l),
(184,10,l),
(195,17,l),
(107,202,l),
(195,389,l),
(184,396,l)
);
}
);
width = 203;
},
{
layerId = "2C26E880-80A5-4D19-8A94-7D905A372841";
shapes = (
{
closed = 1;
nodes = (
(40,202,l),
(162,11,l),
(177,16,l),
(85,202,l),
(177,390,l),
(162,395,l)
);
}
);
width = 197;
}
);
unicode = 8249;
}
{
glyphname = fraction;
layers = (
{
layerId = "0CCC0E2D-406A-4672-8E6C-854B1DF78A27";
shapes = (
{
closed = 1;
nodes = (
(622,604,l),
(603,620,l),
(52,13,l),
(71,-3,l)
);
}
);
width = 672;
},
{
layerId = m002;
shapes = (
{
closed = 1;
nodes = (
(651,588,l),
(616,620,l),
(49,29,l),
(84,-3,l)
);
}
);
width = 701;
},
{
layerId = m003;
shapes = (
{
closed = 1;
nodes = (
(313,611,l),
(278,624,l),
(50,13,l),
(84,0,l)
);
}
);
width = 363;
},
{
layerId = "2C26E880-80A5-4D19-8A94-7D905A372841";
shapes = (
{
closed = 1;
nodes = (
(291,622,l),
(269,624,l),
(52,2,l),
(75,0,l)
);
}
);
width = 341;
}
);
unicode = 8260;
}
{
glyphname = zerosuperior;
layers = (
{
layerId = "0CCC0E2D-406A-4672-8E6C-854B1DF78A27";
shapes = (
{
closed = 1;
nodes = (
(367,238,o),
(451,318,o),
(451,436,cs),
(451,551,o),
(371,625,o),
(247,625,cs),
(116,625,o),
(30,548,o),
(30,431,cs),
(30,317,o),
(116,238,o),
(241,238,cs)
);
},
{
closed = 1;
nodes = (
(137,269,o),
(65,335,o),
(65,435,cs),
(65,530,o),
(137,594,o),
(245,594,cs),
(348,594,o),
(416,530,o),
(416,433,cs),
(416,335,o),
(347,269,o),
(244,269,cs)
);
}
);
width = 481;
},
{
layerId = m002;
shapes = (
{
closed = 1;
nodes = (
(423,238,o),
(527,328,o),
(527,445,cs),
(527,552,o),
(439,625,o),
(308,625,cs),
(171,625,o),
(62,536,o),
(62,422,cs),
(62,316,o),
(154,238,o),
(285,238,cs)
);
},
{
closed = 1;
nodes = (
(205,270,o),
(133,343,o),
(133,444,cs),
(133,540,o),
(182,593,o),
(289,593,cs),
(387,593,o),
(456,525,o),
(456,424,cs),
(456,325,o),
(412,270,o),
(305,270,cs)
);
}
);
width = 589;
},
{
layerId = m003;
shapes = (
{
closed = 1;
nodes = (
(233,236,o),
(288,307,o),
(288,440,cs),
(288,558,o),
(237,620,o),
(172,620,cs),
(89,620,o),
(35,552,o),
(35,423,cs),
(35,301,o),
(85,236,o),
(156,236,cs)
);
},
{
closed = 1;
nodes = (
(120,267,o),
(95,322,o),
(95,439,cs),
(95,542,o),
(120,590,o),
(167,590,cs),
(206,590,o),
(228,537,o),
(228,425,cs),
(228,318,o),
(205,267,o),
(164,267,cs)
);
}
);
width = 324;
},
{
layerId = "2C26E880-80A5-4D19-8A94-7D905A372841";
shapes = (
{
closed = 1;
nodes = (
(189,236,o),
(235,318,o),
(235,440,cs),
(235,548,o),
(196,620,o),
(134,620,cs),
(60,620,o),
(11,541,o),
(11,423,cs),
(11,311,o),
(53,236,o),
(118,236,cs)
);
},
{
closed = 1;
nodes = (
(77,263,o),
(45,332,o),
(45,439,cs),
(45,533,o),
(78,595,o),
(123,595,cs),
(172,595,o),
(201,528,o),
(201,425,cs),
(201,327,o),
(172,263,o),
(126,263,cs)
);
}
);
width = 243;
}
);
unicode = 8304;
}
{
glyphname = T_h.liga;
kernLeft = T;
kernRight = n;
layers = (
{
anchors = (
{
name = bottom;
pos = (430,0);
},
{
name = center;
pos = (414,300);
},
{
name = top;
pos = (414,600);
}
);
layerId = "0CCC0E2D-406A-4672-8E6C-854B1DF78A27";
shapes = (
{
closed = 1;
nodes = (
(73,419,l),
(81,421,l),
(107,579,l),
(395,579,l),
(396,50,l),
(246,8,l),
(248,0,l),
(581,0,l),
(583,8,l),
(433,50,l),
(432,579,l),
(888,580,l),
(888,50,l),
(748,6,l),
(750,0,l),
(1071,0,l),
(1073,6,l),
(923,50,l),
(923,662,l),
(792,610,l),
(414,600,l),
(35,610,l)
);
},
{
closed = 1;
nodes = (
(913,297,l),
(1016,365,o),
(1103,392,o),
(1196,392,cs),
(1329,392,o),
(1386,331,o),
(1387,217,cs),
(1388,50,l),
(1238,8,l),
(1240,0,l),
(1551,1,l),
(1553,9,l),
(1422,49,l),
(1422,224,ls),
(1422,351,o),
(1353,420,o),
(1208,420,cs),
(1113,420,o),
(1016,390,o),
(913,323,c)
);
}
);
width = 1572;
},
{
anchors = (
{
name = bottom;
pos = (489,0);
},
{
name = center;
pos = (473,300);
},
{
name = top;
pos = (473,600);
}
);
layerId = m002;
shapes = (
{
closed = 1;
nodes = (
(65,390,l),
(73,392,l),
(107,550,l),
(425,558,l),
(426,50,l),
(276,8,l),
(278,0,l),
(671,0,l),
(673,8,l),
(523,50,l),
(522,558,l),
(962,551,l),
(962,50,l),
(822,9,l),
(824,0,l),
(1199,0,l),
(1201,9,l),
(1051,50,l),
(1051,700,l),
(796,606,l),
(473,600,l),
(19,610,l)
);
},
{
closed = 1;
nodes = (
(1017,284,l),
(1110,345,o),
(1210,379,o),
(1279,379,cs),
(1402,379,o),
(1468,321,o),
(1469,212,cs),
(1470,50,l),
(1320,8,l),
(1322,0,l),
(1687,1,l),
(1689,9,l),
(1558,49,l),
(1558,208,ls),
(1558,355,o),
(1473,436,o),
(1328,436,cs),
(1231,436,o),
(1125,397,o),
(1017,323,c)
);
}
);
width = 1695;
},
{
anchors = (
{
name = bottom;
pos = (263,0);
},
{
name = center;
pos = (244,300);
},
{
name = top;
pos = (245,600);
}
);
layerId = m003;
shapes = (
{
closed = 1;
nodes = (
(62,401,l),
(70,403,l),
(101,564,l),
(210,571,l),
(210,45,l),
(100,8,l),
(102,0,l),
(398,0,l),
(400,8,l),
(290,45,l),
(290,571,l),
(499,561,l),
(499,45,l),
(426,8,l),
(428,0,l),
(643,0,l),
(645,8,l),
(573,45,l),
(573,650,l),
(477,612,l),
(250,600,l),
(23,612,l)
);
},
{
closed = 1;
nodes = (
(550,276,l),
(597,340,o),
(638,370,o),
(678,370,cs),
(728,370,o),
(756,327,o),
(756,253,cs),
(756,45,l),
(676,8,l),
(678,0,l),
(928,1,l),
(930,9,l),
(829,44,l),
(829,264,ls),
(829,362,o),
(791,422,o),
(717,422,cs),
(663,422,o),
(610,389,o),
(550,312,c)
);
}
);
width = 938;
},
{
anchors = (
{
name = bottom;
pos = (246,0);
},
{
name = center;
pos = (240,300);
},
{
name = top;
pos = (236,600);
}
);
layerId = "2C26E880-80A5-4D19-8A94-7D905A372841";
shapes = (
{
closed = 1;
nodes = (
(74,421,l),
(82,423,l),
(102,575,l),
(223,578,l),
(223,45,l),
(113,8,l),
(115,0,l),
(366,0,l),
(368,8,l),
(258,45,l),
(258,578,l),
(512,575,l),
(512,47,l),
(402,8,l),
(404,0,l),
(650,0,l),
(652,8,l),
(542,47,l),
(542,661,l),
(443,608,l),
(241,600,l),
(35,612,l)
);
},
{
closed = 1;
nodes = (
(534,287,l),
(590,361,o),
(633,384,o),
(679,384,cs),
(735,384,o),
(757,349,o),
(757,257,cs),
(757,45,l),
(677,8,l),
(679,0,l),
(886,1,l),
(888,9,l),
(787,44,l),
(787,264,ls),
(787,378,o),
(747,411,o),
(689,411,cs),
(632,411,o),
(583,382,o),
(534,319,c)
);
}
);
width = 907;
}
);
metricLeft = T;
metricRight = h;
}
{
glyphname = T_k.liga;
layers = (
{
anchors = (
{
name = bottom;
pos = (430,0);
},
{
name = center;
pos = (414,300);
},
{
name = top;
pos = (414,600);
}
);
layerId = "0CCC0E2D-406A-4672-8E6C-854B1DF78A27";
shapes = (
{
closed = 1;
nodes = (
(1340,350,l),
(1503,392,l),
(1501,400,l),
(1126,400,l),
(1124,392,l),
(1285,350,l),
(909,143,l),
(918,118,l)
);
},
{
closed = 1;
nodes = (
(1108,243,l),
(1374,50,l),
(1214,8,l),
(1216,0,l),
(1559,0,l),
(1561,8,l),
(1426,50,l),
(1139,260,l)
);
},
{
closed = 1;
nodes = (
(73,419,l),
(81,421,l),
(107,579,l),
(395,579,l),
(396,50,l),
(246,8,l),
(248,0,l),
(581,0,l),
(583,8,l),
(433,50,l),
(432,579,l),
(888,580,l),
(888,50,l),
(748,6,l),
(750,0,l),
(1071,0,l),
(1073,6,l),
(923,50,l),
(923,662,l),
(792,610,l),
(414,600,l),
(35,610,l)
);
}
);
width = 1570;
},
{
anchors = (
{
name = bottom;
pos = (489,0);
},
{
name = center;
pos = (473,300);
},
{
name = top;
pos = (473,600);
}
);
layerId = m002;
shapes = (
{
closed = 1;
nodes = (
(1488,366,l),
(1615,408,l),
(1613,416,l),
(1217,416,l),
(1215,408,l),
(1376,366,l),
(1003,146,l),
(1030,118,l)
);
},
{
closed = 1;
nodes = (
(1199,219,l),
(1460,50,l),
(1300,8,l),
(1302,0,l),
(1703,0,l),
(1705,8,l),
(1583,50,l),
(1279,256,l)
);
},
{
closed = 1;
nodes = (
(65,390,l),
(73,392,l),
(107,550,l),
(425,558,l),
(426,50,l),
(276,8,l),
(278,0,l),
(671,0,l),
(673,8,l),
(523,50,l),
(522,558,l),
(962,551,l),
(962,50,l),
(822,9,l),
(824,0,l),
(1199,0,l),
(1201,9,l),
(1051,50,l),
(1051,700,l),
(796,606,l),
(473,600,l),
(19,610,l)
);
}
);
width = 1700;
},
{
anchors = (
{
name = bottom;
pos = (251,0);
},
{
name = center;
pos = (245,300);
},
{
name = top;
pos = (245,600);
}
);
layerId = m003;
shapes = (
{
closed = 1;
nodes = (
(737,357,l),
(845,394,l),
(843,402,l),
(612,402,l),
(610,394,l),
(690,357,l),
(531,146,l),
(552,118,l)
);
},
{
closed = 1;
nodes = (
(607,218,l),
(734,35,l),
(673,8,l),
(675,0,l),
(895,0,l),
(897,8,l),
(811,41,l),
(657,259,l)
);
},
{
closed = 1;
nodes = (
(62,401,l),
(70,403,l),
(101,564,l),
(210,571,l),
(210,45,l),
(100,8,l),
(102,0,l),
(398,0,l),
(400,8,l),
(290,45,l),
(290,571,l),
(499,561,l),
(499,45,l),
(426,8,l),
(428,0,l),
(643,0,l),
(645,8,l),
(573,45,l),
(573,650,l),
(477,612,l),
(250,600,l),
(23,612,l)
);
}
);
width = 886;
},
{
anchors = (
{
name = bottom;
pos = (243,0);
},
{
name = center;
pos = (237,300);
},
{
name = top;
pos = (237,600);
}
);
layerId = "2C26E880-80A5-4D19-8A94-7D905A372841";
shapes = (
{
closed = 1;
nodes = (
(693,346,l),
(813,383,l),
(811,391,l),
(584,391,l),
(582,383,l),
(662,346,l),
(525,143,l),
(536,118,l)
);
},
{
closed = 1;
nodes = (
(604,235,l),
(721,35,l),
(661,8,l),
(663,0,l),
(844,0,l),
(846,8,l),
(750,41,l),
(619,263,l)
);
},
{
closed = 1;
nodes = (
(74,421,l),
(82,423,l),
(102,575,l),
(223,578,l),
(223,45,l),
(113,8,l),
(115,0,l),
(366,0,l),
(368,8,l),
(258,45,l),
(258,578,l),
(512,575,l),
(512,47,l),
(402,8,l),
(404,0,l),
(650,0,l),
(652,8,l),
(542,47,l),
(542,661,l),
(443,608,l),
(241,600,l),
(35,612,l)
);
}
);
width = 865;
}
);
metricLeft = T;
metricRight = k;
}
{
glyphname = circumflexcomb.case;
layers = (
{
anchors = (
{
name = _top;
pos = (229,592);
}
);
layerId = "0CCC0E2D-406A-4672-8E6C-854B1DF78A27";
shapes = (
{
closed = 1;
nodes = (
(55,699,l),
(61,682,l),
(229,728,l),
(396,682,l),
(402,699,l),
(229,790,l)
);
}
);
width = 457;
},
{
anchors = (
{
name = _top;
pos = (284,604);
}
);
layerId = m002;
shapes = (
{
closed = 1;
nodes = (
(47,702,l),
(56,682,l),
(284,736,l),
(512,682,l),
(521,702,l),
(284,810,l)
);
}
);
width = 568;
},
{
anchors = (
{
name = _top;
pos = (178,600);
}
);
layerId = m003;
shapes = (
{
closed = 1;
nodes = (
(48,690,l),
(60,670,l),
(177,717,l),
(292,670,l),
(304,690,l),
(177,787,l)
);
}
);
width = 352;
},
{
anchors = (
{
name = _top;
pos = (172,600);
}
);
layerId = "2C26E880-80A5-4D19-8A94-7D905A372841";
shapes = (
{
closed = 1;
nodes = (
(60,690,l),
(72,672,l),
(176,719,l),
(279,672,l),
(291,690,l),
(176,774,l)
);
}
);
width = 351;
}
);
}
{
glyphname = f_f_b.liga;
layers = (
{
layerId = "2C26E880-80A5-4D19-8A94-7D905A372841";
shapes = (
{
closed = 1;
nodes = (
(723,32,l),
(772,-4,o),
(813,-20,o),
(856,-20,cs),
(954,-20,o),
(1020,69,o),
(1020,202,cs),
(1020,328,o),
(958,412,o),
(865,412,cs),
(824,412,o),
(778,394,o),
(757,368,c),
(757,702,l),
(702,668,l),
(643,690,o),
(581,702,o),
(537,702,cs),
(474,702,o),
(436,679,o),
(418,620,c),
(343,659,o),
(291,672,o),
(246,672,cs),
(146,672,o),
(101,614,o),
(101,480,cs),
(101,407,l),
(-9,375,l),
(-7,367,l),
(101,367,l),
(101,47,l),
(-10,8,l),
(-8,0,l),
(261,0,l),
(263,8,l),
(136,47,l),
(136,367,l),
(402,366,l),
(402,47,l),
(292,8,l),
(294,0,l),
(572,0,l),
(574,8,l),
(437,47,l),
(437,367,l),
(560,366,l),
(573,274,l),
(581,272,l),
(611,391,l),
(437,392,l),
(437,504,ls),
(437,638,o),
(457,675,o),
(531,676,cs),
(583,677,o),
(649,662,o),
(723,629,c)
);
},
{
closed = 1;
nodes = (
(136,504,ls),
(136,607,o),
(165,645,o),
(240,646,cs),
(291,647,o),
(341,629,o),
(410,589,c),
(404,559,o),
(402,519,o),
(402,480,cs),
(402,391,l),
(136,392,l)
);
},
{
closed = 1;
nodes = (
(757,330,l),
(772,362,o),
(817,385,o),
(859,385,cs),
(936,385,o),
(986,308,o),
(986,188,cs),
(986,75,o),
(939,7,o),
(863,7,cs),
(826,7,o),
(783,23,o),
(757,48,c)
);
}
);
width = 1059;
},
{
layerId = m003;
shapes = (
{
closed = 1;
nodes = (
(718,37,l),
(752,5,o),
(812,-20,o),
(872,-20,cs),
(977,-20,o),
(1058,82,o),
(1058,216,cs),
(1058,339,o),
(996,422,o),
(903,422,cs),
(858,422,o),
(822,403,o),
(790,357,c),
(790,712,l),
(722,681,l),
(691,694,o),
(617,712,o),
(558,712,cs),
(501,712,o),
(461,690,o),
(436,639,c),
(350,674,o),
(312,682,o),
(258,682,cs),
(152,682,o),
(98,604,o),
(98,448,cs),
(98,405,l),
(-12,375,l),
(-10,365,l),
(98,365,l),
(99,51,l),
(-23,8,l),
(-21,0,l),
(274,0,l),
(276,8,l),
(171,50,l),
(171,368,l),
(408,367,l),
(409,51,l),
(299,8,l),
(301,0,l),
(594,0,l),
(596,8,l),
(480,50,l),
(480,368,l),
(566,367,l),
(584,275,l),
(592,273,l),
(633,401,l),
(480,402,l),
(480,504,ls),
(480,631,o),
(500,676,o),
(557,678,cs),
(611,680,o),
(675,656,o),
(718,624,c)
);
},
{
closed = 1;
nodes = (
(171,504,ls),
(171,603,o),
(201,649,o),
(260,649,cs),
(309,649,o),
(364,629,o),
(418,588,c),
(411,544,o),
(408,501,o),
(408,448,cs),
(408,401,l),
(171,402,l)
);
},
{
closed = 1;
nodes = (
(790,311,l),
(818,356,o),
(846,375,o),
(879,375,cs),
(943,375,o),
(986,300,o),
(986,188,cs),
(986,83,o),
(946,20,o),
(878,20,cs),
(846,20,o),
(811,33,o),
(790,53,c)
);
}
);
width = 1092;
},
{
layerId = m002;
shapes = (
{
closed = 1;
nodes = (
(1142,58,l),
(1202,10,o),
(1310,-20,o),
(1410,-20,cs),
(1612,-20,o),
(1763,91,o),
(1763,230,cs),
(1763,342,o),
(1654,435,o),
(1503,435,cs),
(1412,435,o),
(1312,401,o),
(1228,336,c),
(1228,720,l),
(1197,688,l),
(1074,717,o),
(1028,725,o),
(928,725,cs),
(784,725,o),
(681,692,o),
(623,623,c),
(572,667,o),
(493,695,o),
(421,695,cs),
(232,695,o),
(125,597,o),
(125,464,cs),
(125,415,l),
(15,378,l),
(17,368,l),
(125,368,l),
(126,50,l),
(6,8,l),
(8,0,l),
(430,0,l),
(432,8,l),
(212,49,l),
(212,375,l),
(572,375,l),
(573,50,l),
(453,8,l),
(455,0,l),
(877,0,l),
(879,8,l),
(659,49,l),
(659,372,l),
(948,372,l),
(965,270,l),
(973,268,l),
(1027,415,l),
(659,415,l),
(659,464,ls),
(659,608,o),
(725,678,o),
(898,678,cs),
(1033,678,o),
(1105,643,o),
(1142,598,c)
);
},
{
closed = 1;
nodes = (
(212,479,ls),
(212,577,o),
(264,648,o),
(378,648,cs),
(475,648,o),
(542,616,o),
(591,571,c),
(579,540,o),
(572,506,o),
(572,464,cs),
(572,415,l),
(212,415,l)
);
},
{
closed = 1;
nodes = (
(1228,285,l),
(1299,354,o),
(1372,385,o),
(1463,385,cs),
(1604,385,o),
(1676,308,o),
(1676,198,cs),
(1676,97,o),
(1582,23,o),
(1446,23,cs),
(1367,23,o),
(1274,42,o),
(1228,75,c)
);
}
);
width = 1792;
},
{
layerId = "0CCC0E2D-406A-4672-8E6C-854B1DF78A27";
shapes = (
{
closed = 1;
nodes = (
(1148,53,l),
(1215,7,o),
(1308,-20,o),
(1403,-20,cs),
(1589,-20,o),
(1715,74,o),
(1715,211,cs),
(1715,338,o),
(1608,421,o),
(1455,421,cs),
(1356,421,o),
(1253,387,o),
(1187,336,c),
(1187,720,l),
(1111,683,l),
(1043,700,o),
(967,711,o),
(887,711,cs),
(785,711,o),
(706,679,o),
(660,620,c),
(553,669,o),
(480,681,o),
(408,681,cs),
(265,681,o),
(138,604,o),
(138,464,cs),
(138,415,l),
(28,384,l),
(30,374,l),
(138,374,l),
(139,50,l),
(19,8,l),
(21,0,l),
(395,0,l),
(397,8,l),
(177,49,l),
(177,375,l),
(613,375,l),
(614,50,l),
(494,8,l),
(496,0,l),
(870,0,l),
(872,8,l),
(652,49,l),
(652,375,l),
(910,375,l),
(927,273,l),
(935,271,l),
(975,401,l),
(652,401,l),
(652,464,ls),
(652,633,o),
(763,684,o),
(885,684,cs),
(957,684,o),
(1081,664,o),
(1148,631,c)
);
},
{
closed = 1;
nodes = (
(177,465,ls),
(177,593,o),
(286,654,o),
(404,654,cs),
(469,654,o),
(571,636,o),
(640,588,c),
(622,555,o),
(613,514,o),
(613,464,cs),
(613,401,l),
(177,401,l)
);
},
{
closed = 1;
nodes = (
(1187,302,l),
(1238,351,o),
(1340,391,o),
(1439,391,cs),
(1569,391,o),
(1675,319,o),
(1675,198,cs),
(1675,85,o),
(1569,7,o),
(1415,7,cs),
(1331,7,o),
(1241,31,o),
(1187,68,c)
);
}
);
width = 1759;
}
);
metricLeft = f;
metricRight = b;
}
{
glyphname = gravecomb.case;
layers = (
{
anchors = (
{
name = _top;
pos = (215,593);
}
);
layerId = "0CCC0E2D-406A-4672-8E6C-854B1DF78A27";
shapes = (
{
closed = 1;
nodes = (
(292,672,l),
(297,685,l),
(87,807,l),
(60,744,l)
);
}
);
width = 362;
},
{
anchors = (
{
name = _top;
pos = (249,604);
}
);
layerId = m002;
shapes = (
{
closed = 1;
nodes = (
(384,672,l),
(391,696,l),
(79,827,l),
(44,744,l)
);
}
);
width = 432;
},
{
anchors = (
{
name = _top;
pos = (193,600);
}
);
layerId = m003;
shapes = (
{
closed = 1;
nodes = (
(223,672,l),
(231,703,l),
(74,781,l),
(48,713,l)
);
}
);
width = 279;
},
{
anchors = (
{
name = _top;
pos = (166,600);
}
);
layerId = "2C26E880-80A5-4D19-8A94-7D905A372841";
shapes = (
{
closed = 1;
nodes = (
(222,672,l),
(230,690,l),
(86,768,l),
(60,713,l)
);
}
);
width = 290;
}
);
}
{
glyphname = macroncomb.case;
layers = (
{
anchors = (
{
name = _top;
pos = (220,589);
}
);
layerId = "0CCC0E2D-406A-4672-8E6C-854B1DF78A27";
shapes = (
{
closed = 1;
nodes = (
(64,708,l),
(376,708,l),
(376,760,l),
(64,760,l)
);
}
);
width = 440;
},
{
anchors = (
{
name = _top;
pos = (255,606);
}
);
layerId = m002;
shapes = (
{
closed = 1;
nodes = (
(43,715,l),
(466,715,l),
(466,776,l),
(43,776,l)
);
}
);
width = 509;
},
{
anchors = (
{
name = _top;
pos = (151,600);
}
);
layerId = m003;
shapes = (
{
closed = 1;
nodes = (
(48,688,l),
(253,688,l),
(253,739,l),
(48,739,l)
);
}
);
width = 301;
},
{
anchors = (
{
name = _top;
pos = (149,600);
}
);
layerId = "2C26E880-80A5-4D19-8A94-7D905A372841";
shapes = (
{
closed = 1;
nodes = (
(60,700,l),
(240,700,l),
(240,739,l),
(60,739,l)
);
}
);
width = 300;
}
);
}
{
glyphname = ringcomb.case;
layers = (
{
anchors = (
{
name = _top;
pos = (174,594);
}
);
layerId = "0CCC0E2D-406A-4672-8E6C-854B1DF78A27";
shapes = (
{
closed = 1;
nodes = (
(252,655,o),
(304,691,o),
(304,747,cs),
(304,800,o),
(255,833,o),
(178,833,cs),
(95,833,o),
(43,798,o),
(43,742,cs),
(43,689,o),
(92,655,o),
(170,655,cs)
);
},
{
closed = 1;
nodes = (
(129,690,o),
(97,712,o),
(97,747,cs),
(97,778,o),
(125,798,o),
(170,798,cs),
(219,798,o),
(250,776,o),
(250,742,cs),
(250,709,o),
(223,690,o),
(178,690,cs)
);
}
);
width = 347;
},
{
anchors = (
{
name = _top;
pos = (231,603);
}
);
layerId = m002;
shapes = (
{
closed = 1;
nodes = (
(337,655,o),
(408,698,o),
(408,764,cs),
(408,826,o),
(342,866,o),
(237,866,cs),
(125,866,o),
(54,824,o),
(54,758,cs),
(54,696,o),
(120,655,o),
(226,655,cs)
);
},
{
closed = 1;
nodes = (
(170,697,o),
(127,723,o),
(127,764,cs),
(127,801,o),
(166,824,o),
(226,824,cs),
(293,824,o),
(335,797,o),
(335,758,cs),
(335,720,o),
(297,697,o),
(237,697,cs)
);
}
);
width = 462;
},
{
anchors = (
{
name = _top;
pos = (143,600);
}
);
layerId = m003;
shapes = (
{
closed = 1;
nodes = (
(198,653,o),
(237,691,o),
(237,748,cs),
(237,800,o),
(201,835,o),
(148,835,cs),
(88,835,o),
(48,798,o),
(48,742,cs),
(48,688,o),
(85,653,o),
(140,653,cs)
);
},
{
closed = 1;
nodes = (
(114,687,o),
(103,707,o),
(103,748,cs),
(103,784,o),
(113,801,o),
(140,801,cs),
(172,801,o),
(183,781,o),
(183,742,cs),
(183,706,o),
(175,687,o),
(148,687,cs)
);
}
);
width = 285;
},
{
anchors = (
{
name = _top;
pos = (126,600);
}
);
layerId = "2C26E880-80A5-4D19-8A94-7D905A372841";
shapes = (
{
closed = 1;
nodes = (
(174,652,o),
(204,685,o),
(204,735,cs),
(204,781,o),
(177,811,o),
(137,811,cs),
(91,811,o),
(60,778,o),
(60,729,cs),
(60,683,o),
(88,652,o),
(129,652,cs)
);
},
{
closed = 1;
nodes = (
(110,674,o),
(92,698,o),
(92,735,cs),
(92,767,o),
(107,788,o),
(129,788,cs),
(155,788,o),
(172,764,o),
(172,729,cs),
(172,696,o),
(158,674,o),
(137,674,cs)
);
}
);
width = 264;
}
);
}
